<?xml version="1.0" encoding="UTF-8"?>
<!DOCTYPE svg PUBLIC "-//W3C//DTD SVG 1.1//EN" "http://www.w3.org/Graphics/SVG/1.1/DTD/svg11.dtd">
<svg xmlns="http://www.w3.org/2000/svg" version="1.1" width="136px" height="136px" style="shape-rendering:geometricPrecision; text-rendering:geometricPrecision; image-rendering:optimizeQuality; fill-rule:evenodd; clip-rule:evenodd" xmlns:xlink="http://www.w3.org/1999/xlink">
<g><path style="opacity:0.958" fill="#cd2b56" d="M 110.5,-0.5 C 111.833,-0.5 113.167,-0.5 114.5,-0.5C 114.5,-0.166667 114.5,0.166667 114.5,0.5C 97.9413,5.28318 92.108,15.9498 97,32.5C 100.049,37.2158 104.049,40.8824 109,43.5C 109.062,45.1147 109.229,46.4481 109.5,47.5C 107.786,48.7384 105.786,49.405 103.5,49.5C 105.767,44.9492 104.433,42.2825 99.5,41.5C 97.5,39.1667 95.5,36.8333 93.5,34.5C 93.5,33.8333 93.1667,33.5 92.5,33.5C 91.8333,31.1667 91.1667,28.8333 90.5,26.5C 90.5,24.8333 90.5,23.1667 90.5,21.5C 90.5751,18.7938 90.9084,16.1272 91.5,13.5C 95.5366,5.65455 101.87,0.987881 110.5,-0.5 Z"/></g>
<g><path style="opacity:0.972" fill="#e63f64" d="M 114.5,0.5 C 126.074,2.40844 133.074,9.07511 135.5,20.5C 135.5,22.1667 135.5,23.8333 135.5,25.5C 133.723,33.7079 129.057,39.7079 121.5,43.5C 118.834,43.933 116.168,44.433 113.5,45C 112.619,45.7083 111.953,46.5416 111.5,47.5C 110.833,47.5 110.167,47.5 109.5,47.5C 109.229,46.4481 109.062,45.1147 109,43.5C 104.049,40.8824 100.049,37.2158 97,32.5C 92.108,15.9498 97.9413,5.28318 114.5,0.5 Z"/></g>
<g><path style="opacity:1" fill="#ded6f8" d="M 110.5,7.5 C 112.288,7.21478 113.955,7.54811 115.5,8.5C 116.212,10.0459 117.378,11.0459 119,11.5C 121.881,9.84931 124.048,10.516 125.5,13.5C 124.572,14.7678 124.405,16.1011 125,17.5C 129.082,20.1441 129.416,23.1441 126,26.5C 126.5,32.6667 123.667,35.5 117.5,35C 114.943,39.6288 112.276,39.6288 109.5,35C 107.765,34.3486 106.098,34.5153 104.5,35.5C 101.516,34.0479 100.849,31.8812 102.5,29C 100.833,27.0128 99.5001,24.8461 98.5,22.5C 98.6962,20.7139 99.5295,19.3805 101,18.5C 101.333,16.5 101.667,14.5 102,12.5C 102.689,11.6433 103.522,10.9767 104.5,10.5C 107.463,11.6859 109.463,10.6859 110.5,7.5 Z"/></g>
<g><path style="opacity:0.973" fill="#312e4b" d="M 13.5,13.5 C 10.2668,14.8947 7.76681,17.228 6,20.5C 5.50098,24.8206 5.33432,29.1539 5.5,33.5C 3.5,33.5 1.5,33.5 -0.5,33.5C -0.5,28.8333 -0.5,24.1667 -0.5,19.5C 2.64294,14.2682 7.30961,12.2682 13.5,13.5 Z"/></g>
<g><path style="opacity:1" fill="#5c5f8b" d="M 13.5,13.5 C 39.5,13.5 65.5,13.5 91.5,13.5C 90.9084,16.1272 90.5751,18.7938 90.5,21.5C 80.4944,21.3335 70.4944,21.5002 60.5,22C 59.1667,23.3333 59.1667,24.6667 60.5,26C 70.4944,26.4998 80.4944,26.6665 90.5,26.5C 91.1667,28.8333 91.8333,31.1667 92.5,33.5C 63.5,33.5 34.5,33.5 5.5,33.5C 5.33432,29.1539 5.50098,24.8206 6,20.5C 7.76681,17.228 10.2668,14.8947 13.5,13.5 Z"/></g>
<g><path style="opacity:1" fill="#e74267" d="M 109.5,16.5 C 119.024,15.7317 121.691,19.565 117.5,28C 111.557,30.9111 107.89,29.0778 106.5,22.5C 106.984,20.1992 107.984,18.1992 109.5,16.5 Z"/></g>
<g><path style="opacity:1" fill="#d5d3f6" d="M 11.5,20.5 C 16.3276,20.3852 17.6609,22.5519 15.5,27C 10.5705,27.427 9.23716,25.2604 11.5,20.5 Z"/></g>
<g><path style="opacity:1" fill="#d1cff2" d="M 22.5,20.5 C 27.3276,20.3852 28.6609,22.5519 26.5,27C 20.7377,27.4178 19.4044,25.2511 22.5,20.5 Z"/></g>
<g><path style="opacity:1" fill="#d3d1f4" d="M 33.5,20.5 C 38.2411,20.1614 39.5744,22.1614 37.5,26.5C 31.787,27.4516 30.4537,25.4516 33.5,20.5 Z"/></g>
<g><path style="opacity:0.999" fill="#dad8fa" d="M 90.5,21.5 C 90.5,23.1667 90.5,24.8333 90.5,26.5C 80.4944,26.6665 70.4944,26.4998 60.5,26C 59.1667,24.6667 59.1667,23.3333 60.5,22C 70.4944,21.5002 80.4944,21.3335 90.5,21.5 Z"/></g>
<g><path style="opacity:0.954" fill="#c2c2f2" d="M -0.5,33.5 C 1.5,33.5 3.5,33.5 5.5,33.5C 34.5,33.5 63.5,33.5 92.5,33.5C 93.1667,33.5 93.5,33.8333 93.5,34.5C 64.1667,34.5 34.8333,34.5 5.5,34.5C 5.33335,65.5018 5.50002,96.5018 6,127.5C 7.35318,131.35 9.85318,134.017 13.5,135.5C 10.8333,135.5 8.16667,135.5 5.5,135.5C 3.16667,133.833 1.16667,131.833 -0.5,129.5C -0.5,97.5 -0.5,65.5 -0.5,33.5 Z"/></g>
<g><path style="opacity:0.991" fill="#dddbfc" d="M 93.5,34.5 C 95.5,36.8333 97.5,39.1667 99.5,41.5C 72.5,41.5 45.5,41.5 18.5,41.5C 14.713,40.8144 11.5463,41.8144 9,44.5C 8.33333,53.8333 8.33333,63.1667 9,72.5C 9.37675,73.9423 10.2101,74.9423 11.5,75.5C 43.3307,76.6641 75.3307,76.8307 107.5,76C 108.766,75.6905 109.933,75.1905 111,74.5C 111.5,65.5062 111.666,56.5062 111.5,47.5C 111.953,46.5416 112.619,45.7083 113.5,45C 116.168,44.433 118.834,43.933 121.5,43.5C 121.5,51.1667 121.5,58.8333 121.5,66.5C 119.1,68.2964 117.433,70.6298 116.5,73.5C 115.326,74.5137 114.66,75.847 114.5,77.5C 106.715,88.2987 99.715,99.632 93.5,111.5C 93.5,114.5 93.5,117.5 93.5,120.5C 92.596,121.209 92.2627,122.209 92.5,123.5C 64.8333,123.5 37.1667,123.5 9.5,123.5C 9.5,124.5 9.5,125.5 9.5,126.5C 37.5,126.5 65.5,126.5 93.5,126.5C 93.4346,126.938 93.6012,127.272 94,127.5C 95.7804,126.361 97.6137,125.361 99.5,124.5C 102.54,123.32 105.206,121.653 107.5,119.5C 112.167,112.833 116.833,106.167 121.5,99.5C 121.666,109.172 121.5,118.839 121,128.5C 120.062,131.598 118.228,133.931 115.5,135.5C 81.5,135.5 47.5,135.5 13.5,135.5C 9.85318,134.017 7.35318,131.35 6,127.5C 5.50002,96.5018 5.33335,65.5018 5.5,34.5C 34.8333,34.5 64.1667,34.5 93.5,34.5 Z"/></g>
<g><path style="opacity:0.999" fill="#6abafd" d="M 18.5,41.5 C 45.5,41.5 72.5,41.5 99.5,41.5C 104.433,42.2825 105.767,44.9492 103.5,49.5C 105.786,49.405 107.786,48.7384 109.5,47.5C 110.167,47.5 110.833,47.5 111.5,47.5C 111.666,56.5062 111.5,65.5062 111,74.5C 109.933,75.1905 108.766,75.6905 107.5,76C 75.3307,76.8307 43.3307,76.6641 11.5,75.5C 13.8568,75.6633 16.1902,75.4966 18.5,75C 18,74.5 17.5,74 17,73.5C 16.3333,63.5 16.3333,53.5 17,43.5C 17.7172,42.9558 18.2172,42.2891 18.5,41.5 Z"/></g>
<g><path style="opacity:1" fill="#4583fe" d="M 18.5,41.5 C 18.2172,42.2891 17.7172,42.9558 17,43.5C 16.3333,53.5 16.3333,63.5 17,73.5C 17.5,74 18,74.5 18.5,75C 16.1902,75.4966 13.8568,75.6633 11.5,75.5C 10.2101,74.9423 9.37675,73.9423 9,72.5C 8.33333,63.1667 8.33333,53.8333 9,44.5C 11.5463,41.8144 14.713,40.8144 18.5,41.5 Z"/></g>
<g><path style="opacity:1" fill="#d6d9fe" d="M 24.5,48.5 C 28.1817,48.3347 31.8484,48.5014 35.5,49C 39.5978,51.112 40.2644,53.9453 37.5,57.5C 42.3954,65.3152 40.0621,68.9818 30.5,68.5C 28.2412,68.4677 26.0745,68.1344 24,67.5C 23.2098,61.0853 23.3765,54.752 24.5,48.5 Z"/></g>
<g><path style="opacity:1" fill="#dcdbfe" d="M 43.5,48.5 C 44.5,48.5 45.5,48.5 46.5,48.5C 46.5,54.1667 46.5,59.8333 46.5,65.5C 49.8499,65.335 53.1832,65.5017 56.5,66C 56.9574,66.414 57.2907,66.914 57.5,67.5C 52.8804,68.4933 48.2137,68.8266 43.5,68.5C 43.5,61.8333 43.5,55.1667 43.5,48.5 Z"/></g>
<g><path style="opacity:1" fill="#d8dafe" d="M 64.5,48.5 C 75.4307,47.6006 79.9307,52.6006 78,63.5C 73.2447,69.9034 67.5781,70.9034 61,66.5C 56.8098,59.2836 57.9765,53.2836 64.5,48.5 Z"/></g>
<g><path style="opacity:1" fill="#d7d9fe" d="M 86.5,48.5 C 89.8499,48.335 93.1832,48.5017 96.5,49C 99.8175,50.0852 100.151,51.5852 97.5,53.5C 92.6592,50.3348 88.4925,51.0014 85,55.5C 83.553,63.3864 86.7196,66.5531 94.5,65C 95.3802,63.6439 95.7135,62.1439 95.5,60.5C 93.8333,60.5 92.1667,60.5 90.5,60.5C 90.5,59.5 90.5,58.5 90.5,57.5C 98.6722,55.505 101.506,58.505 99,66.5C 92.2255,71.316 86.5588,70.316 82,63.5C 80.2541,57.3423 81.7541,52.3423 86.5,48.5 Z"/></g>
<g><path style="opacity:1" fill="#6bbafe" d="M 65.5,51.5 C 74.5487,51.701 77.2153,55.8677 73.5,64C 65.6383,67.3308 61.805,64.8308 62,56.5C 62.9973,54.6769 64.1639,53.0103 65.5,51.5 Z"/></g>
<g><path style="opacity:1" fill="#6fbbfe" d="M 27.5,51.5 C 29.8568,51.3367 32.1902,51.5034 34.5,52C 35.8333,53.3333 35.8333,54.6667 34.5,56C 32.1902,56.4966 29.8568,56.6633 27.5,56.5C 27.5,54.8333 27.5,53.1667 27.5,51.5 Z"/></g>
<g><path style="opacity:1" fill="#68bafe" d="M 27.5,60.5 C 30.1873,60.3359 32.854,60.5026 35.5,61C 36.8333,62.3333 36.8333,63.6667 35.5,65C 32.854,65.4974 30.1873,65.6641 27.5,65.5C 27.5,63.8333 27.5,62.1667 27.5,60.5 Z"/></g>
<g><path style="opacity:0.967" fill="#322f4b" d="M 131.5,82.5 C 126.767,79.1101 121.767,76.1101 116.5,73.5C 117.433,70.6298 119.1,68.2964 121.5,66.5C 129.197,63.844 133.53,66.5106 134.5,74.5C 134.579,77.658 133.579,80.3246 131.5,82.5 Z"/></g>
<g><path style="opacity:0.978" fill="#c0c2f1" d="M 116.5,73.5 C 121.767,76.1101 126.767,79.1101 131.5,82.5C 130.833,83.8333 130.167,85.1667 129.5,86.5C 126.5,85.1667 123.5,83.8333 120.5,82.5C 118.5,80.8333 116.5,79.1667 114.5,77.5C 114.66,75.847 115.326,74.5137 116.5,73.5 Z"/></g>
<g><path style="opacity:0.997" fill="#46c96c" d="M 114.5,77.5 C 116.5,79.1667 118.5,80.8333 120.5,82.5C 113.914,93.3367 107.581,104.337 101.5,115.5C 98.8599,114.18 96.1932,112.847 93.5,111.5C 99.715,99.632 106.715,88.2987 114.5,77.5 Z"/></g>
<g><path style="opacity:1" fill="#fab63f" d="M 11.5,83.5 C 21.6584,82.3415 31.9917,82.1748 42.5,83C 43,83.5 43.5,84 44,84.5C 44.6667,94.8333 44.6667,105.167 44,115.5C 35.919,116.482 27.7524,116.816 19.5,116.5C 18.5234,105.581 18.1901,94.5813 18.5,83.5C 16.1667,83.5 13.8333,83.5 11.5,83.5 Z"/></g>
<g><path style="opacity:1" fill="#c8c8f7" d="M 50.5,82.5 C 67.5033,82.3334 84.5033,82.5001 101.5,83C 102.833,84 102.833,85 101.5,86C 84.8333,86.6667 68.1667,86.6667 51.5,86C 50.6634,84.9887 50.33,83.8221 50.5,82.5 Z"/></g>
<g><path style="opacity:1" fill="#fc9a38" d="M 11.5,83.5 C 13.8333,83.5 16.1667,83.5 18.5,83.5C 18.1901,94.5813 18.5234,105.581 19.5,116.5C 16.8127,116.664 14.146,116.497 11.5,116C 10.8095,114.933 10.3095,113.766 10,112.5C 9.33333,103.167 9.33333,93.8333 10,84.5C 10.3826,83.944 10.8826,83.6107 11.5,83.5 Z"/></g>
<g><path style="opacity:0.989" fill="#1a9c5f" d="M 120.5,82.5 C 123.5,83.8333 126.5,85.1667 129.5,86.5C 126.833,90.8333 124.167,95.1667 121.5,99.5C 116.833,106.167 112.167,112.833 107.5,119.5C 105.205,118.525 103.205,117.192 101.5,115.5C 107.581,104.337 113.914,93.3367 120.5,82.5 Z"/></g>
<g><path style="opacity:1" fill="#c8c8f8" d="M 50.5,92.5 C 64.504,92.3334 78.504,92.5001 92.5,93C 93.3366,94.0113 93.67,95.1779 93.5,96.5C 79.1667,96.5 64.8333,96.5 50.5,96.5C 50.5,95.1667 50.5,93.8333 50.5,92.5 Z"/></g>
<g><path style="opacity:1" fill="#c8c8f7" d="M 50.5,102.5 C 63.1711,102.333 75.8377,102.5 88.5,103C 89.8333,104 89.8333,105 88.5,106C 75.8333,106.667 63.1667,106.667 50.5,106C 49.3157,104.855 49.3157,103.688 50.5,102.5 Z"/></g>
<g><path style="opacity:0.996" fill="#fbae92" d="M 93.5,111.5 C 96.1932,112.847 98.8599,114.18 101.5,115.5C 103.205,117.192 105.205,118.525 107.5,119.5C 105.206,121.653 102.54,123.32 99.5,124.5C 98.0351,123.263 96.3684,122.263 94.5,121.5C 94.5,120.833 94.1667,120.5 93.5,120.5C 93.5,117.5 93.5,114.5 93.5,111.5 Z"/></g>
<g><path style="opacity:1" fill="#c6c6f7" d="M 50.5,113.5 C 61.8333,113.5 73.1667,113.5 84.5,113.5C 84.5,114.5 84.5,115.5 84.5,116.5C 73.1667,116.5 61.8333,116.5 50.5,116.5C 50.5,115.5 50.5,114.5 50.5,113.5 Z"/></g>
<g><path style="opacity:1" fill="#383450" d="M 94.5,121.5 C 96.3684,122.263 98.0351,123.263 99.5,124.5C 97.6137,125.361 95.7804,126.361 94,127.5C 93.6012,127.272 93.4346,126.938 93.5,126.5C 93.2155,124.585 93.5489,122.919 94.5,121.5 Z"/></g>
<g><path style="opacity:0.999" fill="#c4c4f4" d="M 93.5,120.5 C 94.1667,120.5 94.5,120.833 94.5,121.5C 93.5489,122.919 93.2155,124.585 93.5,126.5C 65.5,126.5 37.5,126.5 9.5,126.5C 9.5,125.5 9.5,124.5 9.5,123.5C 37.1667,123.5 64.8333,123.5 92.5,123.5C 92.2627,122.209 92.596,121.209 93.5,120.5 Z"/></g>
</svg>
