<?xml version="1.0" encoding="UTF-8"?>
<!DOCTYPE svg PUBLIC "-//W3C//DTD SVG 1.1//EN" "http://www.w3.org/Graphics/SVG/1.1/DTD/svg11.dtd">
<svg xmlns="http://www.w3.org/2000/svg" version="1.1" width="140px" height="141px" style="shape-rendering:geometricPrecision; text-rendering:geometricPrecision; image-rendering:optimizeQuality; fill-rule:evenodd; clip-rule:evenodd" xmlns:xlink="http://www.w3.org/1999/xlink">
<g><path style="opacity:0.961" fill="#59708b" d="M 8.5,-0.5 C 10.5,-0.5 12.5,-0.5 14.5,-0.5C 22.3184,3.47689 24.6517,9.47689 21.5,17.5C 19.8333,18.5 18.5,19.8333 17.5,21.5C 9.65572,24.8853 3.65572,22.8853 -0.5,15.5C -0.5,12.8333 -0.5,10.1667 -0.5,7.5C 1.47409,3.67955 4.47409,1.01289 8.5,-0.5 Z"/></g>
<g><path style="opacity:0.964" fill="#59708b" d="M 125.5,-0.5 C 127.167,-0.5 128.833,-0.5 130.5,-0.5C 134.742,0.741084 137.742,3.40775 139.5,7.5C 139.5,10.1667 139.5,12.8333 139.5,15.5C 135.458,23.1813 129.458,25.1813 121.5,21.5C 120.5,19.8333 119.167,18.5 117.5,17.5C 114.245,8.6875 116.911,2.6875 125.5,-0.5 Z"/></g>
<g><path style="opacity:0.915" fill="#83a6cb" d="M 21.5,17.5 C 25.8333,22.5 30.5,27.1667 35.5,31.5C 35.9232,34.124 34.5899,35.7907 31.5,36.5C 26.8333,31.5 22.1667,26.5 17.5,21.5C 18.5,19.8333 19.8333,18.5 21.5,17.5 Z"/></g>
<g><path style="opacity:0.887" fill="#83a6cb" d="M 117.5,17.5 C 119.167,18.5 120.5,19.8333 121.5,21.5C 116.833,26.5 112.167,31.5 107.5,36.5C 105.251,35.9202 103.585,34.5869 102.5,32.5C 107.833,27.8333 112.833,22.8333 117.5,17.5 Z"/></g>
<g><path style="opacity:0.963" fill="#6a8aa6" d="M 102.5,32.5 C 103.585,34.5869 105.251,35.9202 107.5,36.5C 123.496,58.8064 123.496,81.1397 107.5,103.5C 105.251,104.08 103.585,105.413 102.5,107.5C 86.505,120.097 68.8384,122.93 49.5,116C 44.7596,113.64 40.4263,110.807 36.5,107.5C 35.7298,105.065 34.0632,103.731 31.5,103.5C 15.5034,81.1912 15.5034,58.8578 31.5,36.5C 34.5899,35.7907 35.9232,34.124 35.5,31.5C 40.229,29.2995 44.8956,26.7995 49.5,24C 68.8716,16.7936 86.5383,19.6269 102.5,32.5 Z"/></g>
<g><path style="opacity:1" fill="#dbe9f4" d="M 104.5,95.5 C 103.15,91.9752 100.484,90.1418 96.5,90C 100.212,87.487 101.378,83.987 100,79.5C 96.9738,76.1355 93.4738,75.6355 89.5,78C 86.3851,82.6438 87.0517,86.6438 91.5,90C 88.262,90.232 85.762,91.732 84,94.5C 82.6392,100.407 82.1392,106.407 82.5,112.5C 81.8333,107.5 81.1667,102.5 80.5,97.5C 79.4763,92.644 76.4763,90.144 71.5,90C 77.6175,86.0873 77.9508,81.754 72.5,77C 67.1661,75.6674 63.8328,77.6674 62.5,83C 62.7952,85.9234 64.1285,88.2568 66.5,90C 62.8804,90.2838 60.3804,92.1171 59,95.5C 58.5005,101.491 58.3338,107.491 58.5,113.5C 57.5084,113.672 56.8417,113.338 56.5,112.5C 56.666,107.156 56.4994,101.823 56,96.5C 54.3006,92.795 51.4672,90.6283 47.5,90C 51.9483,86.6438 52.6149,82.6438 49.5,78C 41.2463,74.9187 37.7463,77.7521 39,86.5C 39.4652,87.9308 40.2986,89.0975 41.5,90C 37.9608,90.4217 35.6275,92.2551 34.5,95.5C 33.5041,95.5858 32.6708,95.2524 32,94.5C 17.3854,64.2826 25.2187,41.7826 55.5,27C 85.1931,21.4239 104.693,32.9239 114,61.5C 115.215,72.0011 113.548,82.0011 109,91.5C 108.124,93.6355 106.624,94.9688 104.5,95.5 Z"/></g>
<g><path style="opacity:1" fill="#e67777" d="M 68.5,32.5 C 69.3764,32.3691 70.0431,32.7025 70.5,33.5C 71.6225,40.2849 75.6225,43.2849 82.5,42.5C 80.8509,44.6499 79.0176,46.6499 77,48.5C 76.6987,51.5071 76.8654,54.5071 77.5,57.5C 74.8704,56.5722 72.2037,55.5722 69.5,54.5C 66.6465,55.1906 64.1465,56.5239 62,58.5C 61.8922,54.8235 61.8922,51.1568 62,47.5C 54.2226,42.8261 55.056,40.6594 64.5,41C 66.6966,38.5786 68.03,35.7452 68.5,32.5 Z"/></g>
<g><path style="opacity:1" fill="#4d97f1" d="M 54.5,65.5 C 61.8798,65.043 64.7131,68.3763 63,75.5C 60.4406,78.3492 57.2739,79.1825 53.5,78C 49.3339,73.3683 49.6673,69.2017 54.5,65.5 Z"/></g>
<g><path style="opacity:1" fill="#4d97f1" d="M 78.5,65.5 C 84.0931,64.4506 87.4265,66.6173 88.5,72C 87.6852,78.0395 84.3519,80.0395 78.5,78C 74.5471,73.8353 74.5471,69.6686 78.5,65.5 Z"/></g>
<g><path style="opacity:1" fill="#4c95ef" d="M 56.5,112.5 C 46.4399,110.161 39.1066,104.494 34.5,95.5C 35.6275,92.2551 37.9608,90.4217 41.5,90C 40.2986,89.0975 39.4652,87.9308 39,86.5C 37.7463,77.7521 41.2463,74.9187 49.5,78C 52.6149,82.6438 51.9483,86.6438 47.5,90C 51.4672,90.6283 54.3006,92.795 56,96.5C 56.4994,101.823 56.666,107.156 56.5,112.5 Z"/></g>
<g><path style="opacity:1" fill="#4b95ef" d="M 80.5,97.5 C 80.5,102.833 80.5,108.167 80.5,113.5C 73.1113,114.674 65.778,114.674 58.5,113.5C 58.3338,107.491 58.5005,101.491 59,95.5C 60.3804,92.1171 62.8804,90.2838 66.5,90C 64.1285,88.2568 62.7952,85.9234 62.5,83C 63.8328,77.6674 67.1661,75.6674 72.5,77C 77.9508,81.754 77.6175,86.0873 71.5,90C 76.4763,90.144 79.4763,92.644 80.5,97.5 Z"/></g>
<g><path style="opacity:1" fill="#4c95ef" d="M 104.5,95.5 C 104.611,96.1174 104.944,96.6174 105.5,97C 99.468,104.676 91.8013,109.843 82.5,112.5C 82.1392,106.407 82.6392,100.407 84,94.5C 85.762,91.732 88.262,90.232 91.5,90C 87.0517,86.6438 86.3851,82.6438 89.5,78C 93.4738,75.6355 96.9738,76.1355 100,79.5C 101.378,83.987 100.212,87.487 96.5,90C 100.484,90.1418 103.15,91.9752 104.5,95.5 Z"/></g>
<g><path style="opacity:0.917" fill="#83a6cb" d="M 31.5,103.5 C 34.0632,103.731 35.7298,105.065 36.5,107.5C 31.1667,112.167 26.1667,117.167 21.5,122.5C 19.4131,121.415 18.0798,119.749 17.5,117.5C 22.5,113.167 27.1667,108.5 31.5,103.5 Z"/></g>
<g><path style="opacity:0.916" fill="#83a6cb" d="M 107.5,103.5 C 111.833,108.5 116.5,113.167 121.5,117.5C 120.92,119.749 119.587,121.415 117.5,122.5C 112.833,117.167 107.833,112.167 102.5,107.5C 103.585,105.413 105.251,104.08 107.5,103.5 Z"/></g>
<g><path style="opacity:1" fill="#9cbee2" d="M 80.5,97.5 C 81.1667,102.5 81.8333,107.5 82.5,112.5C 82.1583,113.338 81.4916,113.672 80.5,113.5C 80.5,108.167 80.5,102.833 80.5,97.5 Z"/></g>
<g><path style="opacity:0.961" fill="#58708a" d="M 17.5,117.5 C 18.0798,119.749 19.4131,121.415 21.5,122.5C 24.9197,135.258 19.9197,140.758 6.5,139C 3.64238,137.306 1.30904,135.139 -0.5,132.5C -0.5,129.833 -0.5,127.167 -0.5,124.5C 3.3327,117.104 9.3327,114.77 17.5,117.5 Z"/></g>
<g><path style="opacity:0.96" fill="#58708a" d="M 139.5,124.5 C 139.5,127.167 139.5,129.833 139.5,132.5C 136.926,136.751 133.259,139.418 128.5,140.5C 127.833,140.5 127.167,140.5 126.5,140.5C 117.432,137.718 114.432,131.718 117.5,122.5C 119.587,121.415 120.92,119.749 121.5,117.5C 129.706,114.781 135.706,117.115 139.5,124.5 Z"/></g>
</svg>
