<?xml version="1.0" encoding="UTF-8"?>
<!DOCTYPE svg PUBLIC "-//W3C//DTD SVG 1.1//EN" "http://www.w3.org/Graphics/SVG/1.1/DTD/svg11.dtd">
<svg xmlns="http://www.w3.org/2000/svg" version="1.1" width="145px" height="145px" style="shape-rendering:geometricPrecision; text-rendering:geometricPrecision; image-rendering:optimizeQuality; fill-rule:evenodd; clip-rule:evenodd" xmlns:xlink="http://www.w3.org/1999/xlink">
<g><path style="opacity:0.959" fill="#ef9402" d="M 63.5,-0.5 C 69.1667,-0.5 74.8333,-0.5 80.5,-0.5C 88.6351,0.985168 96.6351,3.3185 104.5,6.5C 104.3,9.62957 103.634,12.6296 102.5,15.5C 77.3278,15.831 52.3278,15.4977 27.5,14.5C 38.2414,6.36717 50.2414,1.36717 63.5,-0.5 Z"/></g>
<g><path style="opacity:0.974" fill="#463d83" d="M 108.5,-0.5 C 110.5,-0.5 112.5,-0.5 114.5,-0.5C 115.5,0.166667 116.5,0.833333 117.5,1.5C 114.888,2.27748 113.055,3.94415 112,6.5C 110.314,13.5776 108.481,20.5776 106.5,27.5C 103.812,27.1658 101.479,27.8325 99.5,29.5C 99.5,29.1667 99.5,28.8333 99.5,28.5C 99.8333,26.5 100.167,24.5 100.5,22.5C 101.319,20.2278 101.985,17.8945 102.5,15.5C 103.634,12.6296 104.3,9.62957 104.5,6.5C 105.063,3.70516 106.396,1.37183 108.5,-0.5 Z"/></g>
<g><path style="opacity:0.978" fill="#504798" d="M 117.5,1.5 C 120.325,1.08073 122.491,2.08073 124,4.5C 124.388,7.84919 124.221,11.1825 123.5,14.5C 121.345,16.6174 120.345,19.284 120.5,22.5C 119.262,24.2143 118.595,26.2143 118.5,28.5C 117.766,29.7079 117.433,31.0413 117.5,32.5C 114.15,30.2664 110.483,28.5997 106.5,27.5C 108.481,20.5776 110.314,13.5776 112,6.5C 113.055,3.94415 114.888,2.27748 117.5,1.5 Z"/></g>
<g><path style="opacity:0.951" fill="#4e9ff4" d="M 25.5,14.5 C 24.2689,15.7177 23.1022,17.051 22,18.5C 22.2128,23.7663 22.0461,29.0997 21.5,34.5C 18.8333,34.5 16.1667,34.5 13.5,34.5C 13.7373,33.209 13.404,32.209 12.5,31.5C 12.5,31.1667 12.5,30.8333 12.5,30.5C 8.93059,18.4189 13.2639,13.0855 25.5,14.5 Z"/></g>
<g><path style="opacity:1" fill="#74b4f9" d="M 25.5,14.5 C 26.1667,14.5 26.8333,14.5 27.5,14.5C 52.3278,15.4977 77.3278,15.831 102.5,15.5C 101.985,17.8945 101.319,20.2278 100.5,22.5C 83.1635,22.3334 65.8301,22.5001 48.5,23C 46.987,25.4541 47.6537,27.1207 50.5,28C 66.8299,28.4999 83.1633,28.6666 99.5,28.5C 99.5,28.8333 99.5,29.1667 99.5,29.5C 98.4625,30.9303 97.7959,32.597 97.5,34.5C 72.1667,34.5 46.8333,34.5 21.5,34.5C 22.0461,29.0997 22.2128,23.7663 22,18.5C 23.1022,17.051 24.2689,15.7177 25.5,14.5 Z"/></g>
<g><path style="opacity:0.992" fill="#75b3f7" d="M 123.5,14.5 C 126.961,14.1459 129.461,15.4792 131,18.5C 131.499,22.8206 131.666,27.1539 131.5,31.5C 130.596,32.209 130.263,33.209 130.5,34.5C 125.737,34.2256 121.07,34.559 116.5,35.5C 116.557,34.391 116.89,33.391 117.5,32.5C 117.433,31.0413 117.766,29.7079 118.5,28.5C 121.272,28.78 123.772,28.1134 126,26.5C 126.684,25.2161 126.517,24.0495 125.5,23C 123.866,22.5065 122.199,22.3398 120.5,22.5C 120.345,19.284 121.345,16.6174 123.5,14.5 Z"/></g>
<g><path style="opacity:1" fill="#2185e4" d="M 27.5,22.5 C 31.1378,21.7366 32.6378,23.0699 32,26.5C 27.4155,28.4126 25.9155,27.0793 27.5,22.5 Z"/></g>
<g><path style="opacity:1" fill="#f6fafe" d="M 100.5,22.5 C 100.167,24.5 99.8333,26.5 99.5,28.5C 83.1633,28.6666 66.8299,28.4999 50.5,28C 47.6537,27.1207 46.987,25.4541 48.5,23C 65.8301,22.5001 83.1635,22.3334 100.5,22.5 Z"/></g>
<g><path style="opacity:0.998" fill="#f0f5fc" d="M 120.5,22.5 C 122.199,22.3398 123.866,22.5065 125.5,23C 126.517,24.0495 126.684,25.2161 126,26.5C 123.772,28.1134 121.272,28.78 118.5,28.5C 118.595,26.2143 119.262,24.2143 120.5,22.5 Z"/></g>
<g><path style="opacity:1" fill="#665db2" d="M 106.5,27.5 C 110.483,28.5997 114.15,30.2664 117.5,32.5C 116.89,33.391 116.557,34.391 116.5,35.5C 115.833,38.5 115.167,41.5 114.5,44.5C 112.797,48.6168 111.463,52.9501 110.5,57.5C 109.372,62.8844 108.039,68.2178 106.5,73.5C 104.97,78.0926 103.637,82.7593 102.5,87.5C 101.738,89.2624 100.404,90.2624 98.5,90.5C 94.1677,90.7205 90.1677,89.7205 86.5,87.5C 85.8333,87.5 85.5,87.1667 85.5,86.5C 85.271,81.9903 85.9376,77.6569 87.5,73.5C 87.5,72.8333 87.5,72.1667 87.5,71.5C 88.4905,68.2569 89.4905,64.9236 90.5,61.5C 91.2341,60.2921 91.5674,58.9587 91.5,57.5C 92.9667,53.2981 93.9667,48.9648 94.5,44.5C 95.404,43.791 95.7373,42.791 95.5,41.5C 96.1667,39.5 96.8333,37.5 97.5,35.5C 97.5,35.1667 97.5,34.8333 97.5,34.5C 97.7959,32.597 98.4625,30.9303 99.5,29.5C 101.479,27.8325 103.812,27.1658 106.5,27.5 Z"/></g>
<g><path style="opacity:0.956" fill="#ef9400" d="M 12.5,30.5 C 12.5,30.8333 12.5,31.1667 12.5,31.5C 12.5,58.5 12.5,85.5 12.5,112.5C 9.61089,109.744 7.44422,106.411 6,102.5C 3.18769,95.2297 1.02103,87.8963 -0.5,80.5C -0.5,74.8333 -0.5,69.1667 -0.5,63.5C 1.27413,51.5144 5.60746,40.5144 12.5,30.5 Z"/></g>
<g><path style="opacity:0.968" fill="#ef9401" d="M 131.5,31.5 C 139.014,42.3756 143.347,54.3756 144.5,67.5C 144.5,70.5 144.5,73.5 144.5,76.5C 143.345,89.63 139.012,101.63 131.5,112.5C 130.502,86.672 130.169,60.672 130.5,34.5C 130.263,33.209 130.596,32.209 131.5,31.5 Z"/></g>
<g><path style="opacity:0.994" fill="#c5ddf7" d="M 12.5,31.5 C 13.404,32.209 13.7373,33.209 13.5,34.5C 16.1667,34.5 18.8333,34.5 21.5,34.5C 46.8333,34.5 72.1667,34.5 97.5,34.5C 97.5,34.8333 97.5,35.1667 97.5,35.5C 72.1667,35.5 46.8333,35.5 21.5,35.5C 21.8314,64.6715 21.498,93.6715 20.5,122.5C 16.8743,119.905 14.2076,116.572 12.5,112.5C 12.5,85.5 12.5,58.5 12.5,31.5 Z"/></g>
<g><path style="opacity:0.999" fill="#e9f3fd" d="M 97.5,35.5 C 96.8333,37.5 96.1667,39.5 95.5,41.5C 73.8308,41.3334 52.1641,41.5 30.5,42C 24.5333,45.3924 23.0333,50.2258 26,56.5C 27.6374,58.8102 29.804,60.3102 32.5,61C 51.8305,61.5 71.1638,61.6666 90.5,61.5C 89.4905,64.9236 88.4905,68.2569 87.5,71.5C 68.3377,70.3377 49.0044,70.171 29.5,71C 24.4667,74.9 23.3,79.7333 26,85.5C 27.6374,87.8102 29.804,89.3102 32.5,90C 50.4969,90.4999 68.4969,90.6666 86.5,90.5C 85.1353,92.7508 85.4686,94.7508 87.5,96.5C 68.8304,96.3334 50.1637,96.5001 31.5,97C 28.4173,97.786 26.2506,99.6193 25,102.5C 24.5003,110.493 24.3336,118.493 24.5,126.5C 22.8333,125.5 21.5,124.167 20.5,122.5C 21.498,93.6715 21.8314,64.6715 21.5,35.5C 46.8333,35.5 72.1667,35.5 97.5,35.5 Z"/></g>
<g><path style="opacity:0.998" fill="#ebf4fd" d="M 130.5,34.5 C 130.169,60.672 130.502,86.672 131.5,112.5C 129.5,115.5 127.5,118.5 125.5,121.5C 122.747,119.432 119.747,118.098 116.5,117.5C 116.666,113.154 116.499,108.821 116,104.5C 115.535,103.069 114.701,101.903 113.5,101C 106.426,99.9065 99.4259,99.0731 92.5,98.5C 93.5676,97.5655 94.901,97.2322 96.5,97.5C 96.767,95.0347 97.4336,92.7014 98.5,90.5C 100.404,90.2624 101.738,89.2624 102.5,87.5C 105.747,86.7485 109.081,86.2485 112.5,86C 117.341,82.6095 117.675,78.7761 113.5,74.5C 111.253,73.6258 108.92,73.2924 106.5,73.5C 108.039,68.2178 109.372,62.8844 110.5,57.5C 113.292,57.5479 115.125,56.2146 116,53.5C 116.597,50.3188 116.097,47.3188 114.5,44.5C 115.167,41.5 115.833,38.5 116.5,35.5C 121.07,34.559 125.737,34.2256 130.5,34.5 Z"/></g>
<g><path style="opacity:0.978" fill="#f9fcfe" d="M 95.5,41.5 C 95.7373,42.791 95.404,43.791 94.5,44.5C 73.4974,44.3334 52.4974,44.5 31.5,45C 26.6023,48.5216 26.269,52.5216 30.5,57C 50.8306,57.5 71.1639,57.6666 91.5,57.5C 91.5674,58.9587 91.2341,60.2921 90.5,61.5C 71.1638,61.6666 51.8305,61.5 32.5,61C 29.804,60.3102 27.6374,58.8102 26,56.5C 23.0333,50.2258 24.5333,45.3924 30.5,42C 52.1641,41.5 73.8308,41.3334 95.5,41.5 Z"/></g>
<g><path style="opacity:1" fill="#c5e0fc" d="M 94.5,44.5 C 93.9667,48.9648 92.9667,53.2981 91.5,57.5C 71.1639,57.6666 50.8306,57.5 30.5,57C 26.269,52.5216 26.6023,48.5216 31.5,45C 52.4974,44.5 73.4974,44.3334 94.5,44.5 Z"/></g>
<g><path style="opacity:0.995" fill="#c3dbf8" d="M 114.5,44.5 C 116.097,47.3188 116.597,50.3188 116,53.5C 115.125,56.2146 113.292,57.5479 110.5,57.5C 111.463,52.9501 112.797,48.6168 114.5,44.5 Z"/></g>
<g><path style="opacity:1" fill="#a9d1fc" d="M 34.5,49.5 C 42.5,49.5 50.5,49.5 58.5,49.5C 58.5,50.8333 58.5,52.1667 58.5,53.5C 50.4931,53.6664 42.4931,53.4997 34.5,53C 33.3157,51.8545 33.3157,50.6879 34.5,49.5 Z"/></g>
<g><path style="opacity:0.99" fill="#f9fcfe" d="M 87.5,71.5 C 87.5,72.1667 87.5,72.8333 87.5,73.5C 68.4971,73.3334 49.4971,73.5001 30.5,74C 26.5,78 26.5,82 30.5,86C 48.8303,86.4999 67.1636,86.6666 85.5,86.5C 85.5,87.1667 85.8333,87.5 86.5,87.5C 86.5,88.5 86.5,89.5 86.5,90.5C 68.4969,90.6666 50.4969,90.4999 32.5,90C 29.804,89.3102 27.6374,87.8102 26,85.5C 23.3,79.7333 24.4667,74.9 29.5,71C 49.0044,70.171 68.3377,70.3377 87.5,71.5 Z"/></g>
<g><path style="opacity:1" fill="#c0ddfc" d="M 87.5,73.5 C 85.9376,77.6569 85.271,81.9903 85.5,86.5C 67.1636,86.6666 48.8303,86.4999 30.5,86C 26.5,82 26.5,78 30.5,74C 49.4971,73.5001 68.4971,73.3334 87.5,73.5 Z"/></g>
<g><path style="opacity:1" fill="#c6dffb" d="M 106.5,73.5 C 108.92,73.2924 111.253,73.6258 113.5,74.5C 117.675,78.7761 117.341,82.6095 112.5,86C 109.081,86.2485 105.747,86.7485 102.5,87.5C 103.637,82.7593 104.97,78.0926 106.5,73.5 Z"/></g>
<g><path style="opacity:0.989" fill="#867fc2" d="M 86.5,87.5 C 90.1677,89.7205 94.1677,90.7205 98.5,90.5C 97.4336,92.7014 96.767,95.0347 96.5,97.5C 94.901,97.2322 93.5676,97.5655 92.5,98.5C 91.6942,99.9972 91.0276,101.664 90.5,103.5C 89.675,104.386 88.675,104.719 87.5,104.5C 87.5,102.833 87.5,101.167 87.5,99.5C 88.625,98.3478 88.625,97.3478 87.5,96.5C 85.4686,94.7508 85.1353,92.7508 86.5,90.5C 86.5,89.5 86.5,88.5 86.5,87.5 Z"/></g>
<g><path style="opacity:0.945" fill="#fcfdfe" d="M 87.5,96.5 C 88.625,97.3478 88.625,98.3478 87.5,99.5C 69.1636,99.3334 50.8303,99.5001 32.5,100C 30.714,100.785 29.214,101.951 28,103.5C 27.5003,111.827 27.3336,120.16 27.5,128.5C 25.9731,128.573 24.9731,127.906 24.5,126.5C 24.3336,118.493 24.5003,110.493 25,102.5C 26.2506,99.6193 28.4173,97.786 31.5,97C 50.1637,96.5001 68.8304,96.3334 87.5,96.5 Z"/></g>
<g><path style="opacity:0.995" fill="#c2defc" d="M 92.5,98.5 C 99.4259,99.0731 106.426,99.9065 113.5,101C 114.701,101.903 115.535,103.069 116,104.5C 116.499,108.821 116.666,113.154 116.5,117.5C 107.75,117.09 99.0836,117.59 90.5,119C 85.8468,122.788 84.3468,127.622 86,133.5C 87.7424,136.746 90.2424,139.079 93.5,140.5C 88.268,142.26 82.9347,143.594 77.5,144.5C 73.8333,144.5 70.1667,144.5 66.5,144.5C 58.0151,143.429 49.6818,141.262 41.5,138C 36.2479,135.552 31.5812,132.386 27.5,128.5C 27.3336,120.16 27.5003,111.827 28,103.5C 29.214,101.951 30.714,100.785 32.5,100C 50.8303,99.5001 69.1636,99.3334 87.5,99.5C 87.5,101.167 87.5,102.833 87.5,104.5C 88.675,104.719 89.675,104.386 90.5,103.5C 91.0276,101.664 91.6942,99.9972 92.5,98.5 Z"/></g>
<g><path style="opacity:0.979" fill="#6bc049" d="M 116.5,117.5 C 119.747,118.098 122.747,119.432 125.5,121.5C 128.896,128.121 127.896,133.954 122.5,139C 112.939,140.448 103.273,140.948 93.5,140.5C 90.2424,139.079 87.7424,136.746 86,133.5C 84.3468,127.622 85.8468,122.788 90.5,119C 99.0836,117.59 107.75,117.09 116.5,117.5 Z"/></g>
<g><path style="opacity:0.986" fill="#f9fcf9" d="M 112.5,122.5 C 121.289,126.196 121.622,130.53 113.5,135.5C 112.246,133.741 112.579,132.241 114.5,131C 107.144,130.831 99.8108,130.331 92.5,129.5C 92.7093,128.914 93.0426,128.414 93.5,128C 100.5,127.667 107.5,127.333 114.5,127C 112.963,125.89 112.297,124.39 112.5,122.5 Z"/></g>
</svg>
