<?xml version="1.0" encoding="UTF-8"?>
<!DOCTYPE svg PUBLIC "-//W3C//DTD SVG 1.1//EN" "http://www.w3.org/Graphics/SVG/1.1/DTD/svg11.dtd">
<svg xmlns="http://www.w3.org/2000/svg" version="1.1" width="128px" height="128px" style="shape-rendering:geometricPrecision; text-rendering:geometricPrecision; image-rendering:optimizeQuality; fill-rule:evenodd; clip-rule:evenodd" xmlns:xlink="http://www.w3.org/1999/xlink">
<g><path style="opacity:0.991" fill="#4f1330" d="M 29.5,-0.5 C 51.5,-0.5 73.5,-0.5 95.5,-0.5C 96.5676,0.434475 97.901,0.767809 99.5,0.5C 109.917,4.66075 114.083,12.3274 112,23.5C 109.435,31.5688 103.935,35.5688 95.5,35.5C 92.2457,35.7931 89.2457,35.1264 86.5,33.5C 85.5,33.1667 84.8333,32.5 84.5,31.5C 84.313,29.4357 83.813,27.4357 83,25.5C 81.9887,24.6634 80.8221,24.33 79.5,24.5C 79.67,23.1779 79.3366,22.0113 78.5,21C 73.8333,20.3333 69.1667,20.3333 64.5,21C 63.6634,22.0113 63.33,23.1779 63.5,24.5C 62.5166,28.2984 62.1832,32.2984 62.5,36.5C 26.8311,37.4876 5.83114,55.4876 -0.5,90.5C -0.5,68.8333 -0.5,47.1667 -0.5,25.5C 3.87041,10.3178 13.8704,1.6511 29.5,-0.5 Z"/></g>
<g><path style="opacity:0.992" fill="#2c0f1d" d="M 99.5,0.5 C 115.214,3.54698 124.547,12.8803 127.5,28.5C 127.5,30.5 127.5,32.5 127.5,34.5C 125.088,49.1383 116.754,58.6383 102.5,63C 96.1675,63.9165 89.8341,64.7498 83.5,65.5C 83.1744,61.1161 83.5078,56.7828 84.5,52.5C 88.5904,54.6062 92.9238,55.9395 97.5,56.5C 99.374,56.6102 100.874,55.9436 102,54.5C 103.504,50.9613 103.837,47.2946 103,43.5C 102.578,41.5743 101.411,40.5743 99.5,40.5C 98.8888,38.2254 97.5554,36.5588 95.5,35.5C 103.935,35.5688 109.435,31.5688 112,23.5C 114.083,12.3274 109.917,4.66075 99.5,0.5 Z"/></g>
<g><path style="opacity:1" fill="#2cf2ec" d="M 79.5,24.5 C 76.1501,24.335 72.8168,24.5017 69.5,25C 69,25.5 68.5,26 68,26.5C 67.6667,46.5 67.3333,66.5 67,86.5C 63.5162,95.1489 57.3495,97.6489 48.5,94C 47.2899,92.9609 46.2899,91.7942 45.5,90.5C 53.8013,93.1254 59.6347,90.4587 63,82.5C 63.5,63.1695 63.6666,43.8362 63.5,24.5C 63.33,23.1779 63.6634,22.0113 64.5,21C 69.1667,20.3333 73.8333,20.3333 78.5,21C 79.3366,22.0113 79.67,23.1779 79.5,24.5 Z"/></g>
<g><path style="opacity:1" fill="#fdfdfd" d="M 79.5,24.5 C 80.4432,27.4001 82.1099,29.7334 84.5,31.5C 84.8333,32.5 85.5,33.1667 86.5,33.5C 89.1864,37.851 93.1864,40.1844 98.5,40.5C 98.7892,44.1064 98.4558,47.6064 97.5,51C 91.5324,52.0046 85.8657,51.1713 80.5,48.5C 80.44,47.9569 80.1067,47.6236 79.5,47.5C 78.5012,58.4798 78.1679,69.4798 78.5,80.5C 77.1588,97.3404 67.9922,106.34 51,107.5C 45.8414,107.28 41.0081,105.946 36.5,103.5C 34.5273,102.194 32.8606,100.527 31.5,98.5C 24.5975,83.9449 27.2641,71.4449 39.5,61C 44.3608,57.7679 49.6941,56.2679 55.5,56.5C 55.6646,59.5184 55.498,62.5184 55,65.5C 51.6592,67.22 48.1592,68.72 44.5,70C 37.8841,76.5442 37.8841,83.0442 44.5,89.5C 45.1667,89.5 45.5,89.8333 45.5,90.5C 46.2899,91.7942 47.2899,92.9609 48.5,94C 57.3495,97.6489 63.5162,95.1489 67,86.5C 67.3333,66.5 67.6667,46.5 68,26.5C 68.5,26 69,25.5 69.5,25C 72.8168,24.5017 76.1501,24.335 79.5,24.5 Z"/></g>
<g><path style="opacity:0.99" fill="#ef3658" d="M 79.5,24.5 C 80.8221,24.33 81.9887,24.6634 83,25.5C 83.813,27.4357 84.313,29.4357 84.5,31.5C 82.1099,29.7334 80.4432,27.4001 79.5,24.5 Z"/></g>
<g><path style="opacity:0.974" fill="#000000" d="M 127.5,34.5 C 127.5,56.5 127.5,78.5 127.5,100.5C 124.38,114.288 116.047,123.288 102.5,127.5C 98.1667,127.5 93.8333,127.5 89.5,127.5C 79.0781,125.111 71.4115,119.111 66.5,109.5C 75.9044,104.711 81.4044,97.044 83,86.5C 83.4996,79.5079 83.6663,72.5079 83.5,65.5C 89.8341,64.7498 96.1675,63.9165 102.5,63C 116.754,58.6383 125.088,49.1383 127.5,34.5 Z"/></g>
<g><path style="opacity:0.994" fill="#2c0f1e" d="M 63.5,24.5 C 63.6666,43.8362 63.5,63.1695 63,82.5C 59.6347,90.4587 53.8013,93.1254 45.5,90.5C 45.5,89.8333 45.1667,89.5 44.5,89.5C 42.3478,83.4262 43.6811,78.2595 48.5,74C 52.3546,73.2365 55.8546,71.7365 59,69.5C 59.6667,65.8333 59.6667,62.1667 59,58.5C 58.2798,56.9443 57.1132,55.9443 55.5,55.5C 55.4257,53.5891 54.4257,52.4224 52.5,52C 31.9252,53.6138 22.4252,64.7805 24,85.5C 24.9847,90.8147 27.4847,95.148 31.5,98.5C 32.8606,100.527 34.5273,102.194 36.5,103.5C 39.863,107.52 44.1963,110.02 49.5,111C 55.2957,111.791 60.9624,111.291 66.5,109.5C 71.4115,119.111 79.0781,125.111 89.5,127.5C 67.5,127.5 45.5,127.5 23.5,127.5C 11.4244,123.091 3.4244,114.758 -0.5,102.5C -0.5,98.5 -0.5,94.5 -0.5,90.5C 5.83114,55.4876 26.8311,37.4876 62.5,36.5C 62.1832,32.2984 62.5166,28.2984 63.5,24.5 Z"/></g>
<g><path style="opacity:1" fill="#46e5e1" d="M 86.5,33.5 C 89.2457,35.1264 92.2457,35.7931 95.5,35.5C 97.5554,36.5588 98.8888,38.2254 99.5,40.5C 99.1667,40.5 98.8333,40.5 98.5,40.5C 93.1864,40.1844 89.1864,37.851 86.5,33.5 Z"/></g>
<g><path style="opacity:0.996" fill="#f53155" d="M 98.5,40.5 C 98.8333,40.5 99.1667,40.5 99.5,40.5C 101.411,40.5743 102.578,41.5743 103,43.5C 103.837,47.2946 103.504,50.9613 102,54.5C 100.874,55.9436 99.374,56.6102 97.5,56.5C 92.9238,55.9395 88.5904,54.6062 84.5,52.5C 83.5078,56.7828 83.1744,61.1161 83.5,65.5C 83.6663,72.5079 83.4996,79.5079 83,86.5C 81.4044,97.044 75.9044,104.711 66.5,109.5C 60.9624,111.291 55.2957,111.791 49.5,111C 44.1963,110.02 39.863,107.52 36.5,103.5C 41.0081,105.946 45.8414,107.28 51,107.5C 67.9922,106.34 77.1588,97.3404 78.5,80.5C 79.1667,69.8333 79.8333,59.1667 80.5,48.5C 85.8657,51.1713 91.5324,52.0046 97.5,51C 98.4558,47.6064 98.7892,44.1064 98.5,40.5 Z"/></g>
<g><path style="opacity:1" fill="#30ebe6" d="M 55.5,55.5 C 55.5,55.8333 55.5,56.1667 55.5,56.5C 49.6941,56.2679 44.3608,57.7679 39.5,61C 27.2641,71.4449 24.5975,83.9449 31.5,98.5C 27.4847,95.148 24.9847,90.8147 24,85.5C 22.4252,64.7805 31.9252,53.6138 52.5,52C 54.4257,52.4224 55.4257,53.5891 55.5,55.5 Z"/></g>
<g><path style="opacity:0.995" fill="#f83257" d="M 55.5,55.5 C 57.1132,55.9443 58.2798,56.9443 59,58.5C 59.6667,62.1667 59.6667,65.8333 59,69.5C 55.8546,71.7365 52.3546,73.2365 48.5,74C 43.6811,78.2595 42.3478,83.4262 44.5,89.5C 37.8841,83.0442 37.8841,76.5442 44.5,70C 48.1592,68.72 51.6592,67.22 55,65.5C 55.498,62.5184 55.6646,59.5184 55.5,56.5C 55.5,56.1667 55.5,55.8333 55.5,55.5 Z"/></g>
<g><path style="opacity:0.762" fill="#fe95a9" d="M 80.5,48.5 C 79.8333,59.1667 79.1667,69.8333 78.5,80.5C 78.1679,69.4798 78.5012,58.4798 79.5,47.5C 80.1067,47.6236 80.44,47.9569 80.5,48.5 Z"/></g>
</svg>
