<?xml version="1.0" encoding="UTF-8"?>
<!DOCTYPE svg PUBLIC "-//W3C//DTD SVG 1.1//EN" "http://www.w3.org/Graphics/SVG/1.1/DTD/svg11.dtd">
<svg xmlns="http://www.w3.org/2000/svg" version="1.1" width="126px" height="120px" style="shape-rendering:geometricPrecision; text-rendering:geometricPrecision; image-rendering:optimizeQuality; fill-rule:evenodd; clip-rule:evenodd" xmlns:xlink="http://www.w3.org/1999/xlink">
<g><path style="opacity:0.951" fill="#fde270" d="M 8.5,-0.5 C 10.1667,-0.5 11.8333,-0.5 13.5,-0.5C 17.1134,1.11318 19.78,3.77985 21.5,7.5C 21.5,10.1667 21.5,12.8333 21.5,15.5C 19.6398,20.6003 15.9731,22.9336 10.5,22.5C 5.47847,22.8252 1.8118,20.8252 -0.5,16.5C -0.5,13.1667 -0.5,9.83333 -0.5,6.5C 1.64005,3.02275 4.64005,0.689416 8.5,-0.5 Z"/></g>
<g><path style="opacity:0.955" fill="#fdb44b" d="M 111.5,-0.5 C 113.167,-0.5 114.833,-0.5 116.5,-0.5C 120.36,0.689416 123.36,3.02275 125.5,6.5C 125.5,9.83333 125.5,13.1667 125.5,16.5C 120.852,22.6201 114.852,24.1201 107.5,21C 105.536,19.549 104.203,17.7157 103.5,15.5C 103.5,12.8333 103.5,10.1667 103.5,7.5C 105.198,3.80161 107.865,1.13495 111.5,-0.5 Z"/></g>
<g><path style="opacity:0.969" fill="#e7effb" d="M 21.5,7.5 C 27.8682,7.17033 34.2015,7.50367 40.5,8.5C 41.4259,12.0938 41.7592,15.7604 41.5,19.5C 39.5879,22.149 36.9213,23.4824 33.5,23.5C 33.5,20.8333 33.5,18.1667 33.5,15.5C 29.5,15.5 25.5,15.5 21.5,15.5C 21.5,12.8333 21.5,10.1667 21.5,7.5 Z"/></g>
<g><path style="opacity:0.956" fill="#51ca7a" d="M 62.5,6.5 C 62.5,9.83333 62.5,13.1667 62.5,16.5C 50.9653,24.934 38.2987,31.2673 24.5,35.5C 24.1738,67.1819 36.8405,92.1819 62.5,110.5C 62.5,113.5 62.5,116.5 62.5,119.5C 61.8333,119.5 61.1667,119.5 60.5,119.5C 54.1238,114.636 48.1238,109.303 42.5,103.5C 40.712,99.8962 38.0453,97.2295 34.5,95.5C 30.4022,89.6408 27.0689,83.3074 24.5,76.5C 23.7206,73.4553 22.3873,70.7886 20.5,68.5C 19.6766,65.5394 19.01,62.5394 18.5,59.5C 18.8893,56.4467 18.2227,53.78 16.5,51.5C 15.341,44.4741 15.341,37.4741 16.5,30.5C 22.0482,27.893 27.7148,25.5597 33.5,23.5C 36.9213,23.4824 39.5879,22.149 41.5,19.5C 45.4234,18.2049 49.0901,16.3716 52.5,14C 55.7104,11.2833 59.0437,8.78327 62.5,6.5 Z"/></g>
<g><path style="opacity:0.966" fill="#3c9878" d="M 62.5,6.5 C 68.7223,12.0488 75.7223,16.3821 83.5,19.5C 85.6409,22.5743 88.3076,23.9076 91.5,23.5C 97.4636,25.4852 103.13,27.9852 108.5,31C 109.531,37.8117 109.531,44.6451 108.5,51.5C 106.777,53.78 106.111,56.4467 106.5,59.5C 105.833,62.5 105.167,65.5 104.5,68.5C 102.229,70.6123 100.896,73.279 100.5,76.5C 97.6027,83.2967 93.936,89.63 89.5,95.5C 86.4503,97.5491 84.117,100.216 82.5,103.5C 76.8762,109.303 70.8762,114.636 64.5,119.5C 63.8333,119.5 63.1667,119.5 62.5,119.5C 62.5,116.5 62.5,113.5 62.5,110.5C 87.3491,91.8061 100.349,66.8061 101.5,35.5C 87.2795,31.5558 74.2795,25.2225 62.5,16.5C 62.5,13.1667 62.5,9.83333 62.5,6.5 Z"/></g>
<g><path style="opacity:0.944" fill="#ccdafa" d="M 103.5,7.5 C 103.5,10.1667 103.5,12.8333 103.5,15.5C 99.5,15.5 95.5,15.5 91.5,15.5C 91.5,18.1667 91.5,20.8333 91.5,23.5C 88.3076,23.9076 85.6409,22.5743 83.5,19.5C 83.2065,15.5633 83.5399,11.73 84.5,8C 90.8246,7.50046 97.1579,7.33379 103.5,7.5 Z"/></g>
<g><path style="opacity:1" fill="#ffeeac" d="M 8.5,7.5 C 13.378,7.53488 14.7113,9.86821 12.5,14.5C 10.694,15.8587 9.19399,15.5254 8,13.5C 7.32239,11.4024 7.48905,9.40239 8.5,7.5 Z"/></g>
<g><path style="opacity:1" fill="#ffde6c" d="M 112.5,7.5 C 115.524,7.17498 117.191,8.50832 117.5,11.5C 115.167,16.8333 112.833,16.8333 110.5,11.5C 110.752,9.92714 111.418,8.5938 112.5,7.5 Z"/></g>
<g><path style="opacity:1" fill="#51ca7a" d="M 62.5,16.5 C 74.2795,25.2225 87.2795,31.5558 101.5,35.5C 100.349,66.8061 87.3491,91.8061 62.5,110.5C 62.5,101.833 62.5,93.1667 62.5,84.5C 67.8437,84.666 73.1771,84.4994 78.5,84C 80.3333,83.5 81.5,82.3333 82,80.5C 82.6667,71.5 82.6667,62.5 82,53.5C 80.9609,52.2899 79.7942,51.2899 78.5,50.5C 78.4264,39.7625 73.0931,33.7625 62.5,32.5C 61.8333,32.5 61.1667,32.5 60.5,32.5C 62.3699,27.4682 63.0366,22.1348 62.5,16.5 Z"/></g>
<g><path style="opacity:1" fill="#93e471" d="M 62.5,16.5 C 63.0366,22.1348 62.3699,27.4682 60.5,32.5C 51.0301,34.6484 46.3635,40.6484 46.5,50.5C 44.8868,50.9443 43.7202,51.9443 43,53.5C 42.3333,62.8333 42.3333,72.1667 43,81.5C 43.8333,82.3333 44.6667,83.1667 45.5,84C 51.1569,84.4994 56.8236,84.6661 62.5,84.5C 62.5,93.1667 62.5,101.833 62.5,110.5C 36.8405,92.1819 24.1738,67.1819 24.5,35.5C 38.2987,31.2673 50.9653,24.934 62.5,16.5 Z"/></g>
<g><path style="opacity:0.996" fill="#444e7f" d="M 60.5,32.5 C 61.1667,32.5 61.8333,32.5 62.5,32.5C 62.5,34.8333 62.5,37.1667 62.5,39.5C 56.2244,40.4454 53.2244,44.1121 53.5,50.5C 51.1667,50.5 48.8333,50.5 46.5,50.5C 46.3635,40.6484 51.0301,34.6484 60.5,32.5 Z"/></g>
<g><path style="opacity:0.995" fill="#293566" d="M 62.5,32.5 C 73.0931,33.7625 78.4264,39.7625 78.5,50.5C 77.8333,50.5 77.1667,50.5 76.5,50.5C 75.0813,49.5489 73.4147,49.2155 71.5,49.5C 71.7373,48.209 71.404,47.209 70.5,46.5C 69.743,42.0807 67.0764,39.7474 62.5,39.5C 62.5,37.1667 62.5,34.8333 62.5,32.5 Z"/></g>
<g><path style="opacity:0.999" fill="#50c87a" d="M 62.5,39.5 C 67.0764,39.7474 69.743,42.0807 70.5,46.5C 70.5,47.5 70.5,48.5 70.5,49.5C 67.8333,49.5 65.1667,49.5 62.5,49.5C 62.5,46.1667 62.5,42.8333 62.5,39.5 Z"/></g>
<g><path style="opacity:0.994" fill="#94de70" d="M 62.5,39.5 C 62.5,42.8333 62.5,46.1667 62.5,49.5C 65.1667,49.5 67.8333,49.5 70.5,49.5C 70.5,49.8333 70.5,50.1667 70.5,50.5C 67.8333,50.5 65.1667,50.5 62.5,50.5C 59.5,50.5 56.5,50.5 53.5,50.5C 53.2244,44.1121 56.2244,40.4454 62.5,39.5 Z"/></g>
<g><path style="opacity:0.757" fill="#7c6b5d" d="M 70.5,46.5 C 71.404,47.209 71.7373,48.209 71.5,49.5C 73.4147,49.2155 75.0813,49.5489 76.5,50.5C 74.5,50.5 72.5,50.5 70.5,50.5C 70.5,50.1667 70.5,49.8333 70.5,49.5C 70.5,48.5 70.5,47.5 70.5,46.5 Z"/></g>
<g><path style="opacity:0.999" fill="#fee26f" d="M 46.5,50.5 C 48.8333,50.5 51.1667,50.5 53.5,50.5C 56.5,50.5 59.5,50.5 62.5,50.5C 62.5,54.1667 62.5,57.8333 62.5,61.5C 59.4752,62.0332 58.1419,63.8665 58.5,67C 58.1419,70.1335 59.4752,71.9668 62.5,72.5C 62.5,76.5 62.5,80.5 62.5,84.5C 56.8236,84.6661 51.1569,84.4994 45.5,84C 44.6667,83.1667 43.8333,82.3333 43,81.5C 42.3333,72.1667 42.3333,62.8333 43,53.5C 43.7202,51.9443 44.8868,50.9443 46.5,50.5 Z"/></g>
<g><path style="opacity:1" fill="#feb44c" d="M 62.5,50.5 C 65.1667,50.5 67.8333,50.5 70.5,50.5C 72.5,50.5 74.5,50.5 76.5,50.5C 77.1667,50.5 77.8333,50.5 78.5,50.5C 79.7942,51.2899 80.9609,52.2899 82,53.5C 82.6667,62.5 82.6667,71.5 82,80.5C 81.5,82.3333 80.3333,83.5 78.5,84C 73.1771,84.4994 67.8437,84.666 62.5,84.5C 62.5,80.5 62.5,76.5 62.5,72.5C 65.2856,72.0436 66.619,70.3769 66.5,67.5C 66.62,64.3775 65.2867,62.3775 62.5,61.5C 62.5,57.8333 62.5,54.1667 62.5,50.5 Z"/></g>
<g><path style="opacity:0.974" fill="#e5edf8" d="M 16.5,51.5 C 18.2227,53.78 18.8893,56.4467 18.5,59.5C 12.077,59.7912 5.74365,59.4578 -0.5,58.5C -0.5,56.5 -0.5,54.5 -0.5,52.5C 5.04858,50.4324 10.7152,50.0991 16.5,51.5 Z"/></g>
<g><path style="opacity:0.96" fill="#cad8f9" d="M 108.5,51.5 C 114.259,51.2143 119.925,51.5476 125.5,52.5C 125.5,54.5 125.5,56.5 125.5,58.5C 119.225,59.418 112.892,59.7513 106.5,59.5C 106.111,56.4467 106.777,53.78 108.5,51.5 Z"/></g>
<g><path style="opacity:0.997" fill="#3e416d" d="M 62.5,61.5 C 65.2867,62.3775 66.62,64.3775 66.5,67.5C 66.619,70.3769 65.2856,72.0436 62.5,72.5C 59.4752,71.9668 58.1419,70.1335 58.5,67C 58.1419,63.8665 59.4752,62.0332 62.5,61.5 Z"/></g>
<g><path style="opacity:0.95" fill="#e7effb" d="M 20.5,68.5 C 22.3873,70.7886 23.7206,73.4553 24.5,76.5C 18.9066,76.8066 13.4066,76.4732 8,75.5C 7.10407,72.975 7.60407,70.8083 9.5,69C 13.1516,68.5014 16.8183,68.3347 20.5,68.5 Z"/></g>
<g><path style="opacity:0.956" fill="#cbd9fa" d="M 104.5,68.5 C 108.182,68.3347 111.848,68.5014 115.5,69C 117.325,70.4659 117.825,72.2992 117,74.5C 111.803,76.4202 106.303,77.0868 100.5,76.5C 100.896,73.279 102.229,70.6123 104.5,68.5 Z"/></g>
<g><path style="opacity:0.952" fill="#fde16f" d="M 21.5,95.5 C 21.5,98.1667 21.5,100.833 21.5,103.5C 14.6213,113.719 7.28792,114.052 -0.5,104.5C -0.5,101.167 -0.5,97.8333 -0.5,94.5C 4.16308,87.7808 10.1631,86.2808 17.5,90C 19.4641,91.451 20.7974,93.2843 21.5,95.5 Z"/></g>
<g><path style="opacity:0.962" fill="#fab24a" d="M 125.5,94.5 C 125.5,97.8333 125.5,101.167 125.5,104.5C 120.78,111.013 114.78,112.513 107.5,109C 105.536,107.549 104.203,105.716 103.5,103.5C 103.5,100.833 103.5,98.1667 103.5,95.5C 107.583,87.8079 113.583,85.9745 121.5,90C 123.07,91.3968 124.404,92.8968 125.5,94.5 Z"/></g>
<g><path style="opacity:0.921" fill="#e7effb" d="M 21.5,95.5 C 25.8333,95.5 30.1667,95.5 34.5,95.5C 38.0453,97.2295 40.712,99.8962 42.5,103.5C 35.5,103.5 28.5,103.5 21.5,103.5C 21.5,100.833 21.5,98.1667 21.5,95.5 Z"/></g>
<g><path style="opacity:0.978" fill="#ccdafb" d="M 89.5,95.5 C 94.1667,95.5 98.8333,95.5 103.5,95.5C 103.5,98.1667 103.5,100.833 103.5,103.5C 96.5,103.5 89.5,103.5 82.5,103.5C 84.117,100.216 86.4503,97.5491 89.5,95.5 Z"/></g>
<g><path style="opacity:1" fill="#ffeda7" d="M 9.5,95.5 C 12.3523,95.3524 14.019,96.6857 14.5,99.5C 13.7917,103.177 11.7917,104.177 8.5,102.5C 5.68566,99.6333 6.019,97.3 9.5,95.5 Z"/></g>
<g><path style="opacity:1" fill="#ffdf6c" d="M 112.5,95.5 C 115.352,95.3524 117.019,96.6857 117.5,99.5C 115.167,104.833 112.833,104.833 110.5,99.5C 110.752,97.9271 111.418,96.5938 112.5,95.5 Z"/></g>
</svg>
