<?xml version="1.0" encoding="UTF-8"?>
<!DOCTYPE svg PUBLIC "-//W3C//DTD SVG 1.1//EN" "http://www.w3.org/Graphics/SVG/1.1/DTD/svg11.dtd">
<svg xmlns="http://www.w3.org/2000/svg" version="1.1" width="100px" height="117px" style="shape-rendering:geometricPrecision; text-rendering:geometricPrecision; image-rendering:optimizeQuality; fill-rule:evenodd; clip-rule:evenodd" xmlns:xlink="http://www.w3.org/1999/xlink">
<g><path style="opacity:0.928" fill="#6b973a" d="M 28.5,5.5 C 26.2341,10.7965 22.2341,12.6298 16.5,11C 15.244,10.5831 14.5774,9.74975 14.5,8.5C 17.2694,-1.02484 21.936,-2.02484 28.5,5.5 Z"/></g>
<g><path style="opacity:0.898" fill="#efba96" d="M 58.5,-0.5 C 60.1667,-0.5 61.8333,-0.5 63.5,-0.5C 70.7031,2.68475 77.7031,6.35142 84.5,10.5C 84.1667,11.5 83.5,12.1667 82.5,12.5C 77.1095,10.307 71.7762,7.80698 66.5,5C 56.5119,2.66351 48.8453,5.83018 43.5,14.5C 41.9731,14.573 40.9731,13.9063 40.5,12.5C 44.9086,5.7291 50.9086,1.39577 58.5,-0.5 Z"/></g>
<g><path style="opacity:0.993" fill="#f4caac" d="M 82.5,12.5 C 82.2172,13.2891 81.7172,13.9558 81,14.5C 80.264,22.5353 80.4307,30.5353 81.5,38.5C 74.3342,45.4191 66.6676,46.0857 58.5,40.5C 53.1284,36.4884 47.795,32.4884 42.5,28.5C 42.366,26.7085 42.6993,25.0418 43.5,23.5C 44.8021,21.1782 46.8021,19.8449 49.5,19.5C 54.2101,21.9093 58.8768,24.2427 63.5,26.5C 63.6495,25.448 63.4828,24.448 63,23.5C 58.8099,19.9715 54.1433,17.3049 49,15.5C 47.9302,15.528 47.0968,15.8614 46.5,16.5C 45.2905,16.0679 44.2905,15.4013 43.5,14.5C 48.8453,5.83018 56.5119,2.66351 66.5,5C 71.7762,7.80698 77.1095,10.307 82.5,12.5 Z"/></g>
<g><path style="opacity:0.993" fill="#83b649" d="M 28.5,5.5 C 32.4828,7.80581 36.4828,10.1391 40.5,12.5C 40.9731,13.9063 41.9731,14.573 43.5,14.5C 44.2905,15.4013 45.2905,16.0679 46.5,16.5C 47.3065,17.7281 48.3065,18.7281 49.5,19.5C 46.8021,19.8449 44.8021,21.1782 43.5,23.5C 41.0229,21.5508 38.1895,20.2175 35,19.5C 32.6013,19.6132 30.7679,20.6132 29.5,22.5C 23.5,19.1667 17.5,15.8333 11.5,12.5C 12.5116,11.1283 13.5116,9.79502 14.5,8.5C 14.5774,9.74975 15.244,10.5831 16.5,11C 22.2341,12.6298 26.2341,10.7965 28.5,5.5 Z"/></g>
<g><path style="opacity:0.959" fill="#3e566e" d="M 84.5,10.5 C 89.5947,10.2213 94.5947,10.5546 99.5,11.5C 99.5,20.8333 99.5,30.1667 99.5,39.5C 94.7983,41.5232 89.7983,42.0232 84.5,41C 83.0577,40.6232 82.0577,39.7899 81.5,38.5C 80.4307,30.5353 80.264,22.5353 81,14.5C 81.7172,13.9558 82.2172,13.2891 82.5,12.5C 83.5,12.1667 84.1667,11.5 84.5,10.5 Z"/></g>
<g><path style="opacity:0.967" fill="#99c867" d="M 11.5,12.5 C 17.5,15.8333 23.5,19.1667 29.5,22.5C 26.9324,30.7659 29.9324,34.2659 38.5,33C 40.0414,31.6288 41.3747,30.1288 42.5,28.5C 47.795,32.4884 53.1284,36.4884 58.5,40.5C 58.4431,41.609 58.1098,42.609 57.5,43.5C 51.1061,38.8989 45.7727,39.8989 41.5,46.5C 31.986,41.5804 22.986,35.9137 14.5,29.5C 16.463,26.482 16.963,23.1487 16,19.5C 14.9455,16.9441 13.1122,15.2775 10.5,14.5C 10.8333,13.8333 11.1667,13.1667 11.5,12.5 Z"/></g>
<g><path style="opacity:0.929" fill="#6e993c" d="M 10.5,14.5 C 13.1122,15.2775 14.9455,16.9441 16,19.5C 16.963,23.1487 16.463,26.482 14.5,29.5C 10.9687,28.3029 7.96872,26.3029 5.5,23.5C 6.92523,20.3116 8.59189,17.3116 10.5,14.5 Z"/></g>
<g><path style="opacity:0.993" fill="#e7a476" d="M 49.5,19.5 C 48.3065,18.7281 47.3065,17.7281 46.5,16.5C 47.0968,15.8614 47.9302,15.528 49,15.5C 54.1433,17.3049 58.8099,19.9715 63,23.5C 63.4828,24.448 63.6495,25.448 63.5,26.5C 58.8768,24.2427 54.2101,21.9093 49.5,19.5 Z"/></g>
<g><path style="opacity:0.992" fill="#6f9b3d" d="M 43.5,23.5 C 42.6993,25.0418 42.366,26.7085 42.5,28.5C 41.3747,30.1288 40.0414,31.6288 38.5,33C 29.9324,34.2659 26.9324,30.7659 29.5,22.5C 30.7679,20.6132 32.6013,19.6132 35,19.5C 38.1895,20.2175 41.0229,21.5508 43.5,23.5 Z"/></g>
<g><path style="opacity:0.936" fill="#6e9a3d" d="M 57.5,43.5 C 55.5419,46.7915 53.2085,49.7915 50.5,52.5C 46.9173,51.2202 43.9173,49.2202 41.5,46.5C 45.7727,39.8989 51.1061,38.8989 57.5,43.5 Z"/></g>
<g><path style="opacity:0.988" fill="#feca65" d="M 45.5,55.5 C 43.4548,60.2145 42.9548,65.2145 44,70.5C 45.7102,72.8973 47.5436,72.8973 49.5,70.5C 51.4633,77.4238 52.1299,84.7572 51.5,92.5C 50.7095,93.4013 49.7095,94.0679 48.5,94.5C 49.2309,90.3966 48.2309,86.8966 45.5,84C 40.2496,82.826 34.9162,82.1593 29.5,82C 28.61,79.6087 26.9433,78.1087 24.5,77.5C 24.3338,71.1579 24.5005,64.8246 25,58.5C 26.1711,57.1068 27.6711,56.2735 29.5,56C 34.8229,55.5006 40.1563,55.334 45.5,55.5 Z"/></g>
<g><path style="opacity:1" fill="#f78549" d="M 45.5,55.5 C 49.1667,55.5 52.8333,55.5 56.5,55.5C 56.5,55.8333 56.5,56.1667 56.5,56.5C 54.8333,56.5 53.1667,56.5 51.5,56.5C 51.5,60.8333 51.5,65.1667 51.5,69.5C 50.5084,69.3284 49.8417,69.6618 49.5,70.5C 47.5436,72.8973 45.7102,72.8973 44,70.5C 42.9548,65.2145 43.4548,60.2145 45.5,55.5 Z"/></g>
<g><path style="opacity:0.994" fill="#f66a25" d="M 56.5,56.5 C 57.1174,56.6107 57.6174,56.944 58,57.5C 58.6667,62.1667 58.6667,66.8333 58,71.5C 57.586,71.9574 57.086,72.2907 56.5,72.5C 54.6396,71.7401 52.973,70.7401 51.5,69.5C 51.5,65.1667 51.5,60.8333 51.5,56.5C 53.1667,56.5 54.8333,56.5 56.5,56.5 Z"/></g>
<g><path style="opacity:0.993" fill="#feb851" d="M 56.5,56.5 C 56.5,56.1667 56.5,55.8333 56.5,55.5C 61.5111,55.3341 66.5111,55.5007 71.5,56C 73.676,56.1629 75.5093,56.9963 77,58.5C 78.4286,65.7194 78.9286,73.0528 78.5,80.5C 69.8333,84.5 61.1667,88.5 52.5,92.5C 52.1667,92.5 51.8333,92.5 51.5,92.5C 52.1299,84.7572 51.4633,77.4238 49.5,70.5C 49.8417,69.6618 50.5084,69.3284 51.5,69.5C 52.973,70.7401 54.6396,71.7401 56.5,72.5C 57.086,72.2907 57.586,71.9574 58,71.5C 58.6667,66.8333 58.6667,62.1667 58,57.5C 57.6174,56.944 57.1174,56.6107 56.5,56.5 Z"/></g>
<g><path style="opacity:0.944" fill="#3d566e" d="M 17.5,77.5 C 17.5,86.1667 17.5,94.8333 17.5,103.5C 17.5,104.833 17.5,106.167 17.5,107.5C 17.4894,109.017 16.8228,110.184 15.5,111C 10.0833,111.781 4.74993,111.615 -0.5,110.5C -0.5,98.5 -0.5,86.5 -0.5,74.5C 4.41575,73.3889 9.41575,73.2223 14.5,74C 16.4257,74.4224 17.4257,75.5891 17.5,77.5 Z"/></g>
<g><path style="opacity:0.996" fill="#f5caac" d="M 17.5,77.5 C 19.8333,77.5 22.1667,77.5 24.5,77.5C 26.9433,78.1087 28.61,79.6087 29.5,82C 34.9162,82.1593 40.2496,82.826 45.5,84C 48.2309,86.8966 49.2309,90.3966 48.5,94.5C 44.4731,96.3584 40.1398,97.0251 35.5,96.5C 35.5,97.8333 35.5,99.1667 35.5,100.5C 41.0606,101.198 46.2273,100.198 51,97.5C 52.0086,95.9751 52.5086,94.3084 52.5,92.5C 61.1667,88.5 69.8333,84.5 78.5,80.5C 81.0632,80.7313 82.7298,82.0646 83.5,84.5C 73.6275,93.8725 63.2942,102.706 52.5,111C 47.89,112.29 43.2233,112.624 38.5,112C 31.4681,109.147 24.4681,106.314 17.5,103.5C 17.5,94.8333 17.5,86.1667 17.5,77.5 Z"/></g>
<g><path style="opacity:0.896" fill="#eeba96" d="M 83.5,84.5 C 83.8571,88.664 82.1905,91.8307 78.5,94C 71.8333,100 65.1667,106 58.5,112C 55.676,114.079 52.676,115.579 49.5,116.5C 45.5,116.5 41.5,116.5 37.5,116.5C 30.9107,113.518 24.244,110.518 17.5,107.5C 17.5,106.167 17.5,104.833 17.5,103.5C 24.4681,106.314 31.4681,109.147 38.5,112C 43.2233,112.624 47.89,112.29 52.5,111C 63.2942,102.706 73.6275,93.8725 83.5,84.5 Z"/></g>
<g><path style="opacity:0.996" fill="#e8a476" d="M 51.5,92.5 C 51.8333,92.5 52.1667,92.5 52.5,92.5C 52.5086,94.3084 52.0086,95.9751 51,97.5C 46.2273,100.198 41.0606,101.198 35.5,100.5C 35.5,99.1667 35.5,97.8333 35.5,96.5C 40.1398,97.0251 44.4731,96.3584 48.5,94.5C 49.7095,94.0679 50.7095,93.4013 51.5,92.5 Z"/></g>
</svg>
