<?xml version="1.0" encoding="UTF-8"?>
<!DOCTYPE svg PUBLIC "-//W3C//DTD SVG 1.1//EN" "http://www.w3.org/Graphics/SVG/1.1/DTD/svg11.dtd">
<svg xmlns="http://www.w3.org/2000/svg" version="1.1" width="116px" height="128px" style="shape-rendering:geometricPrecision; text-rendering:geometricPrecision; image-rendering:optimizeQuality; fill-rule:evenodd; clip-rule:evenodd" xmlns:xlink="http://www.w3.org/1999/xlink">
<g><path style="opacity:0.859" fill="#68302a" d="M 30.5,-0.5 C 48.5,-0.5 66.5,-0.5 84.5,-0.5C 87.8151,0.651961 89.9817,2.98529 91,6.5C 91.6667,15.5 91.6667,24.5 91,33.5C 90.1667,37 88,39.1667 84.5,40C 78.8333,40.3333 73.1667,40.6667 67.5,41C 64.2916,44.3771 60.9582,47.5437 57.5,50.5C 53.3908,47.8941 49.7241,44.7274 46.5,41C 40.8333,40.6667 35.1667,40.3333 29.5,40C 27.714,39.2155 26.214,38.0488 25,36.5C 23.3828,26.2659 23.0495,15.9325 24,5.5C 25.4936,2.68648 27.6603,0.686482 30.5,-0.5 Z"/></g>
<g><path style="opacity:1" fill="#edebeb" d="M 31.5,2.5 C 49.5937,2.02687 67.5937,2.52687 85.5,4C 86.7014,4.90252 87.5348,6.06919 88,7.5C 88.9133,16.5764 88.58,25.5764 87,34.5C 85.8289,35.8932 84.3289,36.7265 82.5,37C 76.8333,37.3333 71.1667,37.6667 65.5,38C 62.9518,40.8851 60.1185,43.3851 57,45.5C 53.8815,43.3851 51.0482,40.8851 48.5,38C 42.5,37.6667 36.5,37.3333 30.5,37C 28.9512,35.786 27.7845,34.286 27,32.5C 26.3333,23.8333 26.3333,15.1667 27,6.5C 28.3968,4.92975 29.8968,3.59641 31.5,2.5 Z"/></g>
<g><path style="opacity:1" fill="#cfcdcd" d="M 55.5,9.5 C 64.1667,9.5 72.8333,9.5 81.5,9.5C 81.5,10.5 81.5,11.5 81.5,12.5C 73.16,12.6664 64.8267,12.4997 56.5,12C 55.7476,11.3292 55.4142,10.4959 55.5,9.5 Z"/></g>
<g><path style="opacity:1" fill="#cfcdcd" d="M 33.5,15.5 C 42.5,15.5 51.5,15.5 60.5,15.5C 60.5,16.5 60.5,17.5 60.5,18.5C 51.5,18.5 42.5,18.5 33.5,18.5C 33.5,17.5 33.5,16.5 33.5,15.5 Z"/></g>
<g><path style="opacity:1" fill="#cccaca" d="M 48.5,22.5 C 59.8529,22.1678 71.1862,22.5012 82.5,23.5C 76.8333,23.8333 71.1667,24.1667 65.5,24.5C 59.4585,24.4955 53.7918,23.8288 48.5,22.5 Z"/></g>
<g><path style="opacity:1" fill="#d0cece" d="M 32.5,28.5 C 39.8333,28.5 47.1667,28.5 54.5,28.5C 54.5,29.5 54.5,30.5 54.5,31.5C 47.4921,31.6663 40.4921,31.4996 33.5,31C 32.7476,30.3292 32.4142,29.4959 32.5,28.5 Z"/></g>
<g><path style="opacity:1" fill="#d0cece" d="M 60.5,28.5 C 67.5,28.5 74.5,28.5 81.5,28.5C 81.5,29.5 81.5,30.5 81.5,31.5C 74.5,31.5 67.5,31.5 60.5,31.5C 60.5,30.5 60.5,29.5 60.5,28.5 Z"/></g>
<g><path style="opacity:0.847" fill="#672e28" d="M 115.5,61.5 C 115.5,62.8333 115.5,64.1667 115.5,65.5C 112.471,73.4065 109.138,81.2398 105.5,89C 101.406,89.7673 97.4065,89.434 93.5,88C 88.5463,84.7147 83.8797,81.048 79.5,77C 76.9373,75.9207 74.2706,75.4207 71.5,75.5C 67.9044,86.6177 63.9044,97.6177 59.5,108.5C 62.3103,114.597 64.3103,120.93 65.5,127.5C 64.5,127.5 63.5,127.5 62.5,127.5C 60.7136,123.645 59.2136,119.645 58,115.5C 55.8773,119.368 54.044,123.368 52.5,127.5C 51.5,127.5 50.5,127.5 49.5,127.5C 50.5909,121.06 52.5909,114.894 55.5,109C 51.2039,98.237 47.0373,87.4037 43,76.5C 39.7066,75.4686 36.5399,75.9686 33.5,78C 29.0616,82.4392 24.0616,86.1059 18.5,89C 15.1177,89.8236 11.7844,89.657 8.5,88.5C 5.8647,80.9056 2.8647,73.5723 -0.5,66.5C -0.5,64.8333 -0.5,63.1667 -0.5,61.5C 2.1873,61.6641 4.85397,61.4974 7.5,61C 13.8333,56.6667 20.1667,52.3333 26.5,48C 29.8936,47.2483 33.227,47.4149 36.5,48.5C 43.3107,66.2701 50.3107,83.9368 57.5,101.5C 64.404,83.6199 71.404,65.7866 78.5,48C 81.8333,47.3333 85.1667,47.3333 88.5,48C 94.1911,51.5134 99.5245,55.5134 104.5,60C 108.06,61.2367 111.727,61.7367 115.5,61.5 Z"/></g>
<g><path style="opacity:1" fill="#f8c80c" d="M 27.5,50.5 C 29.924,50.1924 32.2573,50.5258 34.5,51.5C 37.4436,58.3309 39.777,65.3309 41.5,72.5C 39.4727,72.3379 37.4727,72.5045 35.5,73C 29.7794,77.7206 23.7794,82.054 17.5,86C 15.2305,86.7581 13.0639,86.5914 11,85.5C 8.22208,78.943 5.72208,72.2763 3.5,65.5C 7.02289,64.8582 10.3562,63.6916 13.5,62C 18.0651,57.9245 22.7317,54.0912 27.5,50.5 Z"/></g>
<g><path style="opacity:1" fill="#f54966" d="M 80.5,50.5 C 82.5273,50.3379 84.5273,50.5045 86.5,51C 92.399,54.2306 97.7324,58.2306 102.5,63C 105.444,63.9704 108.444,64.8038 111.5,65.5C 108.833,72.1667 106.167,78.8333 103.5,85.5C 101.579,86.641 99.5787,86.8077 97.5,86C 91.9672,83.0662 86.9672,79.3996 82.5,75C 79.2683,73.5339 75.935,72.3673 72.5,71.5C 75.4576,64.5892 78.1243,57.5892 80.5,50.5 Z"/></g>
<g><path style="opacity:1" fill="#f4f1e6" d="M 19.5,63.5 C 21.0936,63.9195 22.5936,64.5862 24,65.5C 24.772,65.3552 25.4387,65.0219 26,64.5C 26.0454,67.334 26.8787,69.834 28.5,72C 25.3873,71.9473 22.8873,73.114 21,75.5C 20.4592,72.791 18.9592,70.791 16.5,69.5C 18.9783,68.2776 19.9783,66.2776 19.5,63.5 Z"/></g>
<g><path style="opacity:1" fill="#f3eaeb" d="M 94.5,62.5 C 95.3019,63.9516 95.8019,65.6183 96,67.5C 96.9246,68.0465 97.7579,68.7132 98.5,69.5C 96.1837,70.4963 94.517,72.1629 93.5,74.5C 91.363,73.1319 89.0297,72.1319 86.5,71.5C 88.533,69.5485 88.8663,67.3818 87.5,65C 90.5465,66.2618 92.8798,65.4285 94.5,62.5 Z"/></g>
<g><path style="opacity:0.908" fill="#672f2b" d="M 43.5,127.5 C 32.8333,127.5 22.1667,127.5 11.5,127.5C 10.4955,126.317 9.66218,124.984 9,123.5C 8.33333,116.833 8.33333,110.167 9,103.5C 9.5,101.667 10.6667,100.5 12.5,100C 14.8098,99.5034 17.1432,99.3367 19.5,99.5C 19.4079,93.7806 22.2412,91.4472 28,92.5C 33.5912,91.5924 36.0912,93.9257 35.5,99.5C 39.2568,99.0708 42.7568,99.7375 46,101.5C 47.557,108.753 47.8903,116.086 47,123.5C 46.3103,125.35 45.1436,126.684 43.5,127.5 Z"/></g>
<g><path style="opacity:0.891" fill="#683129" d="M 103.5,127.5 C 92.5,127.5 81.5,127.5 70.5,127.5C 69.4955,126.317 68.6622,124.984 68,123.5C 67.3333,116.833 67.3333,110.167 68,103.5C 68.5,101.667 69.6667,100.5 71.5,100C 74.146,99.5026 76.8127,99.3359 79.5,99.5C 78.9088,93.9257 81.4088,91.5924 87,92.5C 92.7053,91.4284 95.5387,93.7617 95.5,99.5C 97.8568,99.3367 100.19,99.5034 102.5,100C 104.333,100.5 105.5,101.667 106,103.5C 106.667,110.167 106.667,116.833 106,123.5C 105.338,124.984 104.504,126.317 103.5,127.5 Z"/></g>
<g><path style="opacity:1" fill="#6fa3ea" d="M 13.5,102.5 C 23.1724,102.334 32.8391,102.5 42.5,103C 46.1006,109.091 44.2673,111.924 37,111.5C 33.8439,110.742 30.8439,109.742 28,108.5C 25.132,110.046 21.9653,111.046 18.5,111.5C 11.4304,111.468 9.76374,108.468 13.5,102.5 Z"/></g>
<g><path style="opacity:1" fill="#babb46" d="M 72.5,102.5 C 82.1724,102.334 91.8391,102.5 101.5,103C 105.154,108.823 103.487,111.657 96.5,111.5C 93.0347,111.046 89.868,110.046 87,108.5C 84.132,110.046 80.9653,111.046 77.5,111.5C 70.4304,111.468 68.7637,108.468 72.5,102.5 Z"/></g>
<g><path style="opacity:1" fill="#f1f0f0" d="M 85.5,111.5 C 86.5,111.5 87.5,111.5 88.5,111.5C 88.5,112.833 88.5,114.167 88.5,115.5C 87.5,115.5 86.5,115.5 85.5,115.5C 85.5,114.167 85.5,112.833 85.5,111.5 Z"/></g>
<g><path style="opacity:1" fill="#ece9e8" d="M 26.5,111.5 C 27.5,111.5 28.5,111.5 29.5,111.5C 29.5,112.833 29.5,114.167 29.5,115.5C 28.5,115.5 27.5,115.5 26.5,115.5C 26.5,114.167 26.5,112.833 26.5,111.5 Z"/></g>
<g><path style="opacity:1" fill="#4381d8" d="M 11.5,113.5 C 15.5,113.5 19.5,113.5 23.5,113.5C 23.8424,117.805 26.1757,119.305 30.5,118C 31.1667,116.667 31.8333,115.333 32.5,114C 36.4862,113.501 40.4862,113.334 44.5,113.5C 44.6646,116.518 44.498,119.518 44,122.5C 43.5,123 43,123.5 42.5,124C 32.8333,124.667 23.1667,124.667 13.5,124C 13,123.5 12.5,123 12,122.5C 11.502,119.518 11.3354,116.518 11.5,113.5 Z"/></g>
<g><path style="opacity:1" fill="#98941c" d="M 70.5,113.5 C 74.4517,114.196 78.4517,114.696 82.5,115C 83.3366,116.011 83.67,117.178 83.5,118.5C 87.1693,119.303 89.836,118.136 91.5,115C 95.2222,114.762 98.8889,114.262 102.5,113.5C 104.024,117.27 103.691,120.77 101.5,124C 91.8333,124.667 82.1667,124.667 72.5,124C 72,123.5 71.5,123 71,122.5C 70.502,119.518 70.3354,116.518 70.5,113.5 Z"/></g>
</svg>
