<?xml version="1.0" encoding="UTF-8"?>
<!DOCTYPE svg PUBLIC "-//W3C//DTD SVG 1.1//EN" "http://www.w3.org/Graphics/SVG/1.1/DTD/svg11.dtd">
<svg xmlns="http://www.w3.org/2000/svg" version="1.1" width="118px" height="110px" style="shape-rendering:geometricPrecision; text-rendering:geometricPrecision; image-rendering:optimizeQuality; fill-rule:evenodd; clip-rule:evenodd" xmlns:xlink="http://www.w3.org/1999/xlink">
<g><path style="opacity:0.99" fill="#8fc73d" d="M 83.5,-0.5 C 85.5,-0.5 87.5,-0.5 89.5,-0.5C 89.5,7.5 89.5,15.5 89.5,23.5C 84.4889,23.6659 79.4889,23.4993 74.5,23C 71.3361,18.2559 72.6694,15.5892 78.5,15C 81.0801,12.8797 81.0801,10.713 78.5,8.5C 76.0177,7.93294 73.6843,7.26627 71.5,6.5C 74.9085,3.1299 78.9085,0.796565 83.5,-0.5 Z"/></g>
<g><path style="opacity:0.987" fill="#27a9e2" d="M 101.5,2.5 C 104.689,3.5137 107.522,5.18037 110,7.5C 113.228,11.5257 115.728,15.8591 117.5,20.5C 117.5,24.1667 117.5,27.8333 117.5,31.5C 110.159,31.3337 102.826,31.5003 95.5,32C 93.7888,33.1332 93.2888,34.6332 94,36.5C 96.0509,38.5238 98.3842,40.1905 101,41.5C 101.711,43.3668 101.211,44.8668 99.5,46C 95.4452,46.2315 91.4452,46.7315 87.5,47.5C 84.8521,49.8684 84.8521,52.2017 87.5,54.5C 86.8333,54.5 86.1667,54.5 85.5,54.5C 81.534,53.9561 77.8674,52.6228 74.5,50.5C 71.5,48.1667 68.8333,45.5 66.5,42.5C 66.0679,41.2905 65.4013,40.2905 64.5,39.5C 64.1667,37.5 63.8333,35.5 63.5,33.5C 72.3254,44.3782 80.8254,44.0449 89,32.5C 89.498,29.5184 89.6646,26.5184 89.5,23.5C 91.5273,23.6621 93.5273,23.4955 95.5,23C 98.7106,18.3185 97.3773,15.4851 91.5,14.5C 90.0903,12.0508 90.4237,9.88409 92.5,8C 95.1667,7.66667 97.8333,7.33333 100.5,7C 101.38,5.64387 101.714,4.14387 101.5,2.5 Z"/></g>
<g><path style="opacity:0.991" fill="#5ad5f9" d="M 71.5,6.5 C 73.6843,7.26627 76.0177,7.93294 78.5,8.5C 81.0801,10.713 81.0801,12.8797 78.5,15C 72.6694,15.5892 71.3361,18.2559 74.5,23C 79.4889,23.4993 84.4889,23.6659 89.5,23.5C 89.6646,26.5184 89.498,29.5184 89,32.5C 80.8254,44.0449 72.3254,44.3782 63.5,33.5C 62.6618,33.1583 62.3284,32.4916 62.5,31.5C 62.5,28.5 62.5,25.5 62.5,22.5C 63.4373,15.9541 66.4373,10.6208 71.5,6.5 Z"/></g>
<g><path style="opacity:0.995" fill="#4b9745" d="M 89.5,-0.5 C 91.8333,-0.5 94.1667,-0.5 96.5,-0.5C 98.2608,0.312714 99.9275,1.31271 101.5,2.5C 101.714,4.14387 101.38,5.64387 100.5,7C 97.8333,7.33333 95.1667,7.66667 92.5,8C 90.4237,9.88409 90.0903,12.0508 91.5,14.5C 97.3773,15.4851 98.7106,18.3185 95.5,23C 93.5273,23.4955 91.5273,23.6621 89.5,23.5C 89.5,15.5 89.5,7.5 89.5,-0.5 Z"/></g>
<g><path style="opacity:0.998" fill="#91c73e" d="M 62.5,22.5 C 62.5,25.5 62.5,28.5 62.5,31.5C 61.1667,31.5 59.8333,31.5 58.5,31.5C 55.0623,30.1768 51.229,29.5102 47,29.5C 43.1667,29.6667 39.3333,29.8333 35.5,30C 34.944,30.3826 34.6107,30.8826 34.5,31.5C 25.5822,31.1828 16.7489,31.5161 8,32.5C 7.17496,50.407 7.34162,68.2403 8.5,86C 33.8333,86.6667 59.1667,86.6667 84.5,86C 85.4866,75.5821 85.8199,65.0821 85.5,54.5C 86.1667,54.5 86.8333,54.5 87.5,54.5C 89.5,54.5 91.5,54.5 93.5,54.5C 93.6665,65.8382 93.4999,77.1716 93,88.5C 91.6403,91.0226 89.807,93.0226 87.5,94.5C 77.8333,94.5 68.1667,94.5 58.5,94.5C 52.5,93.1667 46.5,93.1667 40.5,94.5C 28.8286,94.6665 17.1619,94.4999 5.5,94C 2.74583,93.4015 0.745833,91.9015 -0.5,89.5C -0.5,68.8333 -0.5,48.1667 -0.5,27.5C 0.873632,24.6451 3.20697,23.1451 6.5,23C 25.1637,22.5001 43.8304,22.3334 62.5,22.5 Z"/></g>
<g><path style="opacity:1" fill="#ef6f31" d="M 58.5,31.5 C 58.5,34.1667 58.5,36.8333 58.5,39.5C 57.1667,39.5 55.8333,39.5 54.5,39.5C 54.5,37.5 54.5,35.5 54.5,33.5C 49.1667,33.5 43.8333,33.5 38.5,33.5C 38.5,35.5 38.5,37.5 38.5,39.5C 36.901,39.7678 35.5676,39.4345 34.5,38.5C 34.5,36.1667 34.5,33.8333 34.5,31.5C 34.6107,30.8826 34.944,30.3826 35.5,30C 39.3333,29.8333 43.1667,29.6667 47,29.5C 51.229,29.5102 55.0623,30.1768 58.5,31.5 Z"/></g>
<g><path style="opacity:1" fill="#d4e4ea" d="M 34.5,31.5 C 34.5,33.8333 34.5,36.1667 34.5,38.5C 30.4862,38.3345 26.4862,38.5012 22.5,39C 21.5838,39.3742 20.7504,39.8742 20,40.5C 19.5004,47.1583 19.3337,53.825 19.5,60.5C 19.334,65.8437 19.5006,71.1771 20,76.5C 20.7504,77.1258 21.5838,77.6258 22.5,78C 37.8297,78.4999 53.163,78.6666 68.5,78.5C 70.9032,78.607 72.7365,77.607 74,75.5C 74.4997,67.1733 74.6664,58.84 74.5,50.5C 77.8674,52.6228 81.534,53.9561 85.5,54.5C 85.8199,65.0821 85.4866,75.5821 84.5,86C 59.1667,86.6667 33.8333,86.6667 8.5,86C 7.34162,68.2403 7.17496,50.407 8,32.5C 16.7489,31.5161 25.5822,31.1828 34.5,31.5 Z"/></g>
<g><path style="opacity:0.999" fill="#d6e4e6" d="M 58.5,31.5 C 59.8333,31.5 61.1667,31.5 62.5,31.5C 62.3284,32.4916 62.6618,33.1583 63.5,33.5C 63.8333,35.5 64.1667,37.5 64.5,39.5C 62.5,39.5 60.5,39.5 58.5,39.5C 58.5,36.8333 58.5,34.1667 58.5,31.5 Z"/></g>
<g><path style="opacity:1" fill="#8ec848" d="M 69.5,31.5 C 72.5184,31.3354 75.5184,31.502 78.5,32C 79.7634,39.4786 76.7634,41.4786 69.5,38C 68.232,35.8368 68.232,33.6702 69.5,31.5 Z"/></g>
<g><path style="opacity:0.995" fill="#499643" d="M 117.5,31.5 C 117.5,32.5 117.5,33.5 117.5,34.5C 114.678,42.6594 109.345,48.6594 101.5,52.5C 98.7334,52.8583 96.0667,53.525 93.5,54.5C 91.5,54.5 89.5,54.5 87.5,54.5C 84.8521,52.2017 84.8521,49.8684 87.5,47.5C 91.4452,46.7315 95.4452,46.2315 99.5,46C 101.211,44.8668 101.711,43.3668 101,41.5C 98.3842,40.1905 96.0509,38.5238 94,36.5C 93.2888,34.6332 93.7888,33.1332 95.5,32C 102.826,31.5003 110.159,31.3337 117.5,31.5 Z"/></g>
<g><path style="opacity:1" fill="#d8e2e1" d="M 54.5,39.5 C 49.1667,39.5 43.8333,39.5 38.5,39.5C 38.5,37.5 38.5,35.5 38.5,33.5C 43.8333,33.5 49.1667,33.5 54.5,33.5C 54.5,35.5 54.5,37.5 54.5,39.5 Z"/></g>
<g><path style="opacity:1" fill="#fed00a" d="M 34.5,38.5 C 35.5676,39.4345 36.901,39.7678 38.5,39.5C 43.8333,39.5 49.1667,39.5 54.5,39.5C 55.8333,39.5 57.1667,39.5 58.5,39.5C 60.5,39.5 62.5,39.5 64.5,39.5C 65.4013,40.2905 66.0679,41.2905 66.5,42.5C 66.5,48.5 66.5,54.5 66.5,60.5C 65.7109,60.7828 65.0442,61.2828 64.5,62C 59.1771,62.4994 53.8437,62.666 48.5,62.5C 48.67,61.1779 48.3366,60.0113 47.5,59C 44.1667,58.3333 40.8333,58.3333 37.5,59C 36.6634,60.0113 36.33,61.1779 36.5,62.5C 31.4889,62.6659 26.4889,62.4993 21.5,62C 20.9558,61.2828 20.2891,60.7828 19.5,60.5C 19.3337,53.825 19.5004,47.1583 20,40.5C 20.7504,39.8742 21.5838,39.3742 22.5,39C 26.4862,38.5012 30.4862,38.3345 34.5,38.5 Z"/></g>
<g><path style="opacity:0.998" fill="#ef6627" d="M 66.5,42.5 C 68.8333,45.5 71.5,48.1667 74.5,50.5C 74.6664,58.84 74.4997,67.1733 74,75.5C 72.7365,77.607 70.9032,78.607 68.5,78.5C 68.2172,77.7109 67.7172,77.0442 67,76.5C 66.5006,71.1771 66.334,65.8437 66.5,60.5C 66.5,54.5 66.5,48.5 66.5,42.5 Z"/></g>
<g><path style="opacity:0.975" fill="#5ea945" d="M 101.5,52.5 C 101.227,62.6956 101.561,72.8622 102.5,83C 102.087,92.5591 97.087,96.3924 87.5,94.5C 89.807,93.0226 91.6403,91.0226 93,88.5C 93.4999,77.1716 93.6665,65.8382 93.5,54.5C 96.0667,53.525 98.7334,52.8583 101.5,52.5 Z"/></g>
<g><path style="opacity:0.994" fill="#d0dee6" d="M 48.5,62.5 C 48.67,63.8221 48.3366,64.9887 47.5,66C 44.1667,66.6667 40.8333,66.6667 37.5,66C 36.6634,64.9887 36.33,63.8221 36.5,62.5C 36.33,61.1779 36.6634,60.0113 37.5,59C 40.8333,58.3333 44.1667,58.3333 47.5,59C 48.3366,60.0113 48.67,61.1779 48.5,62.5 Z"/></g>
<g><path style="opacity:1" fill="#f9a01c" d="M 19.5,60.5 C 20.2891,60.7828 20.9558,61.2828 21.5,62C 26.4889,62.4993 31.4889,62.6659 36.5,62.5C 36.33,63.8221 36.6634,64.9887 37.5,66C 40.8333,66.6667 44.1667,66.6667 47.5,66C 48.3366,64.9887 48.67,63.8221 48.5,62.5C 53.8437,62.666 59.1771,62.4994 64.5,62C 65.0442,61.2828 65.7109,60.7828 66.5,60.5C 66.334,65.8437 66.5006,71.1771 67,76.5C 67.7172,77.0442 68.2172,77.7109 68.5,78.5C 53.163,78.6666 37.8297,78.4999 22.5,78C 21.5838,77.6258 20.7504,77.1258 20,76.5C 19.5006,71.1771 19.334,65.8437 19.5,60.5 Z"/></g>
<g><path style="opacity:0.983" fill="#4a4553" d="M 58.5,94.5 C 58.5,96.8333 58.5,99.1667 58.5,101.5C 52.5,101.5 46.5,101.5 40.5,101.5C 40.5,99.1667 40.5,96.8333 40.5,94.5C 46.5,93.1667 52.5,93.1667 58.5,94.5 Z"/></g>
<g><path style="opacity:0.982" fill="#f99f19" d="M 40.5,101.5 C 46.5,101.5 52.5,101.5 58.5,101.5C 61.8333,101.5 65.1667,101.5 68.5,101.5C 66.7739,103.82 66.1072,106.487 66.5,109.5C 51.8333,109.5 37.1667,109.5 22.5,109.5C 22.22,106.728 22.8866,104.228 24.5,102C 29.8229,101.501 35.1563,101.334 40.5,101.5 Z"/></g>
<g><path style="opacity:0.955" fill="#ef6322" d="M 68.5,101.5 C 71.5719,101.183 74.5719,101.516 77.5,102.5C 78.3742,104.747 78.7076,107.08 78.5,109.5C 74.5,109.5 70.5,109.5 66.5,109.5C 66.1072,106.487 66.7739,103.82 68.5,101.5 Z"/></g>
</svg>
