<?xml version="1.0" encoding="UTF-8"?>
<!DOCTYPE svg PUBLIC "-//W3C//DTD SVG 1.1//EN" "http://www.w3.org/Graphics/SVG/1.1/DTD/svg11.dtd">
<svg xmlns="http://www.w3.org/2000/svg" version="1.1" width="171px" height="115px" style="shape-rendering:geometricPrecision; text-rendering:geometricPrecision; image-rendering:optimizeQuality; fill-rule:evenodd; clip-rule:evenodd" xmlns:xlink="http://www.w3.org/1999/xlink">
<g><path style="opacity:0.959" fill="#b0d9fc" d="M 2.5,-0.5 C 34.5,-0.5 66.5,-0.5 98.5,-0.5C 98.7828,0.28913 99.2828,0.955796 100,1.5C 100.5,11.828 100.666,22.1613 100.5,32.5C 99.3422,28.6652 97.0089,25.6652 93.5,23.5C 93.5,17.8333 93.5,12.1667 93.5,6.5C 84.1667,6.5 74.8333,6.5 65.5,6.5C 60.4142,4.79315 55.4142,2.79315 50.5,0.5C 48.8295,0.668206 47.4961,1.33487 46.5,2.5C 42.9416,4.11172 39.2749,5.44505 35.5,6.5C 25.8333,6.5 16.1667,6.5 6.5,6.5C 6.5,12.1667 6.5,17.8333 6.5,23.5C 3.91379,26.3579 1.58046,29.3579 -0.5,32.5C -0.5,22.5 -0.5,12.5 -0.5,2.5C 0.833333,1.83333 1.83333,0.833333 2.5,-0.5 Z M 35.5,6.5 C 26.0332,12.404 16.3665,18.0706 6.5,23.5C 6.5,17.8333 6.5,12.1667 6.5,6.5C 16.1667,6.5 25.8333,6.5 35.5,6.5 Z M 65.5,6.5 C 74.8333,6.5 84.1667,6.5 93.5,6.5C 93.5,12.1667 93.5,17.8333 93.5,23.5C 83.7979,18.3213 74.4646,12.6546 65.5,6.5 Z"/></g>
<g><path style="opacity:0.983" fill="#0690ce" d="M 65.5,6.5 C 74.4646,12.6546 83.7979,18.3213 93.5,23.5C 97.0089,25.6652 99.3422,28.6652 100.5,32.5C 100.5,38.1667 100.5,43.8333 100.5,49.5C 98.2343,53.4356 95.2343,56.7689 91.5,59.5C 91.6664,50.4938 91.4998,41.4938 91,32.5C 90.4389,30.2746 89.4389,28.2746 88,26.5C 74.221,18.362 60.3876,10.362 46.5,2.5C 47.4961,1.33487 48.8295,0.668206 50.5,0.5C 55.4142,2.79315 60.4142,4.79315 65.5,6.5 Z"/></g>
<g><path style="opacity:0.983" fill="#03bef7" d="M 46.5,2.5 C 60.3876,10.362 74.221,18.362 88,26.5C 89.4389,28.2746 90.4389,30.2746 91,32.5C 91.4998,41.4938 91.6664,50.4938 91.5,59.5C 88.8333,62.5 86.1667,65.5 83.5,68.5C 80.7956,74.2669 78.4623,80.2669 76.5,86.5C 74.9236,89.6548 73.9236,92.9882 73.5,96.5C 64.366,101.234 55.366,106.234 46.5,111.5C 43.1614,109.386 39.4947,108.053 35.5,107.5C 26.3344,101.08 16.6677,95.4134 6.5,90.5C 3.68517,87.5491 1.35184,84.2158 -0.5,80.5C -0.5,64.5 -0.5,48.5 -0.5,32.5C 1.58046,29.3579 3.91379,26.3579 6.5,23.5C 16.3665,18.0706 26.0332,12.404 35.5,6.5C 39.2749,5.44505 42.9416,4.11172 46.5,2.5 Z M 48.5,28.5 C 58.0589,31.6972 66.8922,36.3639 75,42.5C 75.6667,51.8333 75.6667,61.1667 75,70.5C 67.3135,76.5128 58.9801,81.5128 50,85.5C 41.8521,81.0925 33.8521,76.4258 26,71.5C 25.3333,61.8333 25.3333,52.1667 26,42.5C 33.3123,37.4326 40.8123,32.7659 48.5,28.5 Z"/></g>
<g><path style="opacity:0.988" fill="#fc7ab5" d="M 163.5,6.5 C 164.492,9.77859 164.659,13.1119 164,16.5C 162.404,19.3695 160.57,22.0361 158.5,24.5C 152.167,20.1667 146.833,14.8333 142.5,8.5C 147.131,3.76562 152.798,2.26562 159.5,4C 161.32,4.20041 162.653,5.03374 163.5,6.5 Z"/></g>
<g><path style="opacity:0.985" fill="#d5eafd" d="M 142.5,8.5 C 146.833,14.8333 152.167,20.1667 158.5,24.5C 158.5,25.1667 158.5,25.8333 158.5,26.5C 159.032,32.9694 156.032,36.3027 149.5,36.5C 148.833,36.1667 148.167,35.8333 147.5,35.5C 146.167,33.5 144.5,31.8333 142.5,30.5C 139.105,26.1024 135.105,22.4357 130.5,19.5C 128.212,8.78492 132.212,5.11825 142.5,8.5 Z"/></g>
<g><path style="opacity:0.954" fill="#f93e96" d="M 163.5,6.5 C 164.496,6.41423 165.329,6.74756 166,7.5C 167.795,10.0993 169.295,12.7659 170.5,15.5C 170.5,17.8333 170.5,20.1667 170.5,22.5C 169.463,25.916 167.463,28.5827 164.5,30.5C 162.228,29.5589 160.228,28.2255 158.5,26.5C 158.5,25.8333 158.5,25.1667 158.5,24.5C 160.57,22.0361 162.404,19.3695 164,16.5C 164.659,13.1119 164.492,9.77859 163.5,6.5 Z"/></g>
<g><path style="opacity:0.994" fill="#fcb77c" d="M 130.5,19.5 C 135.105,22.4357 139.105,26.1024 142.5,30.5C 126.527,46.8066 110.527,63.1399 94.5,79.5C 95.0741,71.6722 91.4075,68.0055 83.5,68.5C 86.1667,65.5 88.8333,62.5 91.5,59.5C 95.2343,56.7689 98.2343,53.4356 100.5,49.5C 110.833,39.8333 120.833,29.8333 130.5,19.5 Z"/></g>
<g><path style="opacity:0.959" fill="#b2d7f8" d="M 158.5,26.5 C 160.228,28.2255 162.228,29.5589 164.5,30.5C 168.545,37.5435 166.712,42.2102 159,44.5C 157.1,43.9231 155.267,43.2565 153.5,42.5C 152.167,40.5 150.833,38.5 149.5,36.5C 156.032,36.3027 159.032,32.9694 158.5,26.5 Z"/></g>
<g><path style="opacity:0.999" fill="#fc9738" d="M 142.5,30.5 C 144.5,31.8333 146.167,33.5 147.5,35.5C 132.167,50.1667 117.167,65.1667 102.5,80.5C 99.9039,79.7347 97.2372,79.4013 94.5,79.5C 110.527,63.1399 126.527,46.8066 142.5,30.5 Z"/></g>
<g><path style="opacity:0.977" fill="#f97402" d="M 147.5,35.5 C 148.167,35.8333 148.833,36.1667 149.5,36.5C 150.833,38.5 152.167,40.5 153.5,42.5C 137.833,58.8333 121.833,74.8333 105.5,90.5C 104.865,87.1445 103.865,83.8112 102.5,80.5C 117.167,65.1667 132.167,50.1667 147.5,35.5 Z"/></g>
<g><path style="opacity:0.994" fill="#fcd8c8" d="M 83.5,68.5 C 91.4075,68.0055 95.0741,71.6722 94.5,79.5C 97.2372,79.4013 99.9039,79.7347 102.5,80.5C 103.865,83.8112 104.865,87.1445 105.5,90.5C 104.07,91.5375 102.403,92.2041 100.5,92.5C 97.8427,92.9348 95.5093,93.9348 93.5,95.5C 91.4214,95.9707 89.4214,96.6373 87.5,97.5C 84.1667,93.5 80.5,89.8333 76.5,86.5C 78.4623,80.2669 80.7956,74.2669 83.5,68.5 Z"/></g>
<g><path style="opacity:0.877" fill="#b1d8fc" d="M -0.5,80.5 C 1.35184,84.2158 3.68517,87.5491 6.5,90.5C 6.5,96.1667 6.5,101.833 6.5,107.5C 16.1667,107.5 25.8333,107.5 35.5,107.5C 39.4947,108.053 43.1614,109.386 46.5,111.5C 48.9664,112.634 51.633,112.801 54.5,112C 57.7365,110.214 61.0698,108.714 64.5,107.5C 74.1667,107.5 83.8333,107.5 93.5,107.5C 93.5,103.5 93.5,99.5 93.5,95.5C 95.5093,93.9348 97.8427,92.9348 100.5,92.5C 100.666,99.175 100.5,105.842 100,112.5C 99.2828,113.044 98.7828,113.711 98.5,114.5C 66.5,114.5 34.5,114.5 2.5,114.5C 1.83333,113.167 0.833333,112.167 -0.5,111.5C -0.5,101.167 -0.5,90.8333 -0.5,80.5 Z M 93.5,95.5 C 93.5,99.5 93.5,103.5 93.5,107.5C 83.8333,107.5 74.1667,107.5 64.5,107.5C 67.961,104.931 71.6277,102.597 75.5,100.5C 79.7159,100.316 83.7159,99.316 87.5,97.5C 89.4214,96.6373 91.4214,95.9707 93.5,95.5 Z"/></g>
<g><path style="opacity:0.947" fill="#4b5f67" d="M 76.5,86.5 C 80.5,89.8333 84.1667,93.5 87.5,97.5C 83.7159,99.316 79.7159,100.316 75.5,100.5C 74.3995,99.3951 73.7329,98.0618 73.5,96.5C 73.9236,92.9882 74.9236,89.6548 76.5,86.5 Z"/></g>
<g><path style="opacity:0.975" fill="#0c90ce" d="M 73.5,96.5 C 73.7329,98.0618 74.3995,99.3951 75.5,100.5C 71.6277,102.597 67.961,104.931 64.5,107.5C 61.0698,108.714 57.7365,110.214 54.5,112C 51.633,112.801 48.9664,112.634 46.5,111.5C 55.366,106.234 64.366,101.234 73.5,96.5 Z"/></g>
</svg>
