<?xml version="1.0" encoding="UTF-8"?>
<!DOCTYPE svg PUBLIC "-//W3C//DTD SVG 1.1//EN" "http://www.w3.org/Graphics/SVG/1.1/DTD/svg11.dtd">
<svg xmlns="http://www.w3.org/2000/svg" version="1.1" width="114px" height="114px" style="shape-rendering:geometricPrecision; text-rendering:geometricPrecision; image-rendering:optimizeQuality; fill-rule:evenodd; clip-rule:evenodd" xmlns:xlink="http://www.w3.org/1999/xlink">
<g><path style="opacity:0.975" fill="#e0a56e" d="M 41.5,-0.5 C 43.5,-0.5 45.5,-0.5 47.5,-0.5C 49.9731,1.14316 51.9731,3.30982 53.5,6C 56.146,6.49742 58.8127,6.66409 61.5,6.5C 61.7892,10.1064 61.4558,13.6064 60.5,17C 48.6595,17.1693 36.9928,17.6693 25.5,18.5C 24.6618,18.1583 24.3284,17.4916 24.5,16.5C 24.5,13.8333 24.5,11.1667 24.5,8.5C 27.7443,6.88814 31.411,5.88814 35.5,5.5C 37.215,3.11825 39.215,1.11825 41.5,-0.5 Z"/></g>
<g><path style="opacity:1" fill="#eaeae8" d="M 42.5,5.5 C 43.8333,5.5 45.1667,5.5 46.5,5.5C 46.8333,8.5 45.5,9.83333 42.5,9.5C 42.5,8.16667 42.5,6.83333 42.5,5.5 Z"/></g>
<g><path style="opacity:0.984" fill="#c68e5f" d="M 61.5,6.5 C 63.0269,6.42702 64.0269,7.09368 64.5,8.5C 63.5863,11.728 63.2529,15.0613 63.5,18.5C 63.3893,19.1174 63.056,19.6174 62.5,20C 50.5,20.6667 38.5,20.6667 26.5,20C 25.944,19.6174 25.6107,19.1174 25.5,18.5C 36.9928,17.6693 48.6595,17.1693 60.5,17C 61.4558,13.6064 61.7892,10.1064 61.5,6.5 Z"/></g>
<g><path style="opacity:0.899" fill="#837683" d="M 24.5,8.5 C 24.5,11.1667 24.5,13.8333 24.5,16.5C 18.9066,16.1934 13.4066,16.5268 8,17.5C 7.33333,46.5 7.33333,75.5 8,104.5C 26.0901,105.492 44.2567,105.826 62.5,105.5C 62.2786,108.279 62.612,110.946 63.5,113.5C 43.1667,113.5 22.8333,113.5 2.5,113.5C 1.48837,112.128 0.488369,110.795 -0.5,109.5C -0.5,77.1667 -0.5,44.8333 -0.5,12.5C 0.363622,11.3117 1.36362,10.1451 2.5,9C 9.82577,8.50034 17.1591,8.33368 24.5,8.5 Z"/></g>
<g><path style="opacity:0.997" fill="#6e636e" d="M 64.5,8.5 C 71.8409,8.33368 79.1742,8.50034 86.5,9C 87,9.5 87.5,10 88,10.5C 89.4609,23.0668 89.9609,35.7335 89.5,48.5C 86.8333,48.5 84.1667,48.5 81.5,48.5C 81.5,37.8333 81.5,27.1667 81.5,16.5C 79.8333,16.5 78.1667,16.5 76.5,16.5C 71.8468,15.9992 67.5135,16.6658 63.5,18.5C 63.2529,15.0613 63.5863,11.728 64.5,8.5 Z"/></g>
<g><path style="opacity:1" fill="#e9ecee" d="M 24.5,16.5 C 24.3284,17.4916 24.6618,18.1583 25.5,18.5C 25.6107,19.1174 25.944,19.6174 26.5,20C 38.5,20.6667 50.5,20.6667 62.5,20C 63.056,19.6174 63.3893,19.1174 63.5,18.5C 67.5135,16.6658 71.8468,15.9992 76.5,16.5C 76.5,27.1667 76.5,37.8333 76.5,48.5C 72.1539,48.3343 67.8206,48.501 63.5,49C 62.5769,51.0408 62.2436,53.2075 62.5,55.5C 56.4908,55.3338 50.4908,55.5005 44.5,56C 43.1667,57 43.1667,58 44.5,59C 50.4908,59.4995 56.4908,59.6662 62.5,59.5C 62.5,61.5 62.5,63.5 62.5,65.5C 56.8236,65.3339 51.1569,65.5006 45.5,66C 43.5188,66.6054 43.1854,67.6054 44.5,69C 50.4908,69.4995 56.4908,69.6662 62.5,69.5C 62.5,72.8333 62.5,76.1667 62.5,79.5C 56.4908,79.3338 50.4908,79.5005 44.5,80C 43.1667,81 43.1667,82 44.5,83C 50.4908,83.4995 56.4908,83.6662 62.5,83.5C 62.5,85.5 62.5,87.5 62.5,89.5C 56.4908,89.3338 50.4908,89.5005 44.5,90C 43.1667,91 43.1667,92 44.5,93C 50.4908,93.4995 56.4908,93.6662 62.5,93.5C 62.5,97.5 62.5,101.5 62.5,105.5C 44.2567,105.826 26.0901,105.492 8,104.5C 7.33333,75.5 7.33333,46.5 8,17.5C 13.4066,16.5268 18.9066,16.1934 24.5,16.5 Z"/></g>
<g><path style="opacity:1" fill="#d2d2d7" d="M 76.5,16.5 C 78.1667,16.5 79.8333,16.5 81.5,16.5C 81.5,27.1667 81.5,37.8333 81.5,48.5C 79.8333,48.5 78.1667,48.5 76.5,48.5C 76.5,37.8333 76.5,27.1667 76.5,16.5 Z"/></g>
<g><path style="opacity:1" fill="#a89eaa" d="M 33.5,40.5 C 28.0969,43.4849 24.7635,41.8182 23.5,35.5C 25.5996,35.4772 27.4329,36.1439 29,37.5C 30.9812,37.1015 32.4812,36.1015 33.5,34.5C 35.3634,32.2947 37.6967,30.9613 40.5,30.5C 40.6495,31.552 40.4828,32.552 40,33.5C 37.6278,35.7032 35.4611,38.0365 33.5,40.5 Z"/></g>
<g><path style="opacity:1" fill="#89c6fa" d="M 33.5,34.5 C 32.4812,36.1015 30.9812,37.1015 29,37.5C 27.4329,36.1439 25.5996,35.4772 23.5,35.5C 24.7635,41.8182 28.0969,43.4849 33.5,40.5C 33.6799,45.3157 31.3465,47.3157 26.5,46.5C 20.8603,47.509 18.527,45.1757 19.5,39.5C 19.6667,37.5 19.8333,35.5 20,33.5C 20.5,33 21,32.5 21.5,32C 24.8333,31.3333 28.1667,31.3333 31.5,32C 32.3805,32.7083 33.0472,33.5416 33.5,34.5 Z"/></g>
<g><path style="opacity:1" fill="#a89ca8" d="M 43.5,32.5 C 52.8333,32.5 62.1667,32.5 71.5,32.5C 71.5,33.5 71.5,34.5 71.5,35.5C 62.4938,35.6664 53.4938,35.4998 44.5,35C 43.7476,34.3292 43.4142,33.4959 43.5,32.5 Z"/></g>
<g><path style="opacity:1" fill="#a79ba7" d="M 44.5,42.5 C 53.5,42.5 62.5,42.5 71.5,42.5C 71.5,43.5 71.5,44.5 71.5,45.5C 62.5,45.5 53.5,45.5 44.5,45.5C 44.5,44.5 44.5,43.5 44.5,42.5 Z"/></g>
<g><path style="opacity:0.984" fill="#8ac8fc" d="M 76.5,48.5 C 78.1667,48.5 79.8333,48.5 81.5,48.5C 84.1667,48.5 86.8333,48.5 89.5,48.5C 94.5,48.5 99.5,48.5 104.5,48.5C 104.5,51.1667 104.5,53.8333 104.5,56.5C 105.833,56.5 107.167,56.5 108.5,56.5C 108.5,75.5 108.5,94.5 108.5,113.5C 93.5,113.5 78.5,113.5 63.5,113.5C 62.612,110.946 62.2786,108.279 62.5,105.5C 62.5,101.5 62.5,97.5 62.5,93.5C 62.5,92.1667 62.5,90.8333 62.5,89.5C 62.5,87.5 62.5,85.5 62.5,83.5C 62.5,82.1667 62.5,80.8333 62.5,79.5C 62.5,76.1667 62.5,72.8333 62.5,69.5C 62.5,68.1667 62.5,66.8333 62.5,65.5C 62.5,63.5 62.5,61.5 62.5,59.5C 62.5,58.1667 62.5,56.8333 62.5,55.5C 62.2436,53.2075 62.5769,51.0408 63.5,49C 67.8206,48.501 72.1539,48.3343 76.5,48.5 Z"/></g>
<g><path style="opacity:1" fill="#a99eaa" d="M 33.5,63.5 C 28.306,67.7226 24.9727,66.3893 23.5,59.5C 25.5996,59.4772 27.4329,60.1439 29,61.5C 31.521,61.1778 33.021,59.8445 33.5,57.5C 35.6282,56.0427 37.9616,55.0427 40.5,54.5C 39.3453,58.3324 37.012,61.3324 33.5,63.5 Z"/></g>
<g><path style="opacity:1" fill="#68edba" d="M 33.5,57.5 C 33.021,59.8445 31.521,61.1778 29,61.5C 27.4329,60.1439 25.5996,59.4772 23.5,59.5C 24.9727,66.3893 28.306,67.7226 33.5,63.5C 34.1742,68.8259 31.8408,71.1592 26.5,70.5C 20.7508,71.3401 18.4175,68.8401 19.5,63C 19.5296,60.5759 19.8629,58.2426 20.5,56C 24.5,55.3333 28.5,55.3333 32.5,56C 33.056,56.3826 33.3893,56.8826 33.5,57.5 Z"/></g>
<g><path style="opacity:1" fill="#aba0ab" d="M 62.5,55.5 C 62.5,56.8333 62.5,58.1667 62.5,59.5C 56.4908,59.6662 50.4908,59.4995 44.5,59C 43.1667,58 43.1667,57 44.5,56C 50.4908,55.5005 56.4908,55.3338 62.5,55.5 Z"/></g>
<g><path style="opacity:0.992" fill="#5eb5fb" d="M 104.5,48.5 C 107.5,51.1667 110.5,53.8333 113.5,56.5C 113.5,75.1667 113.5,93.8333 113.5,112.5C 112.833,112.5 112.5,112.833 112.5,113.5C 111.167,113.5 109.833,113.5 108.5,113.5C 108.5,94.5 108.5,75.5 108.5,56.5C 107.167,56.5 105.833,56.5 104.5,56.5C 104.5,53.8333 104.5,51.1667 104.5,48.5 Z"/></g>
<g><path style="opacity:0.999" fill="#aca2ad" d="M 62.5,65.5 C 62.5,66.8333 62.5,68.1667 62.5,69.5C 56.4908,69.6662 50.4908,69.4995 44.5,69C 43.1854,67.6054 43.5188,66.6054 45.5,66C 51.1569,65.5006 56.8236,65.3339 62.5,65.5 Z"/></g>
<g><path style="opacity:1" fill="#fbd167" d="M 82.5,69.5 C 97.4588,67.9595 104.292,74.6262 103,89.5C 97.1835,101.038 88.6835,103.538 77.5,97C 71.9585,90.4244 71.1252,83.2577 75,75.5C 77.1141,72.8792 79.6141,70.8792 82.5,69.5 Z"/></g>
<g><path style="opacity:1" fill="#af9da8" d="M 33.5,87.5 C 32.1434,88.6854 30.6434,89.6854 29,90.5C 26.3688,89.0367 24.2021,87.0367 22.5,84.5C 22.8869,83.2801 23.7202,82.6135 25,82.5C 26.6255,83.2887 28.1255,84.2887 29.5,85.5C 31.188,84.4787 32.5213,83.1454 33.5,81.5C 35.6282,80.0427 37.9616,79.0427 40.5,78.5C 39.3137,82.3575 36.9803,85.3575 33.5,87.5 Z"/></g>
<g><path style="opacity:1" fill="#fb646e" d="M 33.5,81.5 C 32.5213,83.1454 31.188,84.4787 29.5,85.5C 28.1255,84.2887 26.6255,83.2887 25,82.5C 23.7202,82.6135 22.8869,83.2801 22.5,84.5C 24.2021,87.0367 26.3688,89.0367 29,90.5C 30.6434,89.6854 32.1434,88.6854 33.5,87.5C 34.2716,92.894 31.9383,94.894 26.5,93.5C 20.5,94.8333 18.1667,92.5 19.5,86.5C 19.5323,84.2412 19.8656,82.0745 20.5,80C 24.5,79.3333 28.5,79.3333 32.5,80C 33.056,80.3826 33.3893,80.8826 33.5,81.5 Z"/></g>
<g><path style="opacity:1" fill="#a99eaa" d="M 62.5,79.5 C 62.5,80.8333 62.5,82.1667 62.5,83.5C 56.4908,83.6662 50.4908,83.4995 44.5,83C 43.1667,82 43.1667,81 44.5,80C 50.4908,79.5005 56.4908,79.3338 62.5,79.5 Z"/></g>
<g><path style="opacity:1" fill="#ab9fab" d="M 62.5,89.5 C 62.5,90.8333 62.5,92.1667 62.5,93.5C 56.4908,93.6662 50.4908,93.4995 44.5,93C 43.1667,92 43.1667,91 44.5,90C 50.4908,89.5005 56.4908,89.3338 62.5,89.5 Z"/></g>
</svg>
