<?xml version="1.0" encoding="UTF-8"?>
<!DOCTYPE svg PUBLIC "-//W3C//DTD SVG 1.1//EN" "http://www.w3.org/Graphics/SVG/1.1/DTD/svg11.dtd">
<svg xmlns="http://www.w3.org/2000/svg" version="1.1" width="120px" height="124px" style="shape-rendering:geometricPrecision; text-rendering:geometricPrecision; image-rendering:optimizeQuality; fill-rule:evenodd; clip-rule:evenodd" xmlns:xlink="http://www.w3.org/1999/xlink">
<g><path style="opacity:0.979" fill="#4e6575" d="M 12.5,-0.5 C 19.5,-0.5 26.5,-0.5 33.5,-0.5C 33.7506,3.24883 34.4172,6.9155 35.5,10.5C 30.1649,10.005 27.6649,12.3384 28,17.5C 28.5,18 29,18.5 29.5,19C 32.4816,19.498 35.4816,19.6646 38.5,19.5C 38.5,23.5 38.5,27.5 38.5,31.5C 30.4931,31.6664 22.4931,31.4997 14.5,31C 13.2341,30.6905 12.0674,30.1905 11,29.5C 10.3333,20.1667 10.3333,10.8333 11,1.5C 11.7172,0.955796 12.2172,0.28913 12.5,-0.5 Z"/></g>
<g><path style="opacity:0.967" fill="#83939e" d="M 33.5,-0.5 C 55.8333,-0.5 78.1667,-0.5 100.5,-0.5C 100.472,1.58236 101.139,3.4157 102.5,5C 105.688,6.31576 109.022,6.81576 112.5,6.5C 111.386,11.5827 113.053,15.2494 117.5,17.5C 118.494,12.544 118.827,7.54396 118.5,2.5C 118.833,2.5 119.167,2.5 119.5,2.5C 119.5,8.5 119.5,14.5 119.5,20.5C 110.167,20.5 100.833,20.5 91.5,20.5C 94.3054,19.6805 97.3054,19.1805 100.5,19C 102.275,15.6063 101.608,12.9396 98.5,11C 95.854,10.5026 93.1873,10.3359 90.5,10.5C 77.8333,10.5 65.1667,10.5 52.5,10.5C 47.8333,10.5 43.1667,10.5 38.5,10.5C 37.5,10.5 36.5,10.5 35.5,10.5C 34.4172,6.9155 33.7506,3.24883 33.5,-0.5 Z"/></g>
<g><path style="opacity:0.982" fill="#a5b1b9" d="M 100.5,-0.5 C 105.833,-0.5 111.167,-0.5 116.5,-0.5C 117.551,0.222348 118.218,1.22235 118.5,2.5C 118.827,7.54396 118.494,12.544 117.5,17.5C 113.053,15.2494 111.386,11.5827 112.5,6.5C 109.022,6.81576 105.688,6.31576 102.5,5C 101.139,3.4157 100.472,1.58236 100.5,-0.5 Z"/></g>
<g><path style="opacity:0.999" fill="#dcddde" d="M 35.5,10.5 C 36.5,10.5 37.5,10.5 38.5,10.5C 38.5,13.5 38.5,16.5 38.5,19.5C 35.4816,19.6646 32.4816,19.498 29.5,19C 29,18.5 28.5,18 28,17.5C 27.6649,12.3384 30.1649,10.005 35.5,10.5 Z"/></g>
<g><path style="opacity:0.999" fill="#7ca344" d="M 38.5,10.5 C 43.1667,10.5 47.8333,10.5 52.5,10.5C 52.5,10.8333 52.5,11.1667 52.5,11.5C 52.5,16.5 52.5,21.5 52.5,26.5C 52.5,26.8333 52.5,27.1667 52.5,27.5C 51.4168,27.5394 50.4168,27.8728 49.5,28.5C 48.5008,42.1504 48.1675,55.8171 48.5,69.5C 45.5375,72.9641 42.3709,76.2975 39,79.5C 38.5003,71.5069 38.3336,63.5069 38.5,55.5C 38.5,47.5 38.5,39.5 38.5,31.5C 38.5,27.5 38.5,23.5 38.5,19.5C 38.5,16.5 38.5,13.5 38.5,10.5 Z"/></g>
<g><path style="opacity:0.972" fill="#bccfa1" d="M 52.5,11.5 C 52.5,11.1667 52.5,10.8333 52.5,10.5C 65.1667,10.5 77.8333,10.5 90.5,10.5C 90.5,13.8333 90.5,17.1667 90.5,20.5C 90.244,24.2693 90.5773,27.9359 91.5,31.5C 91.5,35.5 91.5,39.5 91.5,43.5C 89.6096,43.7035 88.1096,43.0368 87,41.5C 86.6667,34.5 86.3333,27.5 86,20.5C 85.5348,19.0692 84.7014,17.9025 83.5,17C 75.6033,15.73 67.6033,15.0633 59.5,15C 57.9575,12.2984 55.6241,11.1318 52.5,11.5 Z"/></g>
<g><path style="opacity:1" fill="#dcdedd" d="M 90.5,10.5 C 93.1873,10.3359 95.854,10.5026 98.5,11C 101.608,12.9396 102.275,15.6063 100.5,19C 97.3054,19.1805 94.3054,19.6805 91.5,20.5C 91.1667,20.5 90.8333,20.5 90.5,20.5C 90.5,17.1667 90.5,13.8333 90.5,10.5 Z"/></g>
<g><path style="opacity:0.996" fill="#bdd0a1" d="M 58.5,54.5 C 68.5495,58.5633 73.0495,55.2299 72,44.5C 71.5,42.6667 70.3333,41.5 68.5,41C 60.529,39.1369 56.529,42.3035 56.5,50.5C 54.672,47.865 53.5053,44.865 53,41.5C 52.5008,36.8452 52.3342,32.1785 52.5,27.5C 52.5,27.1667 52.5,26.8333 52.5,26.5C 54.6345,25.2965 55.9678,23.4632 56.5,21C 62.1569,20.5006 67.8236,20.3339 73.5,20.5C 73.8333,25.5 76.5,28.1667 81.5,28.5C 81.5,42.8333 81.5,57.1667 81.5,71.5C 73.7694,70.0505 67.2694,66.3838 62,60.5C 60.5787,58.5952 59.412,56.5952 58.5,54.5 Z"/></g>
<g><path style="opacity:0.985" fill="#4e6575" d="M 90.5,20.5 C 90.8333,20.5 91.1667,20.5 91.5,20.5C 100.833,20.5 110.167,20.5 119.5,20.5C 119.5,22.8333 119.5,25.1667 119.5,27.5C 118.684,29.1436 117.35,30.3103 115.5,31C 107.507,31.4997 99.5069,31.6664 91.5,31.5C 90.5773,27.9359 90.244,24.2693 90.5,20.5 Z"/></g>
<g><path style="opacity:1" fill="#a3bf7c" d="M 52.5,11.5 C 55.6241,11.1318 57.9575,12.2984 59.5,15C 67.6033,15.0633 75.6033,15.73 83.5,17C 84.7014,17.9025 85.5348,19.0692 86,20.5C 86.3333,27.5 86.6667,34.5 87,41.5C 88.1096,43.0368 89.6096,43.7035 91.5,43.5C 91.5,53.5 91.5,63.5 91.5,73.5C 87.8455,73.0578 84.1788,72.7244 80.5,72.5C 80.5,74.5 80.5,76.5 80.5,78.5C 75.8333,78.5 73.5,80.8333 73.5,85.5C 67.7945,85.8288 62.1278,85.4954 56.5,84.5C 55.8671,82.2145 54.5338,80.5478 52.5,79.5C 57.1961,73.575 55.8627,70.2416 48.5,69.5C 48.1675,55.8171 48.5008,42.1504 49.5,28.5C 50.4168,27.8728 51.4168,27.5394 52.5,27.5C 52.3342,32.1785 52.5008,36.8452 53,41.5C 53.5053,44.865 54.672,47.865 56.5,50.5C 57.1667,51.8333 57.8333,53.1667 58.5,54.5C 59.412,56.5952 60.5787,58.5952 62,60.5C 67.2694,66.3838 73.7694,70.0505 81.5,71.5C 81.5,57.1667 81.5,42.8333 81.5,28.5C 76.5,28.1667 73.8333,25.5 73.5,20.5C 67.8236,20.3339 62.1569,20.5006 56.5,21C 55.9678,23.4632 54.6345,25.2965 52.5,26.5C 52.5,21.5 52.5,16.5 52.5,11.5 Z"/></g>
<g><path style="opacity:1" fill="#eff0ee" d="M 58.5,54.5 C 57.8333,53.1667 57.1667,51.8333 56.5,50.5C 56.529,42.3035 60.529,39.1369 68.5,41C 70.3333,41.5 71.5,42.6667 72,44.5C 73.0495,55.2299 68.5495,58.5633 58.5,54.5 Z"/></g>
<g><path style="opacity:0.984" fill="#fcaa03" d="M 38.5,55.5 C 38.3336,63.5069 38.5003,71.5069 39,79.5C 42.3709,76.2975 45.5375,72.9641 48.5,69.5C 55.8627,70.2416 57.1961,73.575 52.5,79.5C 50.629,79.8588 49.129,80.8588 48,82.5C 45.0936,87.0384 43.5936,91.7051 43.5,96.5C 39.2051,102.463 34.2051,107.796 28.5,112.5C 22.5,106.833 16.5,101.167 10.5,95.5C 10.5,95.1667 10.5,94.8333 10.5,94.5C 14.7431,86.3144 18.9098,77.9811 23,69.5C 27.7587,64.2341 32.9254,59.5675 38.5,55.5 Z"/></g>
<g><path style="opacity:0.957" fill="#7ca444" d="M 91.5,73.5 C 91.6663,80.175 91.4996,86.8417 91,93.5C 90.6258,94.4162 90.1258,95.2496 89.5,96C 74.1703,96.4999 58.837,96.6666 43.5,96.5C 43.5936,91.7051 45.0936,87.0384 48,82.5C 49.129,80.8588 50.629,79.8588 52.5,79.5C 54.5338,80.5478 55.8671,82.2145 56.5,84.5C 62.1278,85.4954 67.7945,85.8288 73.5,85.5C 73.5,80.8333 75.8333,78.5 80.5,78.5C 80.5,76.5 80.5,74.5 80.5,72.5C 84.1788,72.7244 87.8455,73.0578 91.5,73.5 Z"/></g>
<g><path style="opacity:0.913" fill="#5390c7" d="M 10.5,94.5 C 10.5,94.8333 10.5,95.1667 10.5,95.5C 9.95244,97.3936 8.95244,99.0603 7.5,100.5C 13.4857,107.819 19.8191,114.819 26.5,121.5C 26.1667,122.167 25.8333,122.833 25.5,123.5C 24.5,123.5 23.5,123.5 22.5,123.5C 15.1396,115.473 7.47294,107.806 -0.5,100.5C -0.5,99.5 -0.5,98.5 -0.5,97.5C 2.12928,92.3115 5.79595,91.3115 10.5,94.5 Z"/></g>
<g><path style="opacity:0.98" fill="#88afd4" d="M 10.5,95.5 C 16.5,101.167 22.5,106.833 28.5,112.5C 31.4822,116.243 30.8155,119.243 26.5,121.5C 19.8191,114.819 13.4857,107.819 7.5,100.5C 8.95244,99.0603 9.95244,97.3936 10.5,95.5 Z"/></g>
</svg>
