<?xml version="1.0" encoding="UTF-8"?>
<!DOCTYPE svg PUBLIC "-//W3C//DTD SVG 1.1//EN" "http://www.w3.org/Graphics/SVG/1.1/DTD/svg11.dtd">
<svg xmlns="http://www.w3.org/2000/svg" version="1.1" width="126px" height="125px" style="shape-rendering:geometricPrecision; text-rendering:geometricPrecision; image-rendering:optimizeQuality; fill-rule:evenodd; clip-rule:evenodd" xmlns:xlink="http://www.w3.org/1999/xlink">
<g><path style="opacity:0.948" fill="#4195cd" d="M 77.5,-0.5 C 93.5,-0.5 109.5,-0.5 125.5,-0.5C 125.5,11.1667 125.5,22.8333 125.5,34.5C 109.497,34.6666 93.4965,34.4999 77.5,34C 74.0447,29.5891 70.7114,25.0891 67.5,20.5C 61.6368,18.9607 55.9702,19.4607 50.5,22C 45.7966,28.7187 46.7966,34.3854 53.5,39C 70.5,39.3333 87.5,39.6667 104.5,40C 114.606,43.2083 117.439,49.7083 113,59.5C 111.048,61.8936 108.548,63.3936 105.5,64C 101.514,64.4988 97.5138,64.6655 93.5,64.5C 93.5,62.8333 93.5,61.1667 93.5,59.5C 97.9152,59.6946 102.249,59.1946 106.5,58C 109.981,54.6031 110.314,50.9364 107.5,47C 89.924,45.6934 72.2574,45.0267 54.5,45C 44.7789,42.6087 40.6122,36.442 42,26.5C 43.0901,20.412 46.5901,16.5787 52.5,15C 57.5329,14.829 62.5329,14.329 67.5,13.5C 70.8428,8.80409 74.1762,4.13742 77.5,-0.5 Z"/></g>
<g><path style="opacity:1" fill="#82cad8" d="M 106.5,6.5 C 109.167,7.16667 111.833,7.83333 114.5,8.5C 114.5,9.83333 114.5,11.1667 114.5,12.5C 111.753,12.1866 109.086,12.52 106.5,13.5C 116.244,17.1046 116.91,21.7712 108.5,27.5C 106.354,26.1064 104.021,25.4397 101.5,25.5C 101.5,24.1667 101.5,22.8333 101.5,21.5C 110.741,21.9512 111.408,20.4512 103.5,17C 102.196,16.196 101.529,15.0293 101.5,13.5C 102.827,10.853 104.493,8.51969 106.5,6.5 Z"/></g>
<g><path style="opacity:0.979" fill="#f7b34c" d="M 56.5,50.5 C 56.3343,54.8461 56.501,59.1794 57,63.5C 61.0659,64.4637 65.2325,64.797 69.5,64.5C 69.5,59.8333 69.5,55.1667 69.5,50.5C 77.5,50.5 85.5,50.5 93.5,50.5C 93.5,53.1667 93.5,55.8333 93.5,58.5C 80.9488,67.6019 68.6155,76.9353 56.5,86.5C 49.0391,83.5206 41.3725,82.854 33.5,84.5C 33.5,73.1667 33.5,61.8333 33.5,50.5C 41.1667,50.5 48.8333,50.5 56.5,50.5 Z"/></g>
<g><path style="opacity:1" fill="#f6761c" d="M 56.5,50.5 C 60.8333,50.5 65.1667,50.5 69.5,50.5C 69.5,55.1667 69.5,59.8333 69.5,64.5C 65.2325,64.797 61.0659,64.4637 57,63.5C 56.501,59.1794 56.3343,54.8461 56.5,50.5 Z"/></g>
<g><path style="opacity:0.986" fill="#f6aa36" d="M 93.5,58.5 C 93.5,58.8333 93.5,59.1667 93.5,59.5C 93.5,61.1667 93.5,62.8333 93.5,64.5C 93.5,74.8333 93.5,85.1667 93.5,95.5C 90.7671,98.367 87.4338,99.867 83.5,100C 86.6149,95.3562 85.9483,91.3562 81.5,88C 72.9899,87.8294 64.6566,87.3294 56.5,86.5C 68.6155,76.9353 80.9488,67.6019 93.5,58.5 Z"/></g>
<g><path style="opacity:0.994" fill="#fbc6a0" d="M 56.5,86.5 C 64.6566,87.3294 72.9899,87.8294 81.5,88C 85.9483,91.3562 86.6149,95.3562 83.5,100C 87.4338,99.867 90.7671,98.367 93.5,95.5C 100.298,92.2677 106.964,88.7677 113.5,85C 118.761,83.4742 122.761,84.9742 125.5,89.5C 125.5,92.1667 125.5,94.8333 125.5,97.5C 111.41,106.93 97.0772,115.93 82.5,124.5C 64.1667,124.5 45.8333,124.5 27.5,124.5C 27.5,111.833 27.5,99.1667 27.5,86.5C 29.2972,85.2702 31.2972,84.6036 33.5,84.5C 41.3725,82.854 49.0391,83.5206 56.5,86.5 Z"/></g>
<g><path style="opacity:0.976" fill="#4295cd" d="M -0.5,86.5 C 8.83333,86.5 18.1667,86.5 27.5,86.5C 27.5,99.1667 27.5,111.833 27.5,124.5C 18.1667,124.5 8.83333,124.5 -0.5,124.5C -0.5,111.833 -0.5,99.1667 -0.5,86.5 Z"/></g>
<g><path style="opacity:1" fill="#195a8e" d="M 12.5,106.5 C 17.9836,106.481 19.6503,108.981 17.5,114C 10.3691,115.211 8.7024,112.711 12.5,106.5 Z"/></g>
</svg>
