<?xml version="1.0" encoding="UTF-8"?>
<!DOCTYPE svg PUBLIC "-//W3C//DTD SVG 1.1//EN" "http://www.w3.org/Graphics/SVG/1.1/DTD/svg11.dtd">
<svg xmlns="http://www.w3.org/2000/svg" version="1.1" width="132px" height="133px" style="shape-rendering:geometricPrecision; text-rendering:geometricPrecision; image-rendering:optimizeQuality; fill-rule:evenodd; clip-rule:evenodd" xmlns:xlink="http://www.w3.org/1999/xlink">
<g><path style="opacity:0.986" fill="#fdc00a" d="M 63.5,-0.5 C 64.8333,-0.5 66.1667,-0.5 67.5,-0.5C 76.2125,6.41102 86.2125,10.411 97.5,11.5C 100.563,38.3879 89.8962,57.3879 65.5,68.5C 40.9236,57.1884 30.2569,38.0218 33.5,11C 44.7809,10.1808 54.7809,6.34745 63.5,-0.5 Z"/></g>
<g><path style="opacity:1" fill="#fffdf8" d="M 75.5,21.5 C 80.9933,20.178 83.4933,22.178 83,27.5C 77.5428,33.6581 71.7095,39.4914 65.5,45C 63.9556,46.1871 62.2889,46.5205 60.5,46C 56.3333,43.1667 52.8333,39.6667 50,35.5C 48.9754,31.5499 50.4754,29.2166 54.5,28.5C 57.4065,29.8974 59.9065,31.8974 62,34.5C 67.0026,30.6636 71.5026,26.3303 75.5,21.5 Z"/></g>
<g><path style="opacity:0.99" fill="#2295f2" d="M 39.5,76.5 C 33.1667,87.1667 26.8333,97.8333 20.5,108.5C 12.2207,105.202 5.22068,100.202 -0.5,93.5C -0.5,90.1667 -0.5,86.8333 -0.5,83.5C 2.22535,79.7324 4.72535,75.7324 7,71.5C 11.0173,66.4073 16.184,64.5739 22.5,66C 28.5657,69.0239 34.2324,72.5239 39.5,76.5 Z"/></g>
<g><path style="opacity:0.988" fill="#2295f1" d="M 131.5,84.5 C 131.5,87.1667 131.5,89.8333 131.5,92.5C 130.153,95.3663 128.153,97.8663 125.5,100C 120.594,103.089 115.594,105.923 110.5,108.5C 104.139,97.8161 97.806,87.1494 91.5,76.5C 96.0974,72.8583 101.097,69.6916 106.5,67C 112.847,64.2863 118.347,65.453 123,70.5C 126.123,75.0965 128.957,79.7632 131.5,84.5 Z"/></g>
<g><path style="opacity:0.982" fill="#e9edf0" d="M 39.5,76.5 C 43.5771,77.2432 45.9105,79.5766 46.5,83.5C 40.3995,92.0327 35.0661,101.033 30.5,110.5C 26.6999,112.966 23.3666,112.3 20.5,108.5C 26.8333,97.8333 33.1667,87.1667 39.5,76.5 Z"/></g>
<g><path style="opacity:0.983" fill="#e8edf0" d="M 91.5,76.5 C 97.806,87.1494 104.139,97.8161 110.5,108.5C 108.098,111.545 105.098,112.545 101.5,111.5C 96.1945,102.211 90.5278,93.2108 84.5,84.5C 83.1931,83.1984 83.1931,81.865 84.5,80.5C 86.3999,78.3841 88.7332,77.0507 91.5,76.5 Z"/></g>
<g><path style="opacity:0.976" fill="#fecaba" d="M 46.5,83.5 C 49.4721,85.3222 52.4721,87.1555 55.5,89C 57.4727,89.4955 59.4727,89.6621 61.5,89.5C 56.403,94.1907 52.403,99.6907 49.5,106C 51.0531,113.224 55.3864,115.891 62.5,114C 65.3116,112.023 67.9783,109.856 70.5,107.5C 76.2269,112.224 81.2269,117.558 85.5,123.5C 82.6813,127.663 79.0146,130.663 74.5,132.5C 69.8333,132.5 65.1667,132.5 60.5,132.5C 57.4375,131.301 54.4375,129.801 51.5,128C 44.4293,122.148 37.4293,116.315 30.5,110.5C 35.0661,101.033 40.3995,92.0327 46.5,83.5 Z"/></g>
<g><path style="opacity:0.987" fill="#fecaba" d="M 84.5,84.5 C 90.5278,93.2108 96.1945,102.211 101.5,111.5C 99.6916,111.491 98.0249,111.991 96.5,113C 93.6306,116.038 90.6306,118.871 87.5,121.5C 83.1077,115.264 78.1077,109.43 72.5,104C 68.2116,104.998 64.545,107.331 61.5,111C 53.294,111.093 51.4606,107.593 56,100.5C 59.4456,95.8799 63.6122,92.2132 68.5,89.5C 71.1873,89.6641 73.854,89.4974 76.5,89C 79.0321,87.2347 81.6987,85.7347 84.5,84.5 Z"/></g>
<g><path style="opacity:0.953" fill="#fdac93" d="M 61.5,89.5 C 63.8333,89.5 66.1667,89.5 68.5,89.5C 63.6122,92.2132 59.4456,95.8799 56,100.5C 51.4606,107.593 53.294,111.093 61.5,111C 64.545,107.331 68.2116,104.998 72.5,104C 78.1077,109.43 83.1077,115.264 87.5,121.5C 87.1667,122.5 86.5,123.167 85.5,123.5C 81.2269,117.558 76.2269,112.224 70.5,107.5C 67.9783,109.856 65.3116,112.023 62.5,114C 55.3864,115.891 51.0531,113.224 49.5,106C 52.403,99.6907 56.403,94.1907 61.5,89.5 Z"/></g>
</svg>
