<?xml version="1.0" encoding="UTF-8"?>
<!DOCTYPE svg PUBLIC "-//W3C//DTD SVG 1.1//EN" "http://www.w3.org/Graphics/SVG/1.1/DTD/svg11.dtd">
<svg xmlns="http://www.w3.org/2000/svg" version="1.1" width="114px" height="114px" style="shape-rendering:geometricPrecision; text-rendering:geometricPrecision; image-rendering:optimizeQuality; fill-rule:evenodd; clip-rule:evenodd" xmlns:xlink="http://www.w3.org/1999/xlink">
<g><path style="opacity:0.986" fill="#e3eafe" d="M 46.5,-0.5 C 53.5,-0.5 60.5,-0.5 67.5,-0.5C 92.2545,5.92144 107.588,21.5881 113.5,46.5C 113.5,52.8333 113.5,59.1667 113.5,65.5C 111.76,74.6503 108.093,82.9836 102.5,90.5C 81.5432,66.6077 56.5432,61.441 27.5,75C 21.0388,79.2945 15.3721,84.4612 10.5,90.5C 5.1934,83.2221 1.52673,75.2221 -0.5,66.5C -0.5,59.5 -0.5,52.5 -0.5,45.5C 5.94784,20.7186 21.6145,5.38523 46.5,-0.5 Z"/></g>
<g><path style="opacity:1" fill="#4495ff" d="M 49.5,16.5 C 68.8221,14.6621 78.3221,23.3287 78,42.5C 74.227,55.1418 65.727,60.9751 52.5,60C 36.602,54.3127 31.4354,43.4794 37,27.5C 40.1269,22.54 44.2936,18.8733 49.5,16.5 Z"/></g>
<g><path style="opacity:0.987" fill="#4293fe" d="M 102.5,90.5 C 93.4371,102.702 81.4371,110.368 66.5,113.5C 59.8333,113.5 53.1667,113.5 46.5,113.5C 31.6428,110.399 19.6428,102.733 10.5,90.5C 15.3721,84.4612 21.0388,79.2945 27.5,75C 56.5432,61.441 81.5432,66.6077 102.5,90.5 Z"/></g>
</svg>
