<?xml version="1.0" encoding="UTF-8"?>
<!DOCTYPE svg PUBLIC "-//W3C//DTD SVG 1.1//EN" "http://www.w3.org/Graphics/SVG/1.1/DTD/svg11.dtd">
<svg xmlns="http://www.w3.org/2000/svg" version="1.1" width="512px" height="512px" style="shape-rendering:geometricPrecision; text-rendering:geometricPrecision; image-rendering:optimizeQuality; fill-rule:evenodd; clip-rule:evenodd" xmlns:xlink="http://www.w3.org/1999/xlink">
<g><path style="opacity:0.996" fill="#02b0ff" d="M -0.5,4.5 C 61.5,4.5 123.5,4.5 185.5,4.5C 185.5,30.1667 185.5,55.8333 185.5,81.5C 184.506,91.9869 184.172,102.654 184.5,113.5C 173.702,103.202 163.035,92.7021 152.5,82C 148.543,79.6146 145.376,80.4479 143,84.5C 133.577,97.6784 123.91,110.678 114,123.5C 103.94,109.104 94.2738,94.4376 85,79.5C 82.9361,78.4086 80.7695,78.2419 78.5,79C 63.2507,105.331 48.9173,132.165 35.5,159.5C 23.5,159.5 11.5,159.5 -0.5,159.5C -0.5,107.833 -0.5,56.1667 -0.5,4.5 Z"/></g>
<g><path style="opacity:1" fill="#fcfeff" d="M 137.5,26.5 C 155.628,24.7893 163.128,32.7893 160,50.5C 155.275,58.8636 148.108,62.0302 138.5,60C 126.637,53.732 123.804,44.5653 130,32.5C 132.114,29.8792 134.614,27.8792 137.5,26.5 Z"/></g>
<g><path style="opacity:1" fill="#fafdff" d="M 184.5,113.5 C 184.5,118.5 184.5,123.5 184.5,128.5C 172.521,117.188 160.854,105.521 149.5,93.5C 139.331,106.52 129.664,119.853 120.5,133.5C 125.829,142.156 131.163,150.823 136.5,159.5C 132.5,159.5 128.5,159.5 124.5,159.5C 110.193,137.518 95.8595,115.518 81.5,93.5C 69.3113,115.21 57.6446,137.21 46.5,159.5C 42.8333,159.5 39.1667,159.5 35.5,159.5C 48.9173,132.165 63.2507,105.331 78.5,79C 80.7695,78.2419 82.9361,78.4086 85,79.5C 94.2738,94.4376 103.94,109.104 114,123.5C 123.91,110.678 133.577,97.6784 143,84.5C 145.376,80.4479 148.543,79.6146 152.5,82C 163.035,92.7021 173.702,103.202 184.5,113.5 Z"/></g>
<g><path style="opacity:0.999" fill="#24d38c" d="M 185.5,81.5 C 246.5,81.5 307.5,81.5 368.5,81.5C 368.5,98.1667 368.5,114.833 368.5,131.5C 307.167,131.5 245.833,131.5 184.5,131.5C 184.5,130.5 184.5,129.5 184.5,128.5C 184.5,123.5 184.5,118.5 184.5,113.5C 184.172,102.654 184.506,91.9869 185.5,81.5 Z"/></g>
<g><path style="opacity:1" fill="#20b373" d="M 368.5,81.5 C 375.833,81.5 383.167,81.5 390.5,81.5C 390.5,98.1667 390.5,114.833 390.5,131.5C 383.167,131.5 375.833,131.5 368.5,131.5C 368.5,114.833 368.5,98.1667 368.5,81.5 Z"/></g>
<g><path style="opacity:0.999" fill="#08b0ff" d="M 124.5,159.5 C 123.167,159.5 121.833,159.5 120.5,159.5C 95.8333,159.5 71.1667,159.5 46.5,159.5C 57.6446,137.21 69.3113,115.21 81.5,93.5C 95.8595,115.518 110.193,137.518 124.5,159.5 Z"/></g>
<g><path style="opacity:1" fill="#04b0ff" d="M 184.5,128.5 C 184.5,129.5 184.5,130.5 184.5,131.5C 184.5,140.833 184.5,150.167 184.5,159.5C 168.5,159.5 152.5,159.5 136.5,159.5C 131.163,150.823 125.829,142.156 120.5,133.5C 129.664,119.853 139.331,106.52 149.5,93.5C 160.854,105.521 172.521,117.188 184.5,128.5 Z"/></g>
<g><path style="opacity:1" fill="#fafefc" d="M 271.5,100.5 C 281.832,100.675 284.499,105.175 279.5,114C 270.88,116.717 267.047,113.55 268,104.5C 269.376,103.295 270.542,101.962 271.5,100.5 Z"/></g>
<g><path style="opacity:1" fill="#fafefc" d="M 308.5,100.5 C 316.775,99.7064 319.942,103.373 318,111.5C 313.632,116.711 309.299,116.711 305,111.5C 303.663,106.872 304.83,103.205 308.5,100.5 Z"/></g>
<g><path style="opacity:1" fill="#f8fdfb" d="M 344.5,100.5 C 352.161,99.663 355.661,102.996 355,110.5C 351.455,116.209 347.121,116.875 342,112.5C 339.696,107.855 340.529,103.855 344.5,100.5 Z"/></g>
<g><path style="opacity:1" fill="#ea5075" d="M 511.5,179.5 C 511.5,180.5 511.5,181.5 511.5,182.5C 507.306,185.429 502.973,188.095 498.5,190.5C 490.18,174.527 481.846,158.527 473.5,142.5C 475.795,136.577 478.628,130.91 482,125.5C 491.608,143.722 501.441,161.722 511.5,179.5 Z"/></g>
<g><path style="opacity:0.867" fill="#cbede3" d="M 184.5,131.5 C 245.833,131.5 307.167,131.5 368.5,131.5C 375.833,131.5 383.167,131.5 390.5,131.5C 390.5,131.833 390.5,132.167 390.5,132.5C 383.167,132.5 375.833,132.5 368.5,132.5C 307.5,132.5 246.5,132.5 185.5,132.5C 185.827,141.682 185.493,150.682 184.5,159.5C 184.5,150.167 184.5,140.833 184.5,131.5 Z"/></g>
<g><path style="opacity:1" fill="#f4f4f4" d="M 368.5,132.5 C 368.5,228.167 368.5,323.833 368.5,419.5C 286.167,419.5 203.833,419.5 121.5,419.5C 121.833,351.331 121.499,283.331 120.5,215.5C 120.5,196.833 120.5,178.167 120.5,159.5C 121.833,159.5 123.167,159.5 124.5,159.5C 128.5,159.5 132.5,159.5 136.5,159.5C 152.5,159.5 168.5,159.5 184.5,159.5C 185.493,150.682 185.827,141.682 185.5,132.5C 246.5,132.5 307.5,132.5 368.5,132.5 Z"/></g>
<g><path style="opacity:0.993" fill="#ebedee" d="M 368.5,132.5 C 375.833,132.5 383.167,132.5 390.5,132.5C 390.5,160.167 390.5,187.833 390.5,215.5C 389.501,283.665 389.167,351.998 389.5,420.5C 299.833,420.5 210.167,420.5 120.5,420.5C 120.5,352.167 120.5,283.833 120.5,215.5C 121.499,283.331 121.833,351.331 121.5,419.5C 203.833,419.5 286.167,419.5 368.5,419.5C 368.5,323.833 368.5,228.167 368.5,132.5 Z"/></g>
<g><path style="opacity:0.986" fill="#fe5577" d="M 473.5,142.5 C 481.846,158.527 490.18,174.527 498.5,190.5C 496.162,193.841 493.495,194.174 490.5,191.5C 487.827,188.494 485.16,185.494 482.5,182.5C 478.433,186.573 474.1,190.24 469.5,193.5C 463.645,190.076 457.978,186.409 452.5,182.5C 459.516,169.132 466.516,155.799 473.5,142.5 Z"/></g>
<g><path style="opacity:1" fill="#e0e0e0" d="M 156.5,181.5 C 174.167,181.5 191.833,181.5 209.5,181.5C 209.5,198.833 209.5,216.167 209.5,233.5C 191.833,233.5 174.167,233.5 156.5,233.5C 156.5,216.167 156.5,198.833 156.5,181.5 Z"/></g>
<g><path style="opacity:0.981" fill="#eeeded" d="M 452.5,182.5 C 457.978,186.409 463.645,190.076 469.5,193.5C 474.1,190.24 478.433,186.573 482.5,182.5C 485.16,185.494 487.827,188.494 490.5,191.5C 490.5,242.167 490.5,292.833 490.5,343.5C 477.833,343.5 465.167,343.5 452.5,343.5C 452.5,289.833 452.5,236.167 452.5,182.5 Z"/></g>
<g><path style="opacity:1" fill="#e0dfdf" d="M 511.5,182.5 C 511.5,236.167 511.5,289.833 511.5,343.5C 504.5,343.5 497.5,343.5 490.5,343.5C 490.5,292.833 490.5,242.167 490.5,191.5C 493.495,194.174 496.162,193.841 498.5,190.5C 502.973,188.095 507.306,185.429 511.5,182.5 Z"/></g>
<g><path style="opacity:1" fill="#bdbdbd" d="M 256.5,186.5 C 289.835,186.333 323.168,186.5 356.5,187C 360.072,189.626 360.405,192.626 357.5,196C 323.5,196.667 289.5,196.667 255.5,196C 252.753,192.553 253.087,189.386 256.5,186.5 Z"/></g>
<g><path style="opacity:0.989" fill="#04b0fe" d="M 120.5,215.5 C 120.5,283.833 120.5,352.167 120.5,420.5C 210.167,420.5 299.833,420.5 389.5,420.5C 389.167,351.998 389.501,283.665 390.5,215.5C 397.508,215.334 404.508,215.5 411.5,216C 418.428,218.594 422.928,223.427 425,230.5C 425.5,304.499 425.667,378.499 425.5,452.5C 422.713,453.477 419.713,453.81 416.5,453.5C 380.167,453.5 343.833,453.5 307.5,453.5C 300.167,453.5 292.833,453.5 285.5,453.5C 258.167,453.5 230.833,453.5 203.5,453.5C 163.663,453.832 123.996,453.499 84.5,452.5C 84.3333,379.499 84.5,306.499 85,233.5C 86.5409,224.957 91.3742,219.124 99.5,216C 106.492,215.5 113.492,215.334 120.5,215.5 Z"/></g>
<g><path style="opacity:1" fill="#c0c0c0" d="M 257.5,217.5 C 290.168,217.333 322.835,217.5 355.5,218C 360.833,221.333 360.833,224.667 355.5,228C 322.5,228.667 289.5,228.667 256.5,228C 252.336,224.005 252.669,220.505 257.5,217.5 Z"/></g>
<g><path style="opacity:1" fill="#fbcd46" d="M 311.5,268.5 C 311.5,282.833 311.5,297.167 311.5,311.5C 266.833,311.5 222.167,311.5 177.5,311.5C 177.5,297.167 177.5,282.833 177.5,268.5C 222.167,268.5 266.833,268.5 311.5,268.5 Z"/></g>
<g><path style="opacity:1" fill="#e6b746" d="M 311.5,268.5 C 318.833,268.5 326.167,268.5 333.5,268.5C 334.833,282.833 334.833,297.167 333.5,311.5C 326.167,311.5 318.833,311.5 311.5,311.5C 311.5,297.167 311.5,282.833 311.5,268.5 Z"/></g>
<g><path style="opacity:1" fill="#f7e1a2" d="M 333.5,268.5 C 326.167,268.5 318.833,268.5 311.5,268.5C 266.833,268.5 222.167,268.5 177.5,268.5C 177.5,282.833 177.5,297.167 177.5,311.5C 222.167,311.5 266.833,311.5 311.5,311.5C 318.833,311.5 326.167,311.5 333.5,311.5C 281.336,312.499 229.003,312.832 176.5,312.5C 176.5,297.5 176.5,282.5 176.5,267.5C 229.003,267.168 281.336,267.501 333.5,268.5 Z"/></g>
<g><path style="opacity:0.982" fill="#ff5376" d="M 452.5,344.5 C 465.167,344.5 477.833,344.5 490.5,344.5C 490.5,356.833 490.5,369.167 490.5,381.5C 479.397,381.954 468.397,381.454 457.5,380C 455.19,378.363 453.69,376.196 453,373.5C 452.5,363.839 452.334,354.172 452.5,344.5 Z"/></g>
<g><path style="opacity:1" fill="#eb5377" d="M 452.5,344.5 C 452.5,344.167 452.5,343.833 452.5,343.5C 465.167,343.5 477.833,343.5 490.5,343.5C 497.5,343.5 504.5,343.5 511.5,343.5C 511.5,354.167 511.5,364.833 511.5,375.5C 509.931,378.228 507.598,380.062 504.5,381C 499.845,381.499 495.179,381.666 490.5,381.5C 490.5,369.167 490.5,356.833 490.5,344.5C 477.833,344.5 465.167,344.5 452.5,344.5 Z"/></g>
<g><path style="opacity:1" fill="#bdbdbd" d="M 158.5,345.5 C 222.834,345.333 287.168,345.5 351.5,346C 353.646,346.479 354.646,347.812 354.5,350C 354.516,352.305 353.516,353.972 351.5,355C 287.167,355.667 222.833,355.667 158.5,355C 155.875,351.763 155.875,348.596 158.5,345.5 Z"/></g>
<g><path style="opacity:1" fill="#bdbdbd" d="M 158.5,378.5 C 223.168,378.333 287.834,378.5 352.5,379C 355.299,382.339 354.966,385.339 351.5,388C 287.5,388.667 223.5,388.667 159.5,388C 155.968,385.172 155.634,382.005 158.5,378.5 Z"/></g>
<g><path style="opacity:0.995" fill="#eeeeee" d="M 84.5,452.5 C 123.996,453.499 163.663,453.832 203.5,453.5C 203.5,461.833 203.5,470.167 203.5,478.5C 237.996,479.498 272.663,479.832 307.5,479.5C 307.5,470.833 307.5,462.167 307.5,453.5C 343.833,453.5 380.167,453.5 416.5,453.5C 416.666,463.172 416.5,472.839 416,482.5C 411.808,495.195 403.308,503.195 390.5,506.5C 289.499,506.667 188.499,506.5 87.5,506C 72.9951,501.494 65.1617,491.66 64,476.5C 63.3333,468.833 63.3333,461.167 64,453.5C 70.7445,452.521 77.5778,452.188 84.5,452.5 Z"/></g>
<g><path style="opacity:1" fill="#fbcc46" d="M 203.5,453.5 C 230.833,453.5 258.167,453.5 285.5,453.5C 285.5,461.833 285.5,470.167 285.5,478.5C 258.167,478.5 230.833,478.5 203.5,478.5C 203.5,470.167 203.5,461.833 203.5,453.5 Z"/></g>
<g><path style="opacity:1" fill="#e7b946" d="M 285.5,453.5 C 292.833,453.5 300.167,453.5 307.5,453.5C 307.5,462.167 307.5,470.833 307.5,479.5C 272.663,479.832 237.996,479.498 203.5,478.5C 230.833,478.5 258.167,478.5 285.5,478.5C 285.5,470.167 285.5,461.833 285.5,453.5 Z"/></g>
<g><path style="opacity:1" fill="#e0e0e0" d="M 425.5,452.5 C 432.5,452.5 439.5,452.5 446.5,452.5C 452.485,495.847 433.818,513.847 390.5,506.5C 403.308,503.195 411.808,495.195 416,482.5C 416.5,472.839 416.666,463.172 416.5,453.5C 419.713,453.81 422.713,453.477 425.5,452.5 Z"/></g>
</svg>
