<?xml version="1.0" encoding="UTF-8"?>
<svg id="Layer_2" data-name="Layer 2" xmlns="http://www.w3.org/2000/svg" viewBox="0 0 89.79 89.74">
  <defs>
    <style>
      .cls-1 {
        fill: #fff;
      }
    </style>
  </defs>
  <g id="Layer_1-2" data-name="Layer 1">
    <g>
      <path d="m10.38,89.74c-.83-.24-1.68-.43-2.49-.73-5.13-1.86-8.47-7.22-7.8-12.48.73-5.75,5.03-10.04,10.64-10.64.16-.02.33-.06.59-.12-.24-.6-.45-1.13-.67-1.66-3.38-8.16-6.76-16.31-10.14-24.47-.89-2.16-.26-3.67,1.89-4.56,3.88-1.6,7.75-3.21,11.63-4.8,2.04-.84,3.59-.19,4.45,1.86,2.55,6.13,5.09,12.27,7.64,18.41.11.26.23.52.34.78,1.15-.18,2.23-.35,3.4-.53-.5-2.16-.99-4.28-1.48-6.4-1.93-8.25-3.9-16.5-5.78-24.76-.24-1.06-.11-2.21-.07-3.31.14-4.23.32-8.46.47-12.7.06-1.81,1.04-3.11,2.7-3.53,1.52-.38,3.05.3,3.89,1.84,2.43,4.45,4.94,8.87,7.19,13.41.81,1.63,1.01,3.57,1.44,5.38,2,8.51,3.98,17.02,5.97,25.52.04.16.11.32.16.47,1.15-.76,2.27-1.49,3.36-2.26.18-.13.32-.48.31-.71-.23-4.33.09-8.64.58-12.93.11-.96.21-1.92.41-2.86.13-.6.02-1.03-.37-1.51-3.2-4.02-2.87-8.95.39-12.42,1.78-1.9,3.27-4.1,4.7-6.29,1.15-1.76,1.49-3.78.91-5.88-.19-.68.03-1.33.62-1.57.49-.2,1.35-.29,1.68,0,5.27,4.54,9.25,9.85,9.3,17.19.02,3.55-1.22,6.73-3.34,9.59-.24.32-.4.78-.39,1.17.14,4.57-.13,9.1-.77,13.62-.01.08,0,.17,0,.27,1.74.63,3.48,1.25,5.32,1.92.14-.34.32-.75.49-1.18,1.48-3.71,3.04-7.38,4.38-11.13.57-1.6.74-3.35.99-5.05.13-.91.48-1.59,1.26-2.07,3.37-2.09,6.73-4.21,10.1-6.29,1.3-.81,2.3-.36,2.65,1.15.89,3.83,1.77,7.66,2.65,11.49.03.13.12.26.18.38v.7c-.39.61-.8,1.2-1.17,1.82-1.21,1.99-2.62,3.89-3.55,6-2.4,5.43-4.57,10.97-6.86,16.45-.45,1.09-.69,2.12-.57,3.35.19,1.98.05,3.99.05,6.04.36.04.82.1,1.28.15,5.56.57,10.04,5.07,10.62,10.66.58,5.65-2.97,11.02-8.39,12.66-.63.19-1.28.35-1.92.53H10.38Zm34.54-2.99c10.72,0,21.44,0,32.16,0,.67,0,1.34-.05,2.01-.14,5.01-.64,8.37-5.31,7.55-10.47-.75-4.71-5.64-8.1-10.38-7.2-1.72.33-2.54-.53-2.09-2.2.66-2.46.8-4.94.41-7.46-1.26-7.98-8.13-14.12-16.17-14.43-7.3-.28-13.86,3.92-16.67,10.67-.66,1.58-1.5,1.84-2.9.89-2.85-1.94-5.98-2.79-9.44-2.49-6.95.61-12.57,6.4-12.88,13.34-.08,1.68-.72,2.15-2.36,1.81-3.51-.73-6.58.13-8.93,2.88-2.32,2.71-2.8,5.84-1.51,9.17,1.35,3.49,4.67,5.62,8.69,5.62,10.84,0,21.67,0,32.51,0Zm-24.79-42.78c-.85.35-1.63.68-2.41,1-1.09.44-1.91.2-2.3-.67-.38-.85.03-1.64,1.11-2.11.8-.34,1.6-.68,2.44-1.04-.39-.94-.76-1.8-1.13-2.69-.31.11-.5.17-.68.25-1.62.66-3.22,1.35-4.85,1.99-.84.33-1.61-.04-1.95-.83-.31-.74-.03-1.49.75-1.91.23-.12.48-.21.72-.31,1.6-.67,3.2-1.34,4.84-2.03-.4-.95-.75-1.81-1.13-2.72-4.16,1.72-8.26,3.42-12.41,5.14,3.6,8.67,7.16,17.26,10.8,26.04,1.54-5.48,4.73-9.3,9.67-11.72-.41-.98-.8-1.9-1.2-2.85-.37.15-.63.25-.9.36-1.48.61-2.96,1.23-4.45,1.83-1.03.41-1.89.03-2.18-.91-.25-.8.14-1.49,1.11-1.9,1.74-.73,3.48-1.45,5.27-2.2-.38-.92-.73-1.78-1.12-2.73Zm15.08-22.85c-.72.53-1.37,1.07-2.08,1.5-.44.26-.52.49-.38.98.34,1.24.62,2.49.89,3.74.26,1.18-.55,2.09-1.69,1.93-.73-.1-1.1-.58-1.26-1.27-.34-1.44-.69-2.88-1.02-4.23-1.1-.21-2.11-.4-3.16-.6,1.2,5.14,2.39,10.22,3.58,15.29.91,3.89,1.81,7.77,2.74,11.65.08.32.26.8.5.88.9.3,1.84.47,2.85.7-.05-.28-.07-.5-.12-.72-1.18-5.02-2.36-10.04-3.53-15.06-.29-1.22.09-2.06.99-2.26,1-.23,1.65.29,1.95,1.59.94,3.97,1.86,7.94,2.8,11.91.43,1.83.87,3.66,1.34,5.63.65-.98,1.17-1.84,1.77-2.65.35-.46.44-.87.3-1.44-1.28-5.38-2.52-10.78-3.78-16.17-.89-3.79-1.78-7.58-2.68-11.38Zm22.86-15.64c-.86,1.79-1.53,3.64-2.58,5.24-1.29,1.97-2.84,3.78-4.38,5.57-2.09,2.42-2.23,5.88-.18,8.24.22.26.6.51.92.54,2.56.2,5.13.37,7.69.49.35.02.84-.24,1.06-.53,1.9-2.55,2.84-5.43,2.59-8.61-.29-3.62-1.81-6.78-4-9.64-.38-.5-.81-.95-1.12-1.3Zm26.92,18.89c-.78,1.88-1.45,3.52-2.15,5.15-.42.97-1.2,1.32-2.03.96-.82-.36-1.13-1.17-.75-2.13.57-1.43,1.18-2.85,1.77-4.28.09-.21.15-.44.27-.8-2.02,1.25-3.88,2.4-5.72,3.58-.22.14-.38.48-.45.76-.6,2.34-1.18,4.68-1.73,7.02-.09.39-.1.88.07,1.22,1.31,2.71,4.56,4.04,7.4,3.03.34-.12.66-.44.85-.76,1.28-2.05,2.53-4.12,3.76-6.19.15-.24.27-.59.22-.85-.46-2.16-.97-4.32-1.52-6.71Zm-8.95,29.35c1.61-3.89,3.15-7.6,4.72-11.4-3.34.08-6.05-1.03-8.26-3.43-.98,2.36-1.92,4.64-2.87,6.94,2.78,2.08,4.86,4.67,6.41,7.89ZM25.5,13.23c0,1.81-.01,3.41.02,5.01,0,.23.17.49.34.67,1.26,1.39,2.88,1.96,4.67,1.53,1.8-.43,2.93-1.71,3.42-3.52.05-.18.09-.43.01-.58-.78-1.49-1.59-2.96-2.42-4.49-1.75,1.36-3.67,1.75-6.03,1.37Zm33.86,22.9c-2.8-.17-5.43-.34-8.2-.51v7.23c1.2-.25,2.44-.59,3.69-.76,1.28-.18,2.58-.2,3.9-.29.21-1.94.41-3.84.61-5.67Zm-7.89-3.5c2.75.15,5.34.29,7.98.43v-4.44c-2.36-.14-4.66-.29-6.95-.4-.17,0-.49.24-.52.4-.19,1.23-.32,2.47-.51,4.01ZM30.06,9.15c-1.04-1.92-2.07-3.84-3.13-5.75-.09-.16-.36-.22-.55-.33-.13.24-.35.47-.37.72-.1,1.92-.14,3.85-.23,5.78-.03.54.21.72.69.77,1.35.14,2.54-.18,3.58-1.19Z"/>
      <path class="cls-1" d="m79.27,89.74c.64-.18,1.28-.34,1.92-.53,5.42-1.65,8.97-7.01,8.39-12.66-.57-5.59-5.06-10.1-10.62-10.66-.46-.05-.92-.11-1.28-.15,0-2.05.14-4.06-.05-6.04-.12-1.23.12-2.27.57-3.35,2.29-5.48,4.46-11.02,6.86-16.45.93-2.11,2.35-4.01,3.55-6,.37-.62.78-1.21,1.17-1.82v57.67h-10.52Z"/>
      <path class="cls-1" d="m44.91,86.75c-10.84,0-21.67,0-32.51,0-4.03,0-7.35-2.13-8.69-5.62-1.29-3.33-.8-6.46,1.51-9.17,2.35-2.75,5.42-3.61,8.93-2.88,1.64.34,2.28-.13,2.36-1.81.31-6.94,5.93-12.73,12.88-13.34,3.46-.3,6.59.55,9.44,2.49,1.39.95,2.24.69,2.9-.89,2.81-6.75,9.37-10.95,16.67-10.67,8.04.31,14.91,6.45,16.17,14.43.4,2.52.25,5-.41,7.46-.45,1.67.37,2.52,2.09,2.2,4.74-.9,9.63,2.49,10.38,7.2.82,5.15-2.55,9.83-7.55,10.47-.66.08-1.34.14-2.01.14-10.72,0-21.44,0-32.16,0Zm1.68-20.88c-7.39.01-11.76,6.26-9.54,12.09.41,1.09,1.18,1.53,2.08,1.21.84-.3,1.07-1.12.8-2.2-.23-.92-.48-1.91-.38-2.82.3-2.74,2.2-4.73,4.78-5.24,2.56-.5,5,.68,6.39,3.11.67,1.17,1.48,1.36,2.6.64,2.39-1.55,5.09-.91,6.53,1.55.6,1.02,1.4,1.34,2.22.88.81-.45.97-1.34.43-2.37-1.71-3.21-5.55-4.73-8.98-3.5-.63.23-.96.12-1.39-.37-1.76-1.98-4-2.96-5.56-2.98Zm10.27-16.49c.02-.92-.62-1.52-1.63-1.53-3.87-.05-7.78,3.03-8.73,6.87-.25,1.01.13,1.82.96,2.05.91.25,1.58-.22,1.98-1.25.31-.78.65-1.57,1.14-2.24,1.19-1.6,2.88-2.29,4.84-2.45.91-.07,1.43-.63,1.44-1.45Zm-35.92,16.09c-.04,1.01.51,1.74,1.37,1.82.87.08,1.57-.46,1.66-1.43.21-2.31,1.42-3.8,3.53-4.66.84-.34,1.15-1.17.85-1.95-.29-.75-1.11-1.1-1.97-.84-2.94.89-5.31,3.96-5.44,7.06Z"/>
      <path class="cls-1" d="m20.13,43.97c.39.95.75,1.81,1.12,2.73-1.79.74-3.53,1.46-5.27,2.2-.97.41-1.36,1.1-1.11,1.9.3.95,1.16,1.32,2.18.91,1.49-.59,2.96-1.22,4.45-1.83.27-.11.54-.22.9-.36.4.95.79,1.87,1.2,2.85-4.94,2.42-8.13,6.24-9.67,11.72-3.64-8.78-7.2-17.36-10.8-26.04,4.15-1.72,8.26-3.42,12.41-5.14.38.91.73,1.77,1.13,2.72-1.64.69-3.24,1.36-4.84,2.03-.24.1-.49.18-.72.31-.78.42-1.06,1.17-.75,1.91.33.79,1.11,1.15,1.95.83,1.63-.64,3.24-1.33,4.85-1.99.19-.08.38-.14.68-.25.37.89.74,1.75,1.13,2.69-.84.36-1.64.69-2.44,1.04-1.08.47-1.49,1.25-1.11,2.11.39.87,1.21,1.11,2.3.67.78-.32,1.56-.64,2.41-1Z"/>
      <path class="cls-1" d="m35.21,21.13c.9,3.81,1.79,7.59,2.68,11.38,1.26,5.39,2.5,10.78,3.78,16.17.14.57.05.98-.3,1.44-.6.81-1.12,1.67-1.77,2.65-.47-1.97-.91-3.8-1.34-5.63-.94-3.97-1.86-7.94-2.8-11.91-.31-1.29-.95-1.82-1.95-1.59-.91.21-1.28,1.05-.99,2.26,1.18,5.02,2.36,10.04,3.53,15.06.05.22.07.44.12.72-1.01-.24-1.95-.4-2.85-.7-.24-.08-.42-.55-.5-.88-.93-3.88-1.83-7.77-2.74-11.65-1.19-5.07-2.38-10.15-3.58-15.29,1.05.2,2.06.39,3.16.6.33,1.35.68,2.79,1.02,4.23.16.69.53,1.17,1.26,1.27,1.14.16,1.95-.75,1.69-1.93-.27-1.25-.55-2.51-.89-3.74-.13-.48-.06-.71.38-.98.71-.43,1.36-.97,2.08-1.5Z"/>
      <path class="cls-1" d="m58.07,5.49c.3.35.74.81,1.12,1.3,2.19,2.85,3.71,6.02,4,9.64.25,3.17-.68,6.06-2.59,8.61-.21.29-.71.54-1.06.53-2.57-.12-5.13-.29-7.69-.49-.32-.03-.7-.28-.92-.54-2.05-2.36-1.91-5.82.18-8.24,1.54-1.79,3.09-3.6,4.38-5.57,1.05-1.6,1.72-3.45,2.58-5.24Zm3.26,10.4c-.05-.39-.08-1.1-.23-1.78-.2-.89-.92-1.31-1.78-1.14-.79.15-1.28.89-1.15,1.78.31,2.19-.07,4.22-1.31,6.08-.65.97-.55,1.87.21,2.38.78.53,1.63.28,2.29-.69,1.3-1.91,1.92-4.03,1.96-6.64Z"/>
      <path class="cls-1" d="m84.98,24.38c.55,2.4,1.06,4.55,1.52,6.71.06.26-.07.6-.22.85-1.24,2.07-2.48,4.14-3.76,6.19-.2.31-.52.64-.85.76-2.84,1.01-6.09-.32-7.4-3.03-.16-.34-.16-.84-.07-1.22.55-2.35,1.13-4.69,1.73-7.02.07-.28.23-.61.45-.76,1.84-1.18,3.7-2.32,5.72-3.58-.12.37-.18.59-.27.8-.59,1.43-1.2,2.85-1.77,4.28-.38.96-.08,1.77.75,2.13.83.36,1.61,0,2.03-.96.7-1.63,1.37-3.27,2.15-5.15Z"/>
      <path class="cls-1" d="m76.03,53.73c-1.55-3.22-3.62-5.82-6.41-7.89.95-2.3,1.89-4.58,2.87-6.94,2.2,2.4,4.91,3.51,8.26,3.43-1.57,3.8-3.11,7.52-4.72,11.4Z"/>
      <path class="cls-1" d="m25.5,13.23c2.36.38,4.28-.02,6.03-1.37.83,1.53,1.64,3,2.42,4.49.08.15.04.4-.01.58-.49,1.81-1.62,3.09-3.42,3.52-1.79.43-3.41-.14-4.67-1.53-.16-.18-.33-.45-.34-.67-.03-1.6-.02-3.2-.02-5.01Z"/>
      <path class="cls-1" d="m59.36,36.12c-.2,1.83-.4,3.73-.61,5.67-1.32.09-2.62.11-3.9.29-1.26.17-2.49.51-3.69.76v-7.23c2.77.17,5.4.34,8.2.51Z"/>
      <path class="cls-1" d="m51.46,32.63c.19-1.54.32-2.78.51-4.01.02-.16.34-.41.52-.4,2.29.11,4.59.26,6.95.4v4.44c-2.63-.14-5.23-.28-7.98-.43Z"/>
      <path class="cls-1" d="m30.06,9.15c-1.05,1-2.24,1.33-3.58,1.19-.48-.05-.72-.23-.69-.77.1-1.92.14-3.85.23-5.78.01-.25.24-.48.37-.72.19.11.46.17.55.33,1.06,1.91,2.09,3.83,3.13,5.75Z"/>
      <path d="m46.59,65.88c1.56.02,3.79,1,5.56,2.98.44.49.76.6,1.39.37,3.43-1.23,7.27.29,8.98,3.5.54,1.02.38,1.91-.43,2.37-.82.46-1.62.13-2.22-.88-1.44-2.46-4.14-3.1-6.53-1.55-1.13.73-1.93.53-2.6-.64-1.39-2.42-3.84-3.61-6.39-3.11-2.58.51-4.48,2.5-4.78,5.24-.1.92.15,1.9.38,2.82.27,1.08.03,1.9-.8,2.2-.9.32-1.66-.12-2.08-1.21-2.22-5.83,2.15-12.08,9.54-12.09Z"/>
      <path d="m56.87,49.39c-.02.82-.53,1.37-1.44,1.45-1.95.16-3.65.86-4.84,2.45-.49.66-.84,1.46-1.14,2.24-.4,1.03-1.07,1.5-1.98,1.25-.83-.23-1.21-1.04-.96-2.05.95-3.84,4.86-6.91,8.73-6.87,1.01.01,1.65.61,1.63,1.53Z"/>
      <path d="m20.95,65.48c.13-3.1,2.5-6.17,5.44-7.06.85-.26,1.68.09,1.97.84.3.78,0,1.6-.85,1.95-2.12.86-3.32,2.36-3.53,4.66-.09.97-.8,1.51-1.66,1.43-.86-.08-1.41-.81-1.37-1.82Z"/>
      <path d="m61.32,15.89c-.05,2.6-.66,4.73-1.96,6.64-.66.97-1.51,1.22-2.29.69-.76-.51-.86-1.42-.21-2.38,1.24-1.86,1.62-3.89,1.31-6.08-.13-.89.36-1.63,1.15-1.78.85-.16,1.57.26,1.78,1.14.15.68.18,1.38.23,1.78Z"/>
    </g>
  </g>
</svg>