<?xml version="1.0" standalone="no"?>
<!DOCTYPE svg PUBLIC "-//W3C//DTD SVG 20010904//EN"
 "http://www.w3.org/TR/2001/REC-SVG-20010904/DTD/svg10.dtd">
<svg version="1.0" xmlns="http://www.w3.org/2000/svg"
 width="512.000000pt" height="512.000000pt" viewBox="0 0 512.000000 512.000000"
 preserveAspectRatio="xMidYMid meet">

<g transform="translate(0.000000,512.000000) scale(0.100000,-0.100000)"
fill="#000000" stroke="none">
<path d="M340 2560 l0 -2560 2035 0 2035 0 0 115 c0 63 4 115 8 115 4 0 23
-16 42 -35 65 -67 124 -59 220 31 80 76 105 120 95 172 -5 31 -37 68 -186 217
l-179 181 0 2162 0 2162 -2035 0 -2035 0 0 -2560z m4020 398 l0 -2102 -227
225 c-197 194 -234 227 -275 239 l-47 15 30 49 c81 129 125 313 116 476 -22
359 -255 651 -607 762 -66 20 -94 23 -235 23 -145 -1 -168 -3 -248 -28 l-87
-27 -730 0 -730 0 0 -30 0 -30 676 0 676 0 -58 -43 c-74 -55 -162 -150 -206
-221 l-33 -55 -527 -1 -528 0 0 -30 0 -30 510 0 c281 0 510 -2 510 -4 0 -2 -7
-23 -16 -47 -23 -67 -42 -167 -46 -241 l-3 -68 -477 0 -478 0 0 -30 0 -30 478
0 477 0 18 -87 c15 -73 30 -116 74 -220 4 -10 -104 -13 -521 -13 l-526 0 0
-30 0 -30 548 -1 547 0 44 -61 c82 -112 236 -221 391 -274 l65 -23 -797 0
-798 -1 0 -30 0 -30 1197 0 1198 0 322 -322 323 -323 0 -112 0 -113 -1980 0
-1980 0 0 2500 0 2500 1980 0 1980 0 0 -2102z m-1045 -392 c68 -19 186 -72
242 -110 100 -68 222 -216 272 -331 62 -141 79 -350 41 -501 -73 -285 -287
-496 -575 -569 -93 -24 -266 -24 -360 -1 -96 24 -238 95 -312 156 -130 106
-224 257 -264 425 -29 124 -23 293 15 410 87 269 306 468 581 529 87 19 273
15 360 -8z m553 -1320 c15 -8 175 -163 357 -345 l330 -331 -98 -97 -97 -98
-331 330 c-182 182 -337 342 -345 357 -8 15 -14 44 -14 64 0 31 8 45 49 85 40
41 54 49 85 49 20 0 49 -6 64 -14z m-233 -230 l17 -26 -168 0 -169 0 81 29
c45 15 108 44 140 64 l59 36 12 -38 c6 -22 19 -51 28 -65z m1085 -635 c0 -33
-137 -171 -169 -171 -23 0 -141 103 -141 124 0 6 42 52 92 103 l93 93 62 -62
c43 -43 63 -70 63 -87z"/>
<path d="M770 3910 l0 -810 724 0 c570 0 725 3 728 13 2 6 2 371 0 810 l-4
797 -724 0 -724 0 0 -810z m1400 203 l-1 -548 -21 30 c-36 51 -113 119 -165
147 -60 33 -151 58 -211 58 l-44 0 60 64 c121 129 142 292 59 449 -36 69 -98
126 -176 164 -49 24 -68 27 -156 28 -88 0 -107 -3 -156 -26 -192 -90 -280
-319 -195 -505 14 -30 51 -81 82 -114 l57 -60 -75 0 c-150 0 -285 -67 -370
-184 l-28 -39 0 541 0 542 670 0 670 0 0 -547z m-513 306 c243 -117 244 -457
1 -578 -53 -27 -72 -31 -142 -31 -68 0 -90 4 -141 29 -194 91 -246 344 -103
505 98 112 248 141 385 75z m-29 -679 c-5 -17 -103 -129 -110 -127 -4 1 -30
29 -58 62 l-51 60 93 6 c51 3 101 6 111 7 10 1 17 -2 15 -8z m-393 -32 c12
-73 65 -505 65 -530 l0 -28 -236 0 -236 0 4 148 c3 140 5 150 34 212 17 36 43
80 59 98 60 71 179 131 262 132 40 0 42 -2 48 -32z m134 -15 c23 -27 41 -52
41 -56 0 -13 -81 -149 -86 -144 -4 3 -34 217 -34 239 0 24 44 2 79 -39z m377
15 c-3 -18 -10 -73 -17 -123 -6 -49 -13 -91 -14 -93 -5 -5 -85 134 -85 147 0
22 76 100 99 100 21 1 23 -2 17 -31z m146 11 c116 -39 206 -124 247 -234 18
-47 21 -79 21 -195 l0 -140 -209 0 c-116 0 -212 3 -214 8 -3 5 66 559 72 580
2 6 26 0 83 -19z m-404 -368 l-3 -196 -58 -3 c-40 -2 -59 1 -62 10 -3 7 -11
60 -19 117 l-13 104 60 105 60 105 19 -23 c17 -21 18 -40 16 -219z m158 137
l57 -102 -14 -115 -14 -116 -62 -3 -63 -3 0 202 c0 174 2 205 17 221 9 10 17
18 18 18 2 0 29 -46 61 -102z"/>
<path d="M1587 3326 c-11 -28 4 -47 32 -44 20 2 26 8 26 28 0 20 -6 26 -26 28
-17 2 -29 -3 -32 -12z"/>
<path d="M2630 4405 l0 -25 650 0 650 0 0 25 0 25 -650 0 -650 0 0 -25z"/>
<path d="M2630 4050 l0 -30 650 0 650 0 0 30 0 30 -650 0 -650 0 0 -30z"/>
<path d="M2630 3695 l0 -25 650 0 650 0 0 25 0 25 -650 0 -650 0 0 -25z"/>
<path d="M2630 3340 l0 -30 650 0 650 0 0 30 0 30 -650 0 -650 0 0 -30z"/>
<path d="M810 2560 l0 -30 130 0 130 0 0 30 0 30 -130 0 -130 0 0 -30z"/>
<path d="M810 1760 l0 -30 130 0 130 0 0 30 0 30 -130 0 -130 0 0 -30z"/>
<path d="M810 960 l0 -30 130 0 130 0 0 30 0 30 -130 0 -130 0 0 -30z"/>
<path d="M1320 580 l0 -30 1213 2 1212 3 3 28 3 27 -1215 0 -1216 0 0 -30z"/>
<path d="M2995 2405 c-185 -41 -334 -152 -419 -315 -92 -174 -88 -398 9 -569
45 -81 73 -115 142 -173 110 -92 240 -139 389 -139 111 0 166 12 269 62 100
47 170 108 234 204 60 91 86 158 101 262 25 188 -38 363 -184 508 -144 143
-347 203 -541 160z m230 -60 c107 -23 190 -68 271 -149 39 -39 79 -86 88 -103
l17 -33 -486 0 -486 0 18 33 c34 61 154 172 223 205 117 58 232 73 355 47z
m416 -387 c16 -59 19 -210 5 -272 l-11 -51 -517 -3 -517 -2 -10 37 c-21 86
-23 113 -6 113 10 0 15 10 15 30 0 20 -5 30 -15 30 -19 0 -19 5 1 91 l16 69
513 0 514 0 12 -42z m-41 -396 c0 -38 -132 -179 -210 -224 -194 -113 -459 -88
-629 58 -44 38 -131 148 -131 165 0 5 208 9 485 9 267 0 485 -4 485 -8z"/>
<path d="M2667 1833 c-4 -3 -7 -17 -7 -30 0 -19 5 -23 30 -23 27 0 30 3 30 30
0 25 -4 30 -23 30 -13 0 -27 -3 -30 -7z"/>
<path d="M2790 1810 c0 -25 4 -30 25 -30 21 0 25 5 25 30 0 25 -4 30 -25 30
-21 0 -25 -5 -25 -30z"/>
<path d="M2910 1810 c0 -27 3 -30 30 -30 27 0 30 3 30 30 0 27 -3 30 -30 30
-27 0 -30 -3 -30 -30z"/>
<path d="M3030 1810 c0 -27 3 -30 30 -30 27 0 30 3 30 30 0 27 -3 30 -30 30
-27 0 -30 -3 -30 -30z"/>
<path d="M3160 1810 c0 -25 4 -30 25 -30 21 0 25 5 25 30 0 25 -4 30 -25 30
-21 0 -25 -5 -25 -30z"/>
<path d="M3280 1811 c0 -28 3 -31 31 -31 27 0 30 3 27 28 -2 21 -9 28 -30 30
-25 3 -28 0 -28 -27z"/>
<path d="M3400 1810 c0 -27 3 -30 30 -30 27 0 30 3 30 30 0 27 -3 30 -30 30
-27 0 -30 -3 -30 -30z"/>
<path d="M3527 1833 c-4 -3 -7 -17 -7 -30 0 -19 5 -23 30 -23 27 0 30 3 30 30
0 25 -4 30 -23 30 -13 0 -27 -3 -30 -7z"/>
</g>
</svg>
