<?xml version="1.0" encoding="UTF-8"?>
<svg id="Layer_2" data-name="Layer 2" xmlns="http://www.w3.org/2000/svg" viewBox="0 0 90.19 90.19">
  <defs>
    <style>
      .cls-1 {
        fill: #fff;
      }
    </style>
  </defs>
  <g id="Layer_1-2" data-name="Layer 1">
    <path d="m79.8,90.19H31c-1.32-1.17-1.39-1.71-.47-3.31,2.54-4.39,5.07-8.78,7.6-13.17.94-1.62,1.87-3.24,2.81-4.88-.18-.15-.31-.27-.45-.37-4.99-3.52-8.69-8.09-11.05-13.72-.23-.54-.53-.65-1.05-.64-3.61.02-7.22.02-10.83,0-1.06,0-1.73-.7-1.75-1.69-.02-1.04.65-1.75,1.73-1.82.38-.02.76,0,1.14,0,3.08,0,6.16,0,9.25,0-.31-1.78-.61-3.49-.92-5.27-.35,0-.7,0-1.05,0-7.87,0-15.73-.02-23.6.02-1.08,0-1.88-.29-2.37-1.27V1.25C.51.29,1.3,0,2.39,0c13.53.03,27.06.02,40.59.02,1.81,0,2.34.53,2.34,2.37,0,3.46,0,6.93,0,10.39,0,.31.03.62.04,1.05,5.29-2.38,10.74-3.28,16.48-2.75,0-1.45,0-2.83,0-4.2.01-1.27.7-2.07,1.77-2.08,1.09,0,1.75.74,1.77,2.06.02,1.38-.01,2.76.02,4.14,0,.26.19.68.38.74,1.58.52,3.18.96,4.86,1.46v-.85c0-1.73,0-3.46,0-5.19,0-.23-.01-.47.02-.7.12-1,.89-1.68,1.84-1.64.94.04,1.64.69,1.66,1.7.05,2.08.14,4.17,0,6.25-.12,1.65.42,2.54,1.86,3.45,10.66,6.72,15.77,19.99,13.72,31.91-1.52,8.81-6.23,15.62-13.53,20.68-1.48,1.03-3.12,1.83-4.75,2.78.15.27.31.57.48.87,2.8,4.85,5.6,9.69,8.4,14.54.87,1.52.77,2.12-.54,3.22Zm-5.59-70.82v.99c0,3.61,0,7.22,0,10.83,0,.35,0,.71-.05,1.05-.12.78-.61,1.27-1.38,1.39-.83.14-1.54-.12-1.9-.93-.17-.39-.21-.85-.21-1.28-.01-4.49,0-8.98-.02-13.47,0-.3-.12-.79-.32-.87-1.58-.66-3.19-1.24-4.93-1.9,0,1.5.03,2.76,0,4.02-.03,1.05-.65,1.7-1.59,1.76-1.15.08-1.92-.64-1.94-1.88-.03-1.46,0-2.92,0-4.43-5.59-.63-10.8.35-15.78,2.75-.59.29-.77.63-.77,1.28.02,8.1.02,16.2.01,24.3,0,1.77-.54,2.3-2.32,2.3-3.79,0-7.57,0-11.36,0h-1.06c.34,1.62.66,3.08.93,4.54.11.56.34.77.93.75,1.05-.05,2.11-.03,3.17,0,1.11.02,1.89.79,1.87,1.8-.02.99-.75,1.69-1.85,1.72-.81.02-1.63,0-2.6,0,2.24,4.82,5.43,8.62,9.73,11.59.23-.39.41-.69.58-.99,3.41-5.91,6.88-11.8,10.21-17.76,1.01-1.81,2.83-1.61,3.72-.02,3.01,5.43,6.18,10.78,9.29,16.16,1.01,1.75,2.02,3.49,3.02,5.23,9.6-3.82,16.28-13.21,16.92-24.11.76-12.86-6.58-21.55-12.29-24.83ZM3.6,3.58v38.14h38.11V3.58H3.6Zm72.45,83.07c-6.92-11.98-13.76-23.82-20.64-35.74-6.9,11.95-13.74,23.8-20.64,35.74h41.28Z"/>
    <path class="cls-1" d="m74.21,19.37c5.71,3.28,13.05,11.97,12.29,24.83-.64,10.9-7.33,20.29-16.92,24.11-1-1.74-2.01-3.48-3.02-5.23-3.11-5.38-6.27-10.73-9.29-16.16-.88-1.59-2.71-1.78-3.72.02-3.33,5.96-6.79,11.84-10.21,17.76-.17.3-.35.6-.58.99-4.29-2.97-7.49-6.77-9.73-11.59.97,0,1.79.02,2.6,0,1.1-.03,1.83-.73,1.85-1.72.02-1.01-.76-1.77-1.87-1.8-1.06-.02-2.12-.04-3.17,0-.59.03-.83-.19-.93-.75-.28-1.46-.59-2.92-.93-4.54h1.06c3.79,0,7.57,0,11.36,0,1.77,0,2.32-.54,2.32-2.3,0-8.1,0-16.2-.01-24.3,0-.64.18-.99.77-1.28,4.97-2.41,10.19-3.38,15.78-2.75,0,1.51-.02,2.97,0,4.43.02,1.23.79,1.95,1.94,1.88.93-.06,1.56-.71,1.59-1.76.04-1.26,0-2.52,0-4.02,1.74.66,3.35,1.24,4.93,1.9.2.08.32.57.32.87.02,4.49,0,8.98.02,13.47,0,.43.05.9.21,1.28.35.8,1.07,1.06,1.9.93.77-.13,1.26-.61,1.38-1.39.05-.35.05-.7.05-1.05,0-3.61,0-7.22,0-10.83v-.99Z"/>
    <path class="cls-1" d="m3.6,3.58h38.11v38.14H3.6V3.58Z"/>
    <path class="cls-1" d="m76.06,86.64h-41.28c6.9-11.94,13.74-23.79,20.64-35.74,6.89,11.93,13.73,23.77,20.64,35.74Z"/>
    <path d="m16.13,62.91c-2.08,0-4.16.01-6.24,0-1.3,0-2.02-.68-1.99-1.8.02-1.08.75-1.72,2-1.72,4.16,0,8.32,0,12.48,0,1.26,0,2.07.71,2.07,1.77,0,1.07-.78,1.75-2.08,1.75-2.08.01-4.16,0-6.24,0Z"/>
    <path d="m9.6,54.09c-1.02-.02-1.73-.77-1.7-1.81.03-.98.76-1.71,1.74-1.71.98,0,1.79.82,1.78,1.79-.01.99-.8,1.75-1.81,1.73Z"/>
  </g>
</svg>