<?xml version="1.0" encoding="UTF-8"?>
<svg id="Layer_2" data-name="Layer 2" xmlns="http://www.w3.org/2000/svg" viewBox="0 0 80.58 84.98">
  <defs>
    <style>
      .cls-1 {
        fill: #fff;
      }
    </style>
  </defs>
  <g id="Layer_1-2" data-name="Layer 1">
    <g>
      <path d="m40.24,84.98c-6.99,0-13.98,0-20.98,0-1.47,0-1.82-.33-1.81-1.79.03-3.52-.06-7.05.14-10.57.3-5.31,5.22-10.16,10.55-10.36,4.68-.18,9.38-.1,14.07-.1,3.44,0,6.88-.06,10.31.1,5.25.25,10.17,5.1,10.46,10.37.2,3.63.12,7.28.13,10.92,0,1.07-.45,1.43-1.63,1.43-7.08,0-14.16,0-21.24,0Zm20.36-2.48c0-3.13.08-6.18-.02-9.23-.15-4.56-4.17-8.55-8.74-8.59-7.69-.07-15.38-.07-23.07,0-4.62.04-8.62,4.02-8.78,8.64-.1,2.94-.04,5.88-.04,8.82,0,.11.04.22.07.34h7.49c0-1.8-.01-3.54,0-5.28,0-.82.5-1.32,1.2-1.32.68,0,1.21.53,1.23,1.32.03,1.02,0,2.04,0,3.06,0,.74,0,1.48,0,2.2h20.67c0-.33,0-.59,0-.85,0-1.49-.02-2.97.01-4.46.02-.77.59-1.32,1.27-1.26.75.07,1.14.51,1.16,1.27,0,.35,0,.7,0,1.05,0,1.42,0,2.83,0,4.29h7.53Z"/>
      <path d="m40.27,0c.53.53,1,.83,1.22,1.26.96,1.82,1.86,3.68,2.75,5.54.22.46.46.69,1.02.76,2.02.24,4.03.52,6.03.89.5.09,1.08.47,1.35.89.34.55-.06,1.08-.51,1.52-1.47,1.41-2.9,2.86-4.38,4.26-.41.39-.49.75-.39,1.3.38,2.03.74,4.06,1.01,6.1.06.44-.11,1.12-.43,1.36-.32.24-1.03.23-1.43.04-1.86-.9-3.67-1.88-5.48-2.87-.52-.28-.93-.3-1.45-.01-1.76.97-3.52,1.92-5.33,2.79-.46.22-1.15.27-1.61.08-.64-.27-.58-.95-.46-1.6.38-2.06.73-4.12,1.04-6.19.04-.3-.16-.72-.39-.95-1.43-1.45-2.89-2.88-4.36-4.29-.48-.46-.9-1.02-.52-1.59.27-.41.88-.75,1.39-.84,2-.36,4.02-.64,6.04-.88.53-.06.74-.31.94-.73.89-1.86,1.79-3.72,2.75-5.54.23-.43.69-.75,1.2-1.29Zm.01,4.33c-.79,1.58-1.5,2.94-2.16,4.33-.33.69-.77,1.1-1.57,1.19-1.58.19-3.14.46-4.71.7.98,1.03,1.86,2.11,2.89,3.02.96.84,1.2,1.72.9,2.93-.33,1.32-.47,2.69-.71,4.2,1.5-.78,2.84-1.42,4.12-2.17.86-.51,1.59-.46,2.43.02,1.3.74,2.66,1.4,4.16,2.17-.26-1.53-.41-2.88-.73-4.2-.29-1.21-.04-2.08.92-2.92,1.03-.9,1.9-2,2.86-3.04-1.37-.2-2.79-.46-4.23-.6-1.04-.1-1.69-.52-2.12-1.5-.58-1.35-1.3-2.64-2.06-4.13Z"/>
      <path d="m4.28,38.89c.37-2.21.76-4.41,1.09-6.62.05-.3-.09-.74-.31-.96-1.43-1.45-2.9-2.87-4.36-4.28-.46-.44-.87-.88-.64-1.59.24-.75.89-.85,1.53-.94,1.98-.29,3.97-.55,5.95-.89.35-.06.77-.38.93-.69.93-1.77,1.79-3.58,2.68-5.38.27-.56.55-1.1,1.3-1.11.8-.02,1.08.56,1.37,1.14.87,1.77,1.76,3.54,2.61,5.32.22.46.45.7,1.01.77,2.02.24,4.04.52,6.04.89.5.09,1.09.47,1.35.89.34.54-.07,1.08-.52,1.52-1.46,1.42-2.89,2.88-4.36,4.28-.41.39-.52.76-.42,1.3.37,2.03.73,4.06,1.01,6.1.06.45-.1,1.13-.42,1.36-.31.23-1.01.19-1.41,0-1.86-.89-3.68-1.87-5.5-2.85-.51-.28-.92-.3-1.45,0-1.81.99-3.64,1.94-5.48,2.88-1.08.55-2.03,0-2-1.13Zm-.33-12.24c1.11,1.13,2.09,2.24,3.18,3.22.77.7.94,1.45.74,2.42-.3,1.44-.51,2.9-.79,4.5,1.51-.78,2.89-1.45,4.23-2.2.8-.45,1.48-.47,2.28-.02,1.33.75,2.71,1.42,4.23,2.2-.29-1.77-.52-3.38-.84-4.97-.14-.69.06-1.17.54-1.63,1.05-1.01,2.09-2.03,3.13-3.05.12-.12.2-.29.34-.49-1.6-.23-3.09-.49-4.59-.65-.92-.1-1.45-.54-1.83-1.37-.62-1.36-1.33-2.68-2.09-4.19-.81,1.61-1.49,3.08-2.29,4.47-.25.44-.81.87-1.29.97-1.59.34-3.21.52-4.95.78Z"/>
      <path d="m80.58,26.06c-.15.21-.37.62-.68.93-1.37,1.38-2.76,2.76-4.18,4.1-.49.46-.67.87-.53,1.58.41,1.96.73,3.94,1,5.93.06.45-.08,1.14-.39,1.38-.32.24-1.03.22-1.44.03-1.86-.89-3.69-1.86-5.5-2.85-.56-.31-.98-.28-1.52.01-1.73.95-3.47,1.89-5.26,2.74-.46.22-1.15.27-1.61.09-.65-.26-.59-.94-.47-1.6.37-2,.72-4,1-6.02.05-.36-.11-.87-.36-1.13-1.42-1.46-2.89-2.88-4.36-4.29-.48-.46-.9-1.01-.53-1.59.27-.42.88-.76,1.39-.85,2.03-.36,4.08-.6,6.12-.93.3-.05.67-.32.81-.59.95-1.83,1.85-3.69,2.76-5.54.28-.57.59-1.07,1.34-1.06.71.01,1,.51,1.26,1.04.9,1.83,1.8,3.65,2.68,5.48.21.43.45.64.97.7,2.02.24,4.03.57,6.04.86.96.14,1.48.61,1.46,1.55Zm-21.06.6c.29.31.47.52.67.71.95.94,1.9,1.89,2.86,2.82.48.46.66.95.53,1.64-.31,1.59-.54,3.19-.84,4.96,1.54-.8,2.95-1.48,4.31-2.24.75-.42,1.39-.4,2.12,0,1.36.75,2.76,1.44,4.29,2.23-.26-1.55-.45-2.96-.75-4.34-.23-1.06-.1-1.89.8-2.63.96-.79,1.81-1.72,2.71-2.6.15-.15.26-.33.45-.56-1.67-.25-3.21-.52-4.77-.7-.83-.09-1.29-.5-1.63-1.23-.66-1.4-1.38-2.77-2.15-4.3-.71,1.42-1.42,2.66-1.96,3.97-.46,1.12-1.23,1.56-2.39,1.66-1.37.12-2.73.38-4.25.6Z"/>
      <path d="m52.57,45.88c.01,6.73-5.57,12.31-12.28,12.29-6.78-.03-12.27-5.51-12.3-12.27-.03-6.83,5.45-12.33,12.28-12.33,6.84,0,12.29,5.46,12.3,12.31Zm-22.12-.07c0,5.49,4.38,9.89,9.84,9.88,5.43-.01,9.82-4.4,9.81-9.82,0-5.5-4.37-9.87-9.84-9.88-5.43,0-9.8,4.37-9.81,9.82Z"/>
      <path class="cls-1" d="m60.59,82.5h-7.53c0-1.45,0-2.87,0-4.29,0-.35,0-.7,0-1.05-.01-.76-.41-1.2-1.16-1.27-.68-.06-1.25.49-1.27,1.26-.03,1.48-.01,2.97-.01,4.46,0,.26,0,.52,0,.85h-20.67c0-.71,0-1.45,0-2.2,0-1.02.02-2.04,0-3.06-.02-.79-.55-1.32-1.23-1.32-.7,0-1.19.5-1.2,1.32-.02,1.74,0,3.48,0,5.28h-7.49c-.03-.13-.07-.24-.07-.34,0-2.94-.06-5.89.04-8.82.16-4.62,4.16-8.6,8.78-8.64,7.69-.07,15.38-.07,23.07,0,4.57.04,8.59,4.04,8.74,8.59.1,3.05.02,6.1.02,9.23Z"/>
      <path class="cls-1" d="m40.28,4.33c.75,1.5,1.47,2.79,2.06,4.13.42.98,1.08,1.4,2.12,1.5,1.44.14,2.86.4,4.23.6-.96,1.04-1.83,2.13-2.86,3.04-.96.84-1.21,1.71-.92,2.92.32,1.32.47,2.68.73,4.2-1.5-.78-2.86-1.43-4.16-2.17-.84-.48-1.57-.52-2.43-.02-1.27.75-2.61,1.38-4.12,2.17.25-1.51.39-2.88.71-4.2.3-1.22.06-2.09-.9-2.93-1.03-.91-1.92-1.99-2.89-3.02,1.57-.24,3.14-.51,4.71-.7.8-.1,1.24-.5,1.57-1.19.66-1.39,1.37-2.76,2.16-4.33Z"/>
      <path class="cls-1" d="m3.95,26.65c1.74-.26,3.36-.45,4.95-.78.49-.1,1.04-.53,1.29-.97.8-1.4,1.48-2.87,2.29-4.47.76,1.5,1.47,2.82,2.09,4.19.38.83.91,1.27,1.83,1.37,1.5.16,2.99.42,4.59.65-.13.2-.21.37-.34.49-1.04,1.02-2.08,2.04-3.13,3.05-.48.46-.68.94-.54,1.63.32,1.59.54,3.2.84,4.97-1.51-.78-2.9-1.45-4.23-2.2-.8-.45-1.49-.44-2.28.02-1.33.76-2.72,1.42-4.23,2.2.28-1.6.49-3.06.79-4.5.2-.97.03-1.72-.74-2.42-1.09-.99-2.07-2.09-3.18-3.22Z"/>
      <path class="cls-1" d="m59.52,26.66c1.52-.22,2.88-.48,4.25-.6,1.16-.1,1.92-.54,2.39-1.66.54-1.31,1.25-2.54,1.96-3.97.77,1.53,1.49,2.9,2.15,4.3.34.73.81,1.13,1.63,1.23,1.55.18,3.09.45,4.77.7-.19.24-.3.42-.45.56-.89.88-1.75,1.8-2.71,2.6-.89.74-1.03,1.57-.8,2.63.3,1.38.49,2.79.75,4.34-1.53-.79-2.93-1.48-4.29-2.23-.74-.41-1.38-.42-2.12,0-1.36.76-2.77,1.44-4.31,2.24.29-1.77.52-3.37.84-4.96.14-.69-.05-1.18-.53-1.64-.96-.93-1.91-1.87-2.86-2.82-.2-.19-.38-.4-.67-.71Z"/>
      <path class="cls-1" d="m30.46,45.82c0-5.44,4.38-9.82,9.81-9.82,5.47,0,9.83,4.38,9.84,9.88,0,5.41-4.38,9.81-9.81,9.82-5.46.01-9.85-4.39-9.84-9.88Z"/>
    </g>
  </g>
</svg>