<?xml version="1.0" encoding="UTF-8"?>
<svg id="Layer_2" data-name="Layer 2" xmlns="http://www.w3.org/2000/svg" viewBox="0 0 77.32 77.33">
  <defs>
    <style>
      .cls-1 {
        fill: #fff;
      }

      .cls-2 {
        fill: #00aeef;
      }
    </style>
  </defs>
  <g id="Layer_1-2" data-name="Layer 1">
    <path d="m0,16.97C0,12.25,0,7.54,0,2.83,0,.88.83.01,2.76,0c9.5-.01,18.99-.01,28.49,0,1.89,0,2.72.84,2.72,2.73.01,9.5.01,18.99,0,28.49,0,2-.79,2.76-2.78,2.76-9.46,0-18.92,0-28.38,0-1.9,0-2.8-.89-2.8-2.78,0-4.75,0-9.5,0-14.25ZM29.34,4.68H4.63c-.03.28-.07.49-.07.7,0,7.69.01,15.38-.02,23.07,0,.91.43.97,1.13.97,7.54-.01,15.09,0,22.63-.01.34,0,.68-.06,1.03-.09V4.68Z"/>
    <path d="m60.32,77.33c-4.71,0-9.42,0-14.13,0-1.98,0-2.86-.87-2.86-2.84,0-9.42,0-18.85,0-28.27,0-2.01.82-2.86,2.83-2.87,9.46-.01,18.92-.01,28.38,0,1.94,0,2.78.84,2.79,2.79.01,9.46.01,18.92,0,28.38,0,2.03-.81,2.8-2.86,2.8-4.71,0-9.42,0-14.13,0Zm12.33-4.63v-24.71h-24.67c-.03.36-.07.68-.07.99,0,7.57.01,15.15-.02,22.72,0,.89.31,1.09,1.13,1.09,7.54-.03,15.07-.01,22.61-.02.32,0,.63-.04,1.02-.07Z"/>
    <path d="m33.97,60.37c0,4.68,0,9.35,0,14.03,0,2.21-.73,2.93-2.94,2.93-9.35,0-18.7,0-28.05,0-2.15,0-2.98-.81-2.98-2.93,0-9.39,0-18.78,0-28.17,0-2.03.8-2.88,2.8-2.88,9.46-.01,18.92-.01,28.38,0,1.97,0,2.78.82,2.78,2.78.01,4.75,0,9.5,0,14.25Zm-29.34-12.39c-.03.31-.06.48-.06.66,0,7.72,0,15.45-.02,23.17,0,.91.43.97,1.13.97,7.54-.01,15.08,0,22.62-.01.34,0,.69-.04,1.03-.07v-24.72H4.63Z"/>
    <path class="cls-1" d="m29.34,4.68v24.64c-.35.03-.69.09-1.03.09-7.54,0-15.09,0-22.63.01-.7,0-1.14-.06-1.13-.97.03-7.69.02-15.38.02-23.07,0-.21.04-.42.07-.7h24.71Z"/>
    <path class="cls-2" d="m43.28,16.97c0-4.71,0-9.42,0-14.14,0-1.95.83-2.82,2.75-2.82,9.5-.01,18.99-.01,28.49,0,1.89,0,2.72.84,2.72,2.73.01,9.5.01,18.99,0,28.49,0,2-.79,2.76-2.78,2.76-9.46,0-18.92,0-28.38,0-1.9,0-2.8-.89-2.8-2.78,0-4.75,0-9.5,0-14.25Zm29.34-12.28h-24.71c-.03.28-.07.49-.07.7,0,7.69.01,15.38-.02,23.07,0,.91.43.97,1.13.97,7.54-.01,15.09,0,22.63-.01.34,0,.68-.06,1.03-.09V4.68Z"/>
    <path class="cls-1" d="m72.62,4.68v24.64c-.35.03-.69.09-1.03.09-7.54,0-15.09,0-22.63.01-.7,0-1.14-.06-1.13-.97.03-7.69.02-15.38.02-23.07,0-.21.04-.42.07-.7h24.71Z"/>
    <path class="cls-1" d="m72.64,72.7c-.38.03-.7.07-1.02.07-7.54,0-15.07,0-22.61.02-.83,0-1.14-.2-1.13-1.09.03-7.57.02-15.15.02-22.72,0-.32.05-.63.07-.99h24.67v24.71Z"/>
    <path class="cls-1" d="m4.63,47.98h24.7v24.72c-.34.02-.68.07-1.03.07-7.54,0-15.08,0-22.62.01-.71,0-1.14-.06-1.13-.97.03-7.72.02-15.45.02-23.17,0-.18.03-.35.06-.66Z"/>
  </g>
</svg>