<?xml version="1.0" encoding="UTF-8"?>
<svg id="Layer_2" data-name="Layer 2" xmlns="http://www.w3.org/2000/svg" viewBox="0 0 81.22 81.14">
  <defs>
    <style>
      .cls-1 {
        fill: #fff;
      }
    </style>
  </defs>
  <g id="Layer_1-2" data-name="Layer 1">
    <path d="m0,38c.21-1.38.37-2.77.65-4.13,1.54-7.46,4.36-14.31,9.67-19.94.45-.48.93-.93,1.43-1.37.77-.67,1.64-.94,2.64-.57.98.37,1.57,1.08,1.66,2.12.08.97.06,1.95.11,2.93.35,7.21,3.33,12.95,9.73,16.52,6.03,3.36,12.23,6.44,18.31,9.71,3.46,1.86,6.94,3.7,10.24,5.81,3.02,1.93,5.26,4.64,6.2,8.22.99,3.78.5,7.44-1.12,10.95-2.09,4.5-5.17,8.13-9.57,10.55-1.91,1.05-3.94,1.76-6.08,2.18-.15.03-.28.11-.42.17h-6.5c-.85-.16-1.69-.33-2.55-.47-6.01-.99-11.6-3.08-16.68-6.47-4.38-2.92-7.82-6.75-10.77-11.05-3.4-4.95-5.56-10.39-6.47-16.32C.3,45.68.16,44.54,0,43.39c0-1.8,0-3.59,0-5.39Zm11.32-17.16c-.19.26-.32.39-.4.55-1.14,2.31-2.44,4.56-3.39,6.95-2.62,6.54-3.18,13.28-1.53,20.17,1.4,5.84,4.16,10.95,8.04,15.51,3.51,4.12,7.75,7.19,12.75,9.24,3.26,1.34,6.64,2.31,10.14,2.61,2.26.19,4.66.38,6.83-.14,6.19-1.51,10.01-5.75,11.86-11.71,1.28-4.13,0-7.73-3.47-10.29-1.78-1.31-3.69-2.46-5.64-3.5-7.08-3.75-14.22-7.4-21.31-11.14-2.69-1.42-5.28-3.01-7.38-5.27-3.39-3.65-5.44-7.98-6.49-12.98Z"/>
    <path class="cls-1" d="m0,43.39c.16,1.14.3,2.29.48,3.42.92,5.93,3.07,11.38,6.47,16.32,2.96,4.3,6.4,8.13,10.77,11.05,5.08,3.39,10.67,5.48,16.68,6.47.85.14,1.7.31,2.55.47H0C0,68.56,0,55.97,0,43.39Z"/>
    <path d="m81.17,40.49c0,7.35-1.71,14.26-5.43,20.62-.66,1.13-1.51,2.16-2.37,3.16-.85.99-1.9,1.23-2.92.78-1.1-.49-1.65-1.36-1.61-2.57.07-2.78-.01-5.54-.79-8.24-1.39-4.82-4.09-8.73-8.42-11.27-4.46-2.61-9.1-4.91-13.66-7.34-4.38-2.33-8.79-4.59-13.12-7.01-2.67-1.49-5.06-3.41-6.59-6.14-2.72-4.86-2.54-9.77-.07-14.68,1.89-3.77,5.17-5.67,9.03-6.9,3.85-1.23,7.69-1.01,11.57-.3,5.04.92,9.87,2.45,14.34,4.99,7.41,4.21,12.82,10.22,16.29,18,1.92,4.3,3.08,8.8,3.71,13.44.16,1.14.02,2.32.02,3.48Zm-7.66,13.57s.13-.24.21-.45c1.03-2.69,1.69-5.48,2.08-8.34.39-2.83.53-5.68.16-8.51-.54-4.18-1.71-8.21-3.58-11.99-4.05-8.2-10.4-13.89-18.96-17.13-3.83-1.45-7.8-2.23-11.85-2.6-2.18-.2-4.21.53-6.23,1.22-2.35.81-3.97,2.36-4.99,4.65-1.61,3.62-1.25,8.43,2.16,11.12,1.67,1.32,3.44,2.56,5.31,3.56,7.37,3.95,14.81,7.76,22.19,11.67,4.65,2.46,8.5,5.83,10.9,10.59,1.02,2.02,1.75,4.19,2.59,6.23Z"/>
    <path class="cls-1" d="m11.32,20.84c1.05,5,3.1,9.33,6.49,12.98,2.1,2.26,4.69,3.85,7.38,5.27,7.09,3.74,14.23,7.39,21.31,11.14,1.95,1.03,3.86,2.19,5.64,3.5,3.47,2.56,4.75,6.16,3.47,10.29-1.85,5.96-5.67,10.21-11.86,11.71-2.16.53-4.56.34-6.83.14-3.5-.3-6.87-1.27-10.14-2.61-5.01-2.05-9.25-5.12-12.75-9.24-3.88-4.56-6.64-9.67-8.04-15.51-1.65-6.89-1.09-13.63,1.53-20.17.96-2.39,2.25-4.64,3.39-6.95.08-.16.21-.29.4-.55Z"/>
    <path class="cls-1" d="m73.51,54.07c-.84-2.04-1.57-4.21-2.59-6.23-2.41-4.76-6.25-8.13-10.9-10.59-7.39-3.91-14.83-7.72-22.19-11.67-1.87-1-3.64-2.24-5.31-3.56-3.41-2.69-3.77-7.5-2.16-11.12,1.02-2.29,2.64-3.84,4.99-4.65,2.02-.69,4.05-1.42,6.23-1.22,4.05.38,8.02,1.15,11.85,2.6,8.56,3.25,14.91,8.93,18.96,17.13,1.87,3.78,3.04,7.81,3.58,11.99.37,2.84.22,5.68-.16,8.51-.39,2.86-1.05,5.64-2.08,8.34-.08.21-.19.41-.21.45Z"/>
  </g>
</svg>